<svg width="112" height="108" viewBox="0 0 112 108" fill="none" xmlns="http://www.w3.org/2000/svg">
<path fill-rule="evenodd" clip-rule="evenodd" d="M56.4802 43.632C56.4751 43.6269 56.47 43.5963 56.47 43.5912V43.4024C56.4648 43.382 56.4495 43.3207 56.4495 43.2952C56.4291 43.035 56.3424 43.3054 56.4853 42.9789C56.6332 42.637 56.6485 42.8513 56.7914 42.29C56.8986 41.8767 56.8731 41.9992 57.0772 41.693C56.8271 41.591 57.021 41.6828 56.8731 41.5042L56.3883 40.9021C56.4955 40.5143 56.6179 40.6521 56.6792 40.2031C56.8526 38.9632 56.373 39.8561 57.0721 37.7641L57.4803 36.7844C57.766 36.3353 58.3171 36.4782 59.0467 36.4782C59.4856 35.6465 59.5519 35.422 60.4755 35.1566C60.6745 35.1005 60.5622 35.1107 60.8122 35.1056C60.7714 35.621 60.6336 35.4118 60.6183 36.0853C60.603 36.6211 60.6592 36.6058 60.3989 36.9476C59.7611 37.7794 60.4346 37.6773 60.0264 38.4478C60.5724 38.4937 60.0928 38.4427 60.4806 38.5856C60.6898 38.6672 60.7357 38.657 60.9143 38.7437C60.9143 39.3969 60.8479 39.7796 60.3224 39.9224C60.3224 40.596 60.4449 40.3051 60.4857 40.6419C60.552 41.2134 60.3173 40.6164 60.3887 41.244L60.4193 42.5758C60.6898 42.5962 60.6336 42.586 60.8122 42.6727C60.7561 42.9329 60.7255 42.9636 60.6183 43.1677C60.9857 43.086 61.1643 43.0401 61.2102 43.5606C61.2868 43.5095 61.3429 43.4993 61.4398 43.3871C61.5725 43.2391 61.5113 43.3003 61.5113 43.2034L61.4194 42.8105C61.2153 42.4737 60.8275 42.7544 60.7408 42.1676C60.6898 41.8155 60.7306 41.0756 61.0163 40.8052C61.297 40.5398 61.2511 40.7439 61.2102 40.2184C61.8276 40.2286 61.644 40.4531 62.2256 40.1521C62.6594 39.9275 62.6083 39.8918 63.0778 40.1163C62.9247 39.4734 63.0574 39.7387 63.2717 39.3356L63.338 39.1979C63.4656 39.0193 63.3329 39.1009 63.5676 39.0346V38.7437C63.088 38.6876 63.1849 38.2743 62.9706 37.861L62.8533 37.5855C62.3328 36.1976 62.8022 36.6925 62.2869 36.4782C62.2869 35.723 62.1032 34.6362 61.7919 33.9218C61.6184 33.5187 61.6899 33.5238 61.7001 33.0391C61.4654 33.1973 61.598 33.1564 61.3072 33.233V32.9421C61.6031 32.835 61.4909 32.9523 61.5827 32.5748L61.5776 31.9522C61.5776 31.9063 61.5725 31.8757 61.5725 31.8655C61.5776 31.8604 61.5878 31.8349 61.6082 31.7787C61.6133 31.7583 61.6286 31.7328 61.6388 31.7124C61.644 31.692 61.6593 31.6665 61.6695 31.6461L61.797 31.3654C62.1899 31.3756 62.1593 31.4114 62.3889 31.5644C62.2154 30.8246 62.3175 30.3347 62.9757 29.8908C62.9043 29.5846 62.8533 29.6051 62.7818 29.304C63.1492 29.1254 63.3992 29.1203 63.5064 28.6611C63.6595 28.0437 63.4707 28.4162 63.8636 27.8294C63.7513 27.3497 63.4809 26.5945 63.4707 26.0588C63.7615 26.0333 63.9401 26.0078 64.1085 25.8088C64.7514 25.0383 63.5778 24.7576 63.4809 24.2678C63.3992 23.8443 63.6493 23.2983 63.7054 22.9003C63.7258 22.7625 63.7258 22.5992 63.7207 22.4258C63.7156 22.0533 63.736 22.3033 63.6288 21.8696C63.4043 20.9664 63.8278 21.0889 63.8534 20.5429C63.8687 20.1959 63.7207 20.1704 63.6493 19.8796C63.5625 19.5071 63.5625 19.8541 63.7921 19.405C64.0115 18.9866 63.8891 18.7213 64.1289 18.2621C64.282 17.9661 64.1289 18.2468 64.282 18.0222C64.2922 18.0018 64.3126 17.9814 64.3228 17.961C64.333 17.9457 64.3483 17.9202 64.3636 17.9049C64.3738 17.8845 64.3891 17.859 64.3993 17.8437L64.7463 17.3079C65.5321 17.3079 66.2107 17.6549 66.0271 16.5221C65.9199 15.8435 65.9097 16.5986 65.7311 15.9302C65.8178 15.5985 66.0679 15.3689 66.2465 14.9709C66.2822 14.8791 66.3128 14.8178 66.3638 14.6954L66.7261 14.0065C66.7669 13.879 66.7567 13.6289 66.7822 13.4452L66.9251 12.8993C67.0374 12.5523 67.0169 12.0778 67.1088 11.7002L68.0885 11.3073C67.6088 10.5878 67.8895 10.6184 68.2875 10.0316C68.4967 9.72548 68.4406 9.66935 68.711 9.3683C69.4151 8.58761 68.3589 8.62843 68.7977 7.99571C69.007 7.68956 69.0274 7.90897 69.2213 7.41912C69.4151 6.92418 69.1906 7.164 69.3743 6.79151C69.4611 6.60271 69.6193 6.47005 69.7621 6.19451C69.9815 6.34248 70.3795 6.90376 70.5122 6.39861C70.5122 6.39861 70.451 5.36279 70.451 5.11277C70.6704 5.00051 70.8541 4.96479 70.9408 4.71987C71.2827 4.81172 71.3694 4.95459 71.6807 5.06684C71.9766 5.174 72.1144 5.24033 72.4155 5.31177L72.4053 5.00561C72.4002 4.9903 72.3797 4.96479 72.3746 4.95459L72.2216 4.71987C72.5328 4.35759 72.441 4.11266 72.5532 3.67895C72.7063 3.11767 72.9155 3.25033 73.2013 3.44423C73.1043 3.02582 73.1094 3.11767 73.3033 2.75538C74.1146 2.75538 73.9615 2.95438 74.3136 3.41361C74.6402 3.83202 74.7371 3.82692 74.8749 4.42392C76.4312 4.42392 75.5688 3.80141 76.3495 3.74018C76.4618 4.15349 76.722 4.21982 77.2323 4.23002V3.54118C77.8701 3.49015 77.6405 2.88295 77.5844 2.40331C77.5333 1.91346 77.6354 1.07664 78.0334 0.704154C78.3497 0.413308 78.1558 0.602104 78.5028 0.484745C78.8906 0.352078 79.0743 0.102051 79.4978 0C80.1969 1.04603 80.6663 0.887845 80.9214 1.33687C81.2021 1.84202 80.952 1.84202 80.8347 2.32677C80.7479 2.67374 80.8347 2.66864 80.7888 2.82682C80.7581 2.94418 80.6612 3.02072 80.5796 3.14828C81.2684 3.33197 80.4469 4.11267 80.7939 4.69436L81.0694 5.11277C82.3195 5.11277 81.6613 5.86284 82.544 6.09756C82.544 7.19461 82.544 7.03643 82.2175 7.83753C81.8042 8.84784 82.3042 9.22033 82.7992 9.9704C83.1104 10.4398 83.8809 11.2971 83.9217 11.8022C83.2686 11.8737 83.9881 12.389 83.5288 13.0779H83.9217V13.5728C83.6258 13.6494 83.7023 13.5677 83.6258 13.8637C83.835 14.18 83.7227 13.9912 83.9881 14.1902C84.3146 14.4351 84.0799 14.0882 84.2687 14.5168C84.5596 15.1852 84.136 14.8127 84.3146 15.2413C84.5034 15.5016 84.7535 15.4506 85.1004 15.6342C85.1004 16.2057 85.1106 16.1547 84.9831 16.5986C84.8402 17.0987 85.0443 17.0936 84.6106 17.2109C85.2586 18.1753 85.575 17.6038 86.3812 18.5835C86.6771 18.9458 86.8455 18.8897 86.7486 19.354C86.7435 19.3744 86.7281 19.3489 86.6924 19.5734C86.5955 20.2623 86.5751 21.0123 86.1465 21.5991C85.876 21.9716 85.7842 22.3798 85.529 22.8493C84.7279 24.2882 85.1668 24.1096 84.6871 24.5637C84.5851 24.6556 84.4167 24.7984 84.3401 24.9056L83.6921 26.0231C83.5799 26.217 83.5237 26.3139 83.4472 26.4721C83.3145 26.7527 83.2074 27.0385 82.8859 27.1813L82.2124 27.3957C81.4266 27.6151 81.4419 27.8957 80.8602 28.207C80.7428 28.2733 80.7632 28.2682 80.6051 28.3498L80.0081 28.4876C79.5795 28.5641 79.4774 29.105 78.8549 29.2224L77.9211 29.8908C77.5844 29.8041 77.7221 29.7428 77.5333 29.753C77.0537 29.7836 77.2986 29.8347 77.2323 29.9928H77.0384C77.0486 29.6051 77.0129 29.7581 77.1353 29.4979C77.1149 29.5081 77.0894 29.5336 77.0792 29.5438L76.8649 29.6867C76.6047 29.8245 76.6149 29.3805 76.5485 29.9928H76.2526C76.1199 29.4928 75.9924 29.799 75.8597 29.304C76.3648 29.2887 76.1403 29.3908 76.3495 29.105C75.7219 29.2377 76.3342 29.0693 75.8444 29.0693L75.5535 29.1254C75.5433 29.1254 75.5127 29.1254 75.5025 29.1254L75.278 29.0183C75.1096 28.9468 75.079 29.0132 74.9667 28.9009C74.7984 28.7325 74.9514 28.7733 74.8749 28.4162C75.278 28.4519 75.1606 28.6458 75.2678 28.3192C74.8443 28.207 74.8698 27.9365 74.6759 27.6304C74.8188 27.2426 74.6912 27.6202 74.9718 27.2375C74.5177 26.7578 74.7422 26.6048 74.8749 25.9312L75.0025 24.6709C75.0127 24.4821 75.0535 24.6658 74.9259 24.3494C74.7728 23.9616 74.431 23.1299 74.4055 22.737L74.2575 21.4052C74.3187 21.0634 74.2932 21.441 74.385 21.043C74.1503 21.0991 74.0942 21.1348 73.7931 21.1399C73.8544 20.3796 74.3187 21.0991 74.4208 20.7827C74.431 20.7572 74.4616 20.7572 74.482 20.747V20.5531C74.0789 20.446 74.186 20.4766 74.186 19.9612C74.6045 19.7418 74.5024 19.7112 74.8749 19.9612C74.8953 19.6908 74.8851 19.7469 74.9718 19.5683H75.3647C75.2627 19.354 75.3392 19.5326 75.2678 19.2724C75.5229 19.1805 75.6199 19.0479 75.7474 18.7672C76.2526 17.6549 75.9566 18.3131 76.5587 17.813C76.773 17.6345 76.7424 17.4763 76.8649 17.2313L77.2119 16.6241C77.217 16.6139 77.2323 16.5884 77.2374 16.5731C77.2425 16.5629 77.2476 16.5374 77.2527 16.5221L77.2782 16.4149C77.3241 16.2976 77.268 16.3792 77.3956 16.1955C77.8803 15.4965 77.37 15.4812 78.0232 15.0475C77.8293 14.7617 77.8242 14.9148 77.7272 14.5525C77.9058 14.3637 77.9568 14.2872 78.314 14.2566C78.4314 14.5117 78.3855 14.4505 78.314 14.7515H78.513C78.5947 14.3688 78.5487 14.5015 78.4722 14.0065C78.4059 13.5524 78.5794 13.2411 78.0436 13.0575C77.6507 12.9197 77.2476 12.9248 76.9669 12.9758C76.5587 13.0421 76.2067 12.9656 75.9158 13.3228C75.3749 13.9912 75.8699 13.5626 75.2015 13.8177C74.9667 13.9096 74.9769 14.1188 74.9769 14.2821L74.9259 14.6495C74.8035 14.9148 74.4004 15.1597 74.4616 15.5628C74.4769 15.6445 74.4769 15.6138 74.4973 15.6751L74.8749 16.716C74.482 16.9813 74.6963 16.9354 74.431 17.2569C74.2269 17.5018 73.9972 17.6345 73.9666 18.2263C73.9462 18.6856 73.9564 18.0784 74.0483 18.5376C74.1503 19.0326 74.0738 18.9101 73.7625 18.9305C73.1655 18.9611 73.3492 18.9866 73.1247 19.1958L72.1807 19.9255C72.0021 20.1296 71.9511 20.2266 71.9256 20.5531C71.3949 20.5072 71.4358 20.2317 71.3643 20.7827C71.3184 21.1144 71.2113 21.1858 71.0582 21.4563C70.701 22.0839 71.0735 22.3951 70.252 22.6145C70.2979 23.1758 70.405 22.7421 70.451 23.3034C70.1397 23.431 70.3591 23.0891 70.1856 23.6351C69.9866 24.2729 70.252 24.2678 70.252 24.977C69.9866 24.9515 69.9866 24.9311 69.7621 24.8801C69.8948 25.4567 69.6499 26.6915 69.9764 27.2171C70.0734 27.3701 69.9815 27.2375 70.1244 27.3752L70.3336 27.5538C70.5428 27.712 70.4918 27.661 70.8439 27.6304C70.9204 27.7936 70.9255 27.9416 71.0174 28.008C71.0514 28.0284 71.0752 28.0437 71.0888 28.0539C71.0786 28.0386 71.0837 28.0182 71.15 28.0131C71.1653 28.008 71.1908 27.9978 71.2062 27.9926C71.645 27.9569 71.4664 28.0692 71.6705 28.4723C71.946 29.0285 72.6349 29.7836 72.1807 30.4419C72.1705 30.4623 72.1501 30.4827 72.1348 30.498C72.1246 30.5133 72.1042 30.5337 72.0889 30.549C71.9052 30.7735 71.7215 30.9419 71.696 31.2226C71.6654 31.5746 71.8083 32.141 71.4766 32.2839C71.2776 32.3757 71.2929 32.3247 71.1398 32.2533C71.2776 32.6411 71.1551 32.2635 71.4358 32.6462C71.3031 32.7074 71.1449 32.7278 71.0684 32.7686C71.048 32.7789 71.0225 32.7942 71.002 32.8044C70.3744 33.1922 70.8388 33.1615 69.808 33.2942C69.6754 33.3146 69.7264 33.3095 69.5784 33.3503C69.5478 33.3605 69.5937 33.4065 69.2723 33.432C69.4203 33.5289 69.0478 33.5289 69.5631 33.5289V33.9218C69.5325 33.9218 69.3182 33.8912 69.3182 33.8912C69.1549 33.8912 69.2927 33.8657 69.1702 33.9218C69.2876 34.1412 69.3386 34.2178 69.4662 34.4168C69.308 35.0087 69.0988 35.5393 69.1294 36.1516L69.058 36.5701C68.9253 36.9732 68.6345 36.9578 68.8794 37.463C69.5886 37.2742 68.8079 36.9885 69.6652 36.9732L69.3335 38.4121C69.2519 38.6723 69.3284 38.4121 69.257 38.6315L69.2059 38.7744C69.0733 39.2132 68.8845 40.1725 68.4814 40.3153C68.3895 40.1214 68.3436 39.8612 68.2875 39.6265L68.2109 39.8459C68.1293 40.1061 68.0936 40.2949 67.8283 40.4531C67.813 40.4633 67.7874 40.4837 67.7721 40.4888C67.7517 40.499 67.7262 40.5143 67.7109 40.5194C67.6956 40.5245 67.665 40.5347 67.6497 40.5398C67.3945 40.6062 66.6853 40.4429 66.323 40.4123C66.2771 40.9634 66.3689 40.6929 66.0015 40.7695L65.5321 41.0042C65.5321 41.642 65.7158 41.6114 65.7311 42.1829C64.782 42.8207 65.3484 42.2237 64.6136 42.3359C63.5625 42.4941 64.1952 42.3819 63.2717 42.3819C63.3074 41.9584 63.435 41.9124 63.4707 41.494C62.7563 41.4328 63.1033 41.5144 62.5828 41.79C62.6645 42.091 62.9247 42.2186 62.7308 42.6115C62.5369 42.9942 62.4042 42.5809 62.3889 43.2646C62.7716 43.0605 62.9604 42.8717 62.9757 43.5606C62.2256 43.6218 62.2358 44.0351 61.996 44.5403C61.3429 44.3668 61.1235 44.377 60.8837 44.178C60.1744 43.5912 60.8888 43.831 59.9295 43.8565C59.9142 43.1728 59.9652 43.6065 59.7407 43.4942L59.6284 43.4483C59.2866 43.2952 59.2151 43.3922 58.8477 43.2136C58.8069 43.1881 58.7814 43.1728 58.7712 43.1575C58.7644 43.1609 58.7576 43.1643 58.7508 43.1677C58.6692 43.3412 58.5467 43.3412 59.1437 43.6575V44.3464C59.6999 44.3923 59.7917 44.9178 60.1948 44.8107C60.5061 44.729 60.6387 44.0402 61.1082 44.7393C60.8275 45.127 60.8837 44.8005 60.6796 45.0964L60.2254 45.821C60.7408 45.8312 60.5979 45.923 61.0112 46.02C61.1898 45.6424 61.0112 45.6169 61.5113 45.5353C61.8991 45.4689 61.9501 45.5812 62.2052 45.3414C62.394 45.1628 62.3889 44.9332 62.6492 44.8056C62.8788 44.6933 63.1747 44.7393 63.4707 44.7393C63.5064 44.2902 63.6595 44.2443 64.0575 44.1474L64.6494 44.6423C64.4861 45.2495 64.5932 44.7495 64.6494 45.4281C64.1697 45.6475 64.3687 45.1985 64.2207 45.6016C64.1136 45.8873 64.6596 45.7445 64.8279 45.8312C65.0729 45.9486 65.1953 46.2037 65.3382 46.4129C65.6495 46.3364 65.9913 46.1425 66.3026 45.9996C66.6751 45.821 66.7159 45.7904 67.2772 45.6985C68.4457 45.5046 67.9711 45.0811 68.8947 44.6576C69.109 44.5607 69.1753 44.5556 69.3641 44.4382L70.1193 44.1116C70.4765 43.9943 70.303 43.9024 70.7163 43.882C70.8286 43.8718 71.4919 43.831 71.7266 43.9484C71.9868 44.0759 72.2369 44.3362 72.3185 44.6423C72.0991 44.9434 72.3593 44.8311 71.9256 44.7393C72.0021 45.0607 72.0532 45.2036 72.4206 45.2291C73.0329 45.2699 73.237 44.6984 73.8136 44.8005C74.6606 44.9587 75.2882 45.1679 76.2526 45.1373C76.9465 45.1168 77.0843 44.9383 77.9211 44.9383C77.6507 44.4178 77.9058 44.0912 78.0232 43.6575C77.6711 43.4738 77.7374 43.6728 77.6303 43.2646C76.8547 43.2799 77.3139 43.7187 76.6047 43.2085C76.0332 42.8003 76.3189 42.9125 75.6607 42.9687L75.4668 42.4788C75.3494 42.9636 75.477 42.9278 75.0739 42.9687C74.9463 42.6982 75.1096 42.3564 75.181 41.892C75.3545 40.7184 74.6606 40.4276 74.982 38.555C75.0586 38.1263 75.3086 38.1365 75.3596 37.5548C75.426 36.8201 75.2984 37.0905 75.6811 36.6007C76.0536 36.1261 76.4312 35.5138 77.2323 35.4985C77.2629 35.8098 77.2884 35.871 77.4568 36.0598C78.1201 36.8048 78.1252 36.1261 78.4161 37.3661C79.2274 37.5548 79.6866 37.2895 79.5846 36.2996C79.5539 36.0037 79.4417 35.5138 79.4519 35.2281C79.4672 34.8811 79.4978 34.5137 79.4978 34.1208C79.1202 34.3198 79.3039 34.2535 79.3958 34.5137C79.0998 34.5188 79.0386 34.5596 78.809 34.6107C78.7835 34.5035 78.7426 34.279 78.7222 34.2076C78.6253 33.881 78.4008 33.7177 78.2171 33.335C77.9058 33.5595 78.2885 33.4881 77.615 33.9065C77.4466 34.0137 77.518 33.9269 77.3905 34.08C77.0639 34.4882 77.3343 35.075 76.6455 34.6107C76.6098 35.0393 76.5894 35.1669 76.1505 35.2026C76.1505 34.7689 76.2679 34.7127 76.1709 34.478C76.0383 34.1616 76.0077 34.4984 75.9975 33.9882C75.9975 33.8198 76.0077 33.6004 75.9872 33.3912C75.9566 33.0748 75.8954 33.3095 75.8597 32.8401C76.4822 32.8962 76.2271 33.136 76.3495 33.432C76.5843 33.2738 76.4516 33.3146 76.7577 33.233L76.5485 32.5492C76.0638 32.6513 76.4261 32.7074 76.1301 32.4778L75.8597 32.1512C76.722 31.7379 75.8189 32.4115 76.9414 31.6614C77.1302 31.8298 77.1506 31.8808 77.4313 31.9573V31.5644C77.7323 31.442 77.4568 31.5236 77.9211 31.5644V31.1715C78.6049 31.1154 77.9926 31.0287 78.7528 30.6154C78.7733 30.6052 78.8039 30.595 78.8243 30.5848C79.4978 30.2123 78.7937 30.5337 79.1049 29.8908C80.0336 29.9928 78.5487 30.0898 79.7887 30.0898V29.6969C80.1765 29.7275 80.0897 29.6357 80.1867 29.9928H80.3806C80.4163 29.5438 80.753 29.4265 81.1919 29.5642C81.4266 29.6357 81.0235 29.5693 81.4878 29.6714L82.2328 29.8194C82.5696 29.9724 82.3399 29.9673 82.6563 29.9061L83.6411 29.799C83.8146 29.7326 83.6309 29.702 84.0187 29.5949C84.335 30.2582 84.2534 30.197 84.0085 30.5643C83.8146 30.8552 83.7483 31.2991 83.6717 31.6104C83.6003 31.891 83.6564 33.1717 83.7942 33.4626C83.9472 33.7789 83.8656 33.483 84.1156 33.8249C84.1156 34.7995 83.8758 34.5699 83.8248 35.2026C84.6361 35.2689 83.8146 35.5802 84.6106 35.7894C84.6106 36.366 84.5085 36.4782 84.5085 36.9732C84.9678 37.0803 84.8045 37.0038 84.9473 37.3201C85.0137 37.4681 84.9882 37.4681 85.0545 37.611C85.1004 37.713 85.1412 37.7794 85.1923 37.861C85.376 38.1723 85.677 38.5652 85.4984 38.9376C85.4066 39.1264 85.279 39.1877 85.1361 39.3663C84.881 39.6928 85.0494 40.3511 84.6055 40.4225C84.2789 40.4735 84.1769 40.3255 84.0187 40.2184C83.5952 40.795 83.4268 40.4327 83.4268 41.591C84.0901 41.6471 83.7636 41.8767 83.7227 42.3819C82.9982 42.3819 83.3503 42.3104 83.0747 42.7135C82.7941 43.1268 82.8451 42.8207 82.6563 43.1779C82.4828 43.4942 82.544 44.2341 82.345 44.6423L82.84 45.0352C82.6716 45.2852 82.6716 45.3414 82.345 45.4281C82.044 45.2087 82.1869 45.4893 82.1511 45.0352L81.6154 45.4791C81.3807 45.6577 81.5184 45.5199 81.3807 45.7394C81.2225 45.9843 81.1051 46.0659 80.8347 46.1833C80.4112 46.3721 80.3397 46.1833 79.7887 46.3108C79.7887 46.7956 79.9009 47.3365 80.0132 47.76C80.1152 48.1376 80.2938 48.459 80.401 48.9591C80.6204 50 79.7836 49.4846 79.3958 50.9338C80.0387 50.9491 79.7734 51.1583 80.2836 51.4236C80.1611 51.6787 80.1765 51.9951 80.1254 52.3523C80.054 52.8064 80.0897 52.9442 80.2479 53.2299C80.5285 53.7402 80.5796 54.1484 81.0694 54.4749C81.0184 55.0668 80.9367 54.6944 81.0898 55.3373C81.3449 56.3884 80.4673 56.2353 79.9213 57.2558C78.9927 58.9856 78.9774 58.4243 79.1712 59.4193L79.3958 60.2766H78.7069C78.4416 60.7766 78.2018 61.2971 78.3599 61.9961C78.4926 62.5472 79.0539 62.7921 79.4978 63.0268C80.2122 62.5472 79.8754 62.7717 80.3091 62.8278L82.2787 62.838C82.7584 62.7666 82.8961 62.7462 83.0339 63.1238H83.6258C83.8197 62.3941 84.5289 63.0217 85.0443 62.4809C85.529 61.9808 85.3096 61.7869 86.1822 61.5522C86.3914 61.6951 86.8965 62.0522 87.0292 62.2768C87.2741 62.685 87.2894 63.0677 87.6925 63.583C87.7027 63.5983 87.7231 63.6187 87.7384 63.634C87.7487 63.6493 87.7742 63.6698 87.7895 63.6851L88.0293 63.9351C88.0395 63.9504 88.0548 63.9759 88.0701 63.9912L88.2487 64.2055C88.7896 64.7158 89.3253 65.3536 89.4886 66.1139C89.6315 66.7874 89.3866 67.0272 89.4325 67.5375C89.4529 67.762 89.555 67.9712 89.6162 68.1498C89.7336 68.5172 89.6723 68.4253 89.7234 68.8284C89.7846 69.2979 90.0652 69.5122 90.5091 69.6142C91.249 69.0734 91.744 68.5988 92.6726 69.2213C92.6726 70.4306 92.8308 70.5276 91.795 71.1042C91.4888 71.2726 91.5858 71.2777 91.198 71.1909V71.4818C91.5552 71.6298 91.4378 71.5124 91.2031 72.0686C90.902 72.7727 91.3868 74.1198 91.2847 74.7117C91.1674 75.3648 90.8969 74.9005 90.5602 75.176C89.9683 75.6557 90.3101 76.4211 90.3101 77.1864C89.9734 77.2171 89.9836 77.2528 89.7846 77.4467C89.7693 77.4569 89.7489 77.4824 89.7387 77.4977C89.7233 77.5079 89.7029 77.5334 89.6876 77.5436C89.5448 77.6865 89.7795 77.5742 89.5243 77.6763L90.004 77.8855C90.1826 78.0335 90.1418 78.1151 90.2642 78.3141C90.5449 78.7784 90.6928 78.508 90.703 79.1509C90.2948 79.2479 90.1264 79.4724 89.8866 79.5234C89.3764 79.6408 89.4172 79.3754 89.0192 79.3601C88.6365 79.3448 88.5396 79.5846 88.2232 79.7173C87.8405 79.8755 87.9426 80.0337 87.5599 80.1357C87.815 80.4878 88.1875 80.2837 88.2334 80.9419C88.2487 81.2073 88.1926 81.2685 88.065 81.4267L87.6568 81.7073C87.667 82.141 87.7538 82.1665 87.7538 82.6921C87.3558 82.9625 87.4272 83.0544 86.9425 82.9779L86.1975 82.9727C86.1822 82.9727 86.1516 82.9778 86.1362 82.9829C85.7842 83.034 85.8199 82.9268 85.4831 82.9064C84.9065 82.8707 85.3658 83.1309 84.7075 83.182C84.8402 83.7483 84.9422 83.3912 84.8045 83.9729C84.381 83.9729 84.085 84.0749 84.1258 83.5953C84.1769 83.0748 84.6412 83.3146 84.0187 82.9881C83.7789 83.4932 84.0799 83.4014 83.5288 83.7738C82.7992 83.7126 83.2176 83.3912 82.641 83.7738C82.8349 84.0392 82.7686 83.8759 82.8553 83.9626L83.3094 84.3147C84.3044 84.6566 84.2483 85.9424 83.5748 85.3148C83.141 84.9117 83.4676 85.0597 82.84 84.7586C82.9778 85.274 83.238 84.8301 83.5186 85.5699C83.6819 86.0088 83.5646 86.1874 83.0339 86.2333C82.9829 85.7638 83.1717 86.0649 82.743 85.8404V86.1363C82.2277 86.1363 82.1511 86.0292 81.7583 85.9373C81.7378 85.0903 81.5337 85.1413 81.3041 85.0138C80.5387 84.5852 81.0541 84.6107 80.4775 84.5596C80.6408 85.1668 80.7326 84.5647 80.5796 85.1515C80.4877 85.4934 80.3704 85.4067 80.5898 85.82C80.702 86.0394 81.1204 86.5905 81.2939 86.7946C82.3042 87.9681 82.1818 88.0804 83.1359 88.1008C82.9778 87.7794 83.0543 87.7487 83.1359 87.412H83.4268C83.4421 87.8865 83.5544 87.764 83.4421 88.111C83.3043 88.5498 83.2737 88.1876 83.2329 88.6927C82.6461 88.6417 82.8808 88.5447 82.544 88.2947C82.4573 88.5294 82.6053 88.4274 82.345 88.4937C82.4063 88.606 82.4828 88.7999 82.5389 88.8917C82.7175 89.1724 82.6053 89.0448 82.8655 89.157L83.2329 89.2897C83.2533 89.2948 83.2788 89.305 83.2992 89.3101C83.8248 89.4377 83.7125 89.1213 83.9728 89.5142C84.1667 89.7949 84.4065 90.4225 84.4116 90.7542C85.3913 90.7542 84.631 90.9021 85.376 91.2695C86.3914 91.7645 85.7076 92.1114 86.672 92.1318C86.672 93.137 86.7383 92.239 87.167 92.8207C86.9374 92.9738 86.968 93.0095 86.5751 93.0146C86.5547 92.8258 86.5751 92.8258 86.3403 92.6625C86.2077 92.5707 86.3557 92.6727 86.2077 92.5962C86.0801 92.5298 86.0699 92.5401 85.9424 92.4686L85.7587 92.3563C85.7433 92.3461 85.7229 92.3257 85.7076 92.3155C84.7739 91.4991 84.9576 92.1931 84.9014 91.5399C84.4575 91.5501 84.5136 91.642 84.0187 91.642C84.0952 91.7951 84.0646 91.7696 84.1309 91.9277L84.2075 92.1114C84.2381 92.2135 84.233 92.1625 84.2381 92.2951C84.2432 92.3002 84.2177 92.4992 84.2177 92.5247C83.585 92.5247 83.9524 93.1013 83.0339 91.7389C82.7737 91.9175 82.8859 91.9482 82.641 91.9686C82.3859 91.9941 82.2175 91.4583 82.2685 92.239C82.2736 92.3104 82.2787 92.3308 82.2787 92.3308C82.2787 92.3461 82.2736 92.3819 82.2736 92.4533C82.2736 92.5094 82.2532 92.6319 82.2481 92.7237C82.4267 92.6319 82.3706 92.6472 82.641 92.6217L82.7686 92.6931C83.3911 93.086 82.8961 92.9585 83.3298 93.1166C83.2941 93.5299 82.9472 93.9484 82.4471 93.7034C82.5389 94.1372 82.6512 93.882 82.345 94.0963C82.0899 93.8565 82.1716 93.8922 81.9777 93.581C81.8246 93.3411 81.8603 93.2952 81.5592 93.2136C81.7634 94.0861 82.0542 93.979 82.243 94.4994C82.3655 94.8311 82.294 95.0148 82.391 95.3311C82.5287 95.7802 82.6206 95.5097 82.743 95.969C82.0593 96.4231 82.5594 95.9843 81.7583 95.969C81.7583 95.4179 81.6001 95.1985 81.1664 95.0811C80.9469 95.5455 81.1919 95.9945 80.9725 96.4588C80.8143 96.418 80.6969 96.3619 80.5847 96.1578C80.2989 95.6271 80.7377 95.3567 79.8907 94.7852C79.8703 95.6424 79.1661 95.5097 79.0794 95.2495C79.0182 95.0607 79.0998 95.1628 79.1151 95.0352L79.0539 94.7495C78.4518 93.4636 79.5335 93.4534 78.5538 92.9738L78.0844 92.5604C77.8854 92.142 77.9058 92.3053 77.7272 92.0349C77.916 91.7543 77.9926 91.6165 78.2375 91.3614C78.61 90.9685 78.411 91.1062 78.9059 91.147V90.9531C78.2834 90.9021 78.6916 90.7082 78.2273 90.8715C77.7782 91.0297 78.013 91.0654 77.5282 90.9531C77.2935 90.3868 77.7119 90.1674 76.8394 90.1674C77.0129 90.647 76.8547 90.1418 77.0078 90.4021C77.1149 90.5858 77.0384 90.3511 77.1047 90.5909C77.2017 90.9532 77.0639 90.7899 77.1149 91.1062C77.2527 91.9328 77.518 91.2185 77.0384 91.9328C77.4925 92.1523 77.6099 92.0196 77.6303 92.7237C77.3496 92.7952 77.4823 92.7033 77.3343 92.9176C77.018 92.7543 77.0027 92.6982 76.7424 92.5247C76.7424 91.9532 76.7067 92.0859 76.9414 91.7389C76.6557 91.6726 76.2883 91.5553 76.0536 91.443C76.0536 91.0246 75.9924 90.9225 76.5026 90.5143C76.62 90.4276 76.6353 90.4174 76.7424 90.3613C75.9924 89.2387 77.4415 89.7693 76.4822 88.657C76.2679 88.4019 76.3189 88.3815 75.9566 88.2947C75.5586 87.7028 75.6046 88.4427 75.0535 87.8253C74.7575 87.4936 74.4922 87.3099 74.482 86.8201C75.0586 86.8099 74.8596 86.667 75.3647 86.6262V87.0191C76.1914 86.9476 75.9056 86.4272 76.1148 86.0955C76.4975 85.4832 76.7424 86.4884 76.7424 84.8556H77.1353C77.1353 84.2943 77.0384 84.1769 77.0384 83.5799C77.5027 83.5901 77.6252 83.7279 78.013 83.5749C78.3446 83.4473 78.5947 83.2126 78.8498 82.9268C78.9723 82.7891 79.0998 82.5492 79.2019 82.3961C79.6917 82.3961 79.8856 82.6564 80.2581 82.5135C80.2683 82.5084 80.2989 82.4931 80.3091 82.488C80.3193 82.4829 80.3448 82.4676 80.355 82.4625C80.3601 82.4574 80.3857 82.437 80.3908 82.4319C80.401 82.4217 80.4214 82.4013 80.4265 82.3961L80.8704 82.0033C80.7888 81.6359 80.85 81.0848 80.753 80.748C80.5694 80.0745 80.5796 80.2072 80.0387 79.8908C79.656 79.6612 79.758 79.8551 79.6611 79.4724C79.5641 79.1152 79.7682 79.0183 79.6713 78.6917L79.4978 77.7783C79.7887 77.5793 79.8907 77.4926 80.3806 77.4824C80.4775 77.0742 80.5847 77.1099 80.4724 76.7986L80.0897 76.2986C79.6968 75.9822 79.6356 75.7067 79.2019 75.4159C79.2019 74.7627 79.2682 74.3749 79.7887 74.2372C79.7785 73.6249 79.5795 73.7728 79.2988 73.3493C79.4315 73.1605 79.6254 73.0278 79.6866 72.9309C79.6866 72.9309 80.0081 73.0534 79.7121 72.7625C79.508 72.5584 79.2376 73.2371 78.809 73.3493C78.4722 73.1044 78.7477 73.1503 78.4518 73.0176C78.1099 72.8697 78.2987 73.0432 78.0538 72.9717C77.7782 72.8952 77.8701 72.6911 77.3343 72.5635V71.1909C76.6965 71.1909 76.7424 71.293 76.4363 70.9052C76.2169 70.6296 76.2169 70.3439 76.0944 70.0684C75.9975 69.8592 76.0485 69.9918 75.9719 69.8949L75.824 69.7469C75.5433 69.451 75.2066 69.155 75.1708 68.7315C74.7065 68.9509 74.4412 68.8182 74.0891 68.6345C74.0432 68.7009 73.9972 68.7825 73.9462 68.8795C73.7727 69.206 73.6401 69.3081 73.3135 69.4305C72.5583 69.6959 73.0227 70.4409 70.9255 69.9255L70.3285 69.6347C70.201 69.5581 70.2826 69.6244 70.1448 69.5275C69.956 69.3999 69.7366 69.1754 69.507 68.9866C68.7365 68.3386 69.3998 68.3794 68.2875 67.8437C68.2824 67.859 68.2824 67.8896 68.2824 67.8947C68.1905 68.308 67.5017 68.6396 67.1088 68.7315C67.1394 69.1193 67.2057 69.1907 67.2057 69.7163C67.0425 69.7928 66.9251 69.7928 66.7975 69.8949C66.5628 70.0837 66.7108 69.9714 66.6598 70.1347L66.5424 70.5174C66.425 70.7521 66.5373 70.7623 66.2516 70.8235L65.5984 70.7674C65.5831 70.7674 65.3994 70.7929 65.3382 70.7929C65.2106 70.5327 65.2464 70.6909 65.2413 70.3031H65.0423C64.9861 70.5327 64.9504 70.5939 64.9453 70.895C64.7871 70.8899 63.1441 70.6348 63.0778 70.599C63.1594 69.8541 63.4758 70.6807 63.2717 69.8132C62.8073 70.1245 62.593 70.0327 62.0675 70.1806C61.4705 70.349 61.6235 70.5684 60.9143 70.4C60.8684 70.9256 60.7204 70.6143 60.9143 71.0787C60.9959 71.2675 61.5113 71.7318 61.3225 72.0737C61.2 72.288 61.0674 72.3084 60.8122 72.3696C60.8122 72.8901 60.8275 73.6453 61.1796 73.9718L62.1185 74.9974C62.2461 75.1403 62.4808 75.4107 62.593 75.5077L62.8277 75.6659C63.1135 75.8241 62.9655 75.5689 63.1747 75.9057C63.3176 76.1302 63.2462 76.3394 63.3992 76.666C63.537 76.9517 63.5982 76.9211 63.7309 77.2222C64.2156 78.3396 63.3584 78.3243 64.9657 79.8194C66.1291 80.896 66.2209 80.6256 67.7976 80.6256C67.8997 80.845 67.966 81.0134 67.9915 81.3144C67.8181 81.4981 67.6956 81.6308 67.4047 81.7073C67.5323 82.1972 68.5681 82.5747 69.0325 82.835C69.308 82.9881 69.1651 82.9217 69.507 83.0442C70.2877 83.3299 69.9815 83.6973 71.1449 84.1616L72.2011 85.172C72.9665 85.9169 72.2216 86.1363 72.2216 87.0191C71.2419 86.7895 71.2521 86.4578 71.0378 85.5444C70.4918 85.4169 70.4816 85.6363 70.0989 85.4118C69.8132 85.2434 69.7672 85.0597 69.3692 84.9525L68.8845 85.9424C68.7722 86.1874 68.5885 86.7793 68.5834 87.116C68.9865 87.213 68.9763 87.1824 69.2519 87.4324C69.8438 87.9681 70.0326 88.7386 69.8591 89.4785C69.2264 89.6265 69.0274 89.7796 68.6804 89.8714C68.9355 90.4021 68.7161 90.9327 68.3589 91.2185C67.5068 91.9073 68.0732 91.545 67.6956 92.3308H66.9098C66.7567 92.0349 66.6445 91.9992 66.6138 91.642C66.0883 91.9941 66.0424 92.4941 65.8332 93.1268C65.6546 93.6677 65.7005 93.4891 65.8638 93.9586C65.9811 94.3055 65.9811 94.4841 66.124 94.7852C65.3229 95.2087 65.9148 95.076 65.5321 95.8669C65.129 95.8363 64.6238 95.7189 64.3534 95.474C64.2207 95.3465 64.2412 95.3567 64.1187 95.2189C64.0115 95.0964 63.7309 94.7341 63.6697 94.6831C63.4962 94.5403 63.1849 94.4892 62.9757 94.3923C62.5624 94.2086 62.1797 93.8616 61.8123 93.5912C61.1541 93.1064 61.2408 92.9482 60.5214 93.1166L60.3581 92.8819C60.0571 92.5502 60.0264 92.4533 60.0264 91.9328C59.3529 91.9175 59.8274 91.79 59.2406 91.7389V91.443C59.4856 91.4481 59.5111 91.4991 59.5621 91.5093C59.5774 91.5093 59.608 91.5195 59.6182 91.5246C59.6335 91.5246 59.6591 91.5297 59.6693 91.5348C59.6795 91.5348 59.705 91.5348 59.7101 91.5348C59.8683 91.5399 60.5112 91.3614 60.6183 90.9531H61.0112C61.0316 91.2236 61.0214 91.1675 61.1082 91.3461C61.5368 91.1726 61.8634 90.4174 62.6849 91.642C63.0676 91.6063 62.991 91.5246 63.4247 91.5808C64.8841 91.7696 64.731 91.0603 65.5321 91.443C65.7974 91.2491 65.6495 91.2746 65.8383 91.1675C66.1699 90.9736 66.4965 91.0399 67.0067 91.0501V90.0653C67.2364 89.9122 67.3282 89.8051 67.6956 89.7745C67.6599 89.3509 67.5425 89.3152 67.5068 88.8815C67.4047 87.5957 67.1598 88.0141 66.9557 87.2691C66.869 86.9732 66.9404 86.6109 66.8179 86.417C66.573 86.0292 66.272 86.4935 65.828 86.0394C65.5372 85.7434 65.1749 85.6465 65.1698 85.177C65.1647 84.8199 65.2617 84.9219 65.0423 84.4627C64.6545 84.4933 64.583 84.5596 64.0575 84.5596C64.1238 83.7943 64.4044 83.8555 63.5676 83.8708L63.0778 82.6921C62.4297 82.8452 62.6543 82.7125 62.1644 82.636C61.5674 82.539 61.9807 82.8707 61.5062 82.3043C61.1388 81.8655 61.098 82.1818 60.8173 81.8094C60.6234 81.5542 60.6949 81.4675 60.3989 81.146C59.8223 80.5184 60.3122 80.7684 59.409 79.8704C58.8477 79.3193 59.256 78.8601 58.1589 78.8601C58.1742 78.2529 58.3273 78.3447 57.9344 77.9059C57.664 77.5946 57.6691 77.2936 57.2762 77.1864C57.2506 77.4875 57.1792 77.661 57.0772 77.8753C56.6741 77.7783 56.4904 77.8549 56.2914 77.5793C56.4597 76.9466 56.5516 77.5385 56.9547 77.1609C57.1588 76.9721 57.0976 76.5486 57.021 76.2629C56.919 75.8904 56.822 75.8292 56.7863 75.4108C56.6996 74.2116 56.4955 74.3902 55.7505 73.6963C55.7046 73.6555 55.6025 73.5636 55.5974 73.5534L55.4903 73.4667C53.7299 72.0941 54.0717 73.0381 53.0155 73.9106C52.7298 74.1402 51.6174 74.3596 51.4745 74.3902C50.9031 74.4974 51.4643 74.5841 50.8061 74.6964C50.4336 74.7576 50.9694 74.5484 50.4285 74.7678C49.6274 75.0995 50.5102 75.6046 49.2141 75.9057C48.7651 75.5842 49.2447 75.7118 48.709 75.671C48.3773 75.6455 48.265 75.5485 48.015 75.3342L47.9028 75.2475C47.8364 75.1964 47.7854 75.1913 47.6629 75.0995C47.3721 74.8903 47.5864 75.0485 47.4588 74.9107C46.9945 74.3902 46.5557 74.5994 46.0199 74.2831C45.7597 74.13 45.974 74.2372 45.7954 74.1096C45.724 74.0637 45.6219 74.0075 45.5505 73.9667C45.2749 73.8136 45.3055 73.7932 45.081 73.6453L44.0911 74.13C43.5196 74.4209 43.1829 74.2423 43.1727 75.2628C43.1625 76.018 43.1625 76.1404 43.5094 76.7935C43.2747 76.9517 43.4074 76.9109 43.1165 76.9874V77.7783C42.5451 78.0794 42.9073 77.9875 42.54 78.2886C42.3818 78.4213 42.3716 78.3906 42.2389 78.4213C41.994 78.4723 42.3001 78.3651 41.9328 78.4672C41.198 78.6764 40.6724 79.2479 40.6571 79.253C39.9121 79.253 39.6264 79.2734 38.9937 79.3652C37.6364 79.5693 38.6467 79.5438 37.9068 79.7428C38.1262 80.697 37.5395 80.4623 36.9782 80.9776C36.8353 81.1052 36.8098 81.1256 36.6669 81.2583C35.2943 82.5186 35.279 82.4829 35.2178 83.8198C35.1872 84.4219 35.6719 84.7433 35.9372 85.2485C35.7944 85.3454 35.7025 85.4271 35.5137 85.5138C34.5698 85.9526 35.2229 85.4118 34.2432 86.2078C33.6717 86.6721 33.9064 86.616 33.8044 86.8762C33.7023 87.116 33.6411 87.0497 33.5186 87.2538C33.2278 87.7385 33.7329 87.81 33.2023 88.0192C32.5849 88.2539 32.493 87.7794 31.7072 88.0957C30.6408 88.5294 31.1204 88.7897 30.4163 89.3663C29.8754 89.8153 29.8907 89.5551 29.5131 89.305C28.8804 88.8764 29.2376 89.5244 28.6355 89.3152C28.1916 89.1622 28.5691 89.0448 27.7374 88.9274C26.4159 88.7335 27.0639 88.5294 25.4311 88.2896C25.2474 88.259 25.1147 88.3508 24.8902 88.4529C24.1656 88.7846 23.3543 88.0957 23.3543 89.2795H22.2726C22.2267 88.7437 21.6858 88.5192 21.4205 88.06C21.2878 87.8304 21.2061 87.6416 21.2521 87.3609C21.3541 86.7435 21.0888 87.0905 21.0888 86.7231C21.1908 86.3557 21.3745 86.4119 21.15 85.9884C20.9204 85.5546 20.502 85.1209 20.0734 84.8862C19.4509 84.5494 18.8641 85.1158 18.4202 84.7842C18.1854 84.6107 18.114 84.4321 17.8487 84.2637C17.3996 83.9831 16.8179 84.1719 16.374 83.8708C16.4404 83.6106 16.7312 83.2789 16.9098 83.034C17.3384 82.4421 17.2721 81.5951 17.6293 80.9981C18.0017 80.3806 17.8027 80.7072 17.7466 80.0388C16.4506 80.3398 17.7772 79.3244 16.7669 79.054C16.7822 78.2172 17.4558 78.0079 17.4558 77.0895C18.1548 77.0895 18.2518 76.8088 18.5375 76.4006C19.0478 75.671 18.8488 75.6506 19.5172 74.727C20.4255 73.482 20.0734 72.9717 20.3795 71.4563C20.4918 70.8797 20.4357 70.5429 20.7265 70.1296C21.2062 69.451 20.7571 69.6397 20.7163 68.9203C20.6959 68.609 20.7877 68.5427 20.7571 68.2672C20.7061 67.7875 20.849 68.3182 20.502 67.8437C20.5173 67.7722 20.5836 67.4967 20.5989 67.4508C20.7316 67.1293 20.5173 67.4099 20.803 67.1599C21.0684 66.9201 21.7623 66.8793 22.0124 66.9354C22.0787 66.9507 22.6145 67.1344 22.6655 67.1548C22.7063 66.6752 22.7114 66.7517 23.0839 66.5935C23.6146 66.369 23.8289 66.2721 24.4208 66.6752C24.8749 66.9864 24.5994 66.7874 24.8086 67.1752C25.0841 67.6804 24.8545 67.313 25.4413 67.5273C26.0689 67.762 26.7424 68.2161 27.4823 68.0426C27.7221 68.4049 27.9977 68.4866 28.3701 68.7264C28.6967 68.9458 28.9365 69.1652 29.2937 69.3795C29.7938 69.6908 29.8193 69.6857 30.3755 69.6704L30.9061 69.7316C31.2021 69.8132 31.1102 69.8132 31.5133 69.8132C31.6664 70.4562 31.8042 70.3388 32.493 70.4051C33.0492 70.4613 33.1104 70.7623 33.4676 71.0072C33.8605 71.2726 34.1718 71.2828 34.5851 71.1195C34.9627 70.9715 34.7432 71.2062 35.0035 70.747L35.6821 69.0632C35.7536 68.7978 35.7484 68.6294 35.825 68.4202C35.9781 68.0273 35.9934 68.257 36.1056 67.91L36.3965 66.6292C36.621 65.8128 36.4577 66.17 36.922 65.6802C36.8404 65.4557 36.2281 64.1698 36.8251 64.0116C36.5802 63.6442 36.5393 63.8841 36.5291 63.3228C36.7639 63.236 36.6567 63.384 36.723 63.1238C36.3506 63.0268 36.1873 62.9146 36.075 62.4962C35.8862 61.8277 36.1362 62.1288 35.7178 61.5777C35.4729 61.2511 35.4831 61.1185 35.4729 60.6541C35.4525 60.0367 35.3607 60.1031 35.6413 59.6847C35.029 59.8275 35.0902 59.552 35.0545 59.9806C33.9983 59.9806 34.3657 59.8173 34.3657 58.8989C33.7074 58.8274 34.3044 58.9754 34.0034 58.4753C33.7023 57.9804 33.6462 58.5213 33.5799 57.9141C32.5696 57.9141 32.6971 58.3784 32.7941 57.2252C32.4675 57.0568 32.4063 57.1334 32.2991 56.7354C32.6869 56.7252 32.5287 56.7609 32.7941 56.6384C32.6002 56.3476 32.4573 56.2915 32.0746 55.6842C31.9062 55.4138 31.9981 55.6996 31.9062 55.3577C32.2532 55.1893 32.3246 55.1842 32.5134 55.5363L32.5951 55.7506C32.692 55.3934 32.9931 55.2709 33.3707 55.276C34.2993 55.2965 33.5186 55.3883 34.3657 55.1638V55.4546H34.8555V55.0617C35.4474 54.9036 34.881 54.9189 35.33 54.7505C35.8199 54.5668 35.4168 54.878 35.4015 54.9189C35.3556 55.0311 34.9269 55.1383 35.6209 55.1587C36.0036 55.1689 35.8301 55.0975 36.2332 55.0617C36.3301 55.5108 36.274 55.2097 36.2383 55.4597C36.2332 55.475 36.2281 55.5006 36.223 55.5159C36.223 55.5312 36.2179 55.5618 36.2128 55.5771C36.2128 55.5924 36.2077 55.623 36.2026 55.6383C36.0495 56.6946 36.1107 56.0669 36.9067 56.3578C37.5701 56.5976 37.6619 56.2966 37.7078 56.8323H38.0038C38.0038 56.0159 38.0803 56.3323 38.2079 55.7506C38.3508 55.0668 37.6058 53.2605 38.3661 53.5004C38.6926 53.6075 38.5651 53.531 38.5957 53.883C38.9325 53.8014 39.407 53.5667 39.356 54.1382L39.259 54.5311C39.2182 54.8474 39.3458 54.6229 39.1825 54.9648C39.6723 55.0056 39.8815 55.1842 40.2387 55.3883L40.6928 55.6179C40.9684 55.6842 41.0245 55.6077 41.249 55.5567C41.249 54.6995 41.2694 54.7301 41.9685 54.5056C43.336 54.0667 42.7798 54.48 43.3717 54.3372C44.1218 54.1586 44.132 52.3625 44.3922 51.8165C45.4892 51.8165 45.6933 51.8573 46.474 51.541C46.8057 51.4032 46.9996 51.3471 47.3415 51.2195C47.8364 51.0409 47.6782 51.1175 47.6374 50.6378C48.0558 50.6276 48.5202 50.2041 48.7345 49.8673C49.2855 49.005 48.9386 49.5612 49.4948 48.954C50.3724 48.01 49.806 46.3721 51.5001 46.0404C52.0307 45.9384 52.3318 46.1016 52.4287 46.1169C52.7553 46.1629 52.7757 45.8414 53.041 46.0914C53.1788 46.2241 53.138 46.1578 52.8522 46.4129C53.4237 46.4129 53.5666 46.3262 53.8319 46.6068C53.9544 46.1527 53.9901 46.5201 54.0309 46.02C53.4696 46.0659 53.9034 46.168 53.3421 46.2139C53.3829 45.6883 53.2655 46.02 53.6738 45.7955C53.684 45.7904 53.7044 45.7751 53.7197 45.7649C54.082 45.5659 54.0717 45.6832 54.6739 45.6475C55.0718 45.622 55.5158 45.6424 55.6586 45.7087C55.6791 45.7342 55.7199 45.77 55.7811 45.8261C56.1281 46.1374 55.6025 45.6475 56.1944 45.9179C55.9138 46.3006 56.0362 45.923 55.8985 46.3108C56.1332 46.469 56.0005 46.4333 56.2914 46.5098C56.5465 45.9792 56.2812 45.724 57.0772 45.724C57.067 45.2648 57.1435 45.3516 56.7812 45.4281V45.1322C57.1027 45.0148 56.8526 45.2597 57.0772 44.8362C56.8067 44.8158 56.8629 44.826 56.6843 44.7393C56.9955 44.1525 56.6077 44.4127 56.9802 43.8565C56.6894 43.7136 56.5618 43.7749 56.4802 43.632ZM55.674 45.7189C55.6706 45.7155 55.6655 45.7121 55.6586 45.7087C55.5515 45.5914 55.9699 45.8924 55.674 45.7189ZM80.0183 90.7848C80.0183 90.7695 79.9979 90.7439 79.9877 90.7542L80.0183 90.7848ZM82.4777 89.902C82.4777 89.8867 82.4573 89.8612 82.4471 89.8714L82.4777 89.902ZM82.0542 89.4785C81.9623 89.4122 82.0542 89.4632 81.8705 89.3714C81.8348 89.3509 81.7174 89.3101 81.6613 89.2846C81.794 89.4326 81.3398 89.4632 82.0542 89.4785ZM77.2629 89.0295C77.6915 89.1519 77.2527 88.8713 77.1404 88.9887C76.9669 89.157 77.2476 89.0244 77.2629 89.0295ZM81.595 88.6264C81.595 88.6111 81.5746 88.5856 81.5644 88.5958C81.5541 88.606 81.5899 88.6213 81.595 88.6264ZM82.0848 88.4274C82.0848 88.4121 82.0644 88.3866 82.0542 88.3968L82.0848 88.4274ZM81.396 88.2335C81.6613 88.3304 81.6103 88.157 81.6613 88.0039C81.447 87.9018 81.6307 87.9784 81.3705 87.9069C81.2939 88.0243 81.1766 88.157 81.396 88.2335ZM75.6658 87.611V87.3201H75.3698C75.4515 87.6161 75.3698 87.5344 75.6658 87.611ZM82.1562 85.1566C82.2736 85.6567 82.3552 85.6363 82.743 85.8404C82.6053 85.2536 82.5849 85.3607 82.1562 85.1566ZM17.6854 79.2836L17.6548 79.253C17.6446 79.2632 17.6803 79.2836 17.6854 79.2836ZM49.4437 75.5485L49.4131 75.5179C49.4029 75.5281 49.4386 75.5485 49.4437 75.5485ZM39.7744 75.421H40.3663C40.2081 75.1862 40.2489 75.3189 40.1724 75.0281C39.7591 75.1352 39.9632 75.0689 39.7744 75.421ZM55.1433 68.3692L55.1178 68.3386C55.1076 68.3488 55.1433 68.3692 55.1433 68.3692ZM55.5005 67.3487C55.7148 66.9609 55.5413 66.8129 56.0975 66.767C56.3016 67.6447 56.3628 67.1395 56.9853 67.5528C56.8629 67.0477 56.8986 66.2465 57.5721 66.5731C57.6231 65.9914 57.7711 66.4506 57.7711 65.6853C57.4496 65.8996 57.5517 65.8485 57.3782 66.1802C57.0772 66.022 56.6026 65.7618 56.4393 65.4403C56.0873 64.7362 56.4291 64.379 56.4904 64.2106C55.8883 63.8892 56.0515 63.8024 55.7505 63.6749L54.8218 63.4248C54.7504 63.6851 54.6585 63.7004 54.5259 63.8177C54.1483 63.731 54.2554 63.6391 53.8574 63.6544C53.1176 63.68 52.245 63.8994 51.8725 63.7208C51.8215 64.3076 51.4899 64.3535 51.2449 64.5678L50.4949 65.3893C49.0355 66.5578 50.5051 66.0884 50.5969 66.0782C51.4439 66.0016 51.2806 66.4353 51.2551 67.1344C51.2347 67.7365 51.3317 67.2262 51.4796 67.8488C53.4033 67.8079 52.444 67.1497 53.3472 67.7518C53.6891 67.0323 53.2451 67.6191 53.837 66.9609C53.8472 66.9456 53.8676 66.9252 53.883 66.9099C53.8932 66.8946 53.9085 66.8691 53.9238 66.8538C53.934 66.8384 53.9493 66.8129 53.9646 66.7976C54.2299 66.4813 54.1789 66.6394 54.5259 66.4711C54.8831 67.1497 54.6739 66.7976 54.5259 67.3589C54.6636 67.563 54.6892 67.5477 54.8422 67.7263L55.1178 68.1447C55.1637 67.5885 55.3066 67.7059 55.5005 67.3487ZM49.9642 66.5731C50.0611 66.5578 49.903 66.318 49.903 66.5731C49.903 66.8435 49.9591 66.5731 49.9642 66.5731ZM36.9884 64.2463C37.1619 64.476 36.9986 64.2668 37.121 64.4096C37.1108 63.8637 37.2435 64.0627 36.8251 64.0167C36.8914 64.1086 36.9016 64.1341 36.9884 64.2463ZM54.7504 63.2564L54.7198 63.2258C54.7147 63.236 54.7504 63.2564 54.7504 63.2564ZM35.9985 61.0674C36.0954 61.047 35.9424 60.8123 35.9424 61.0674C35.9424 61.3379 35.9985 61.0674 35.9985 61.0674ZM34.8657 59.4346C34.9524 59.654 34.8606 59.5775 34.9525 59.4857C35.1004 59.3428 35.0392 59.1795 34.8606 59.3938C34.8657 59.404 34.8606 59.4295 34.8657 59.4346ZM32.9727 56.6997C33.2074 56.6537 33.0033 56.7609 33.09 56.5415C32.9471 56.6231 32.988 56.5874 32.7941 56.6384C32.9573 56.7405 32.6002 56.7762 32.9727 56.6997ZM51.3776 48.4794H51.5766C51.5256 48.2651 51.546 48.2243 51.5307 48.1171C51.5256 48.1018 51.5256 48.0712 51.5205 48.0559C51.5205 48.0406 51.5154 48.0151 51.5103 47.9998L51.1837 47.3977C51.0204 48.0304 51.2602 48.0253 51.3776 48.4794ZM65.5219 47.0099C65.6954 47.1783 65.5729 47.1119 65.7362 46.8058C65.5168 46.867 65.3535 46.8364 65.5219 47.0099ZM56.0311 46.7395L56.0005 46.7088C55.9903 46.7191 56.026 46.7395 56.0311 46.7395ZM52.689 46.4435L52.6583 46.4129C52.6481 46.4231 52.6838 46.4435 52.689 46.4435ZM51.3062 46.9334C51.597 46.6374 51.546 46.5252 52.0664 46.5149V46.3159C51.3368 46.3772 50.8112 46.5762 50.5918 47.3977C50.898 47.3161 51.097 47.1426 51.3062 46.9334ZM54.6228 45.8261C54.6126 45.8363 54.6483 45.8516 54.6534 45.8516L54.6228 45.8261ZM71.8593 44.479L71.8287 44.4535C71.8185 44.4637 71.8542 44.479 71.8593 44.479ZM57.2915 43.9586L57.1792 43.5657H56.9802V43.8616C57.1945 43.9688 57.0159 43.8922 57.2915 43.9586ZM56.9037 43.183C56.9088 43.183 56.919 43.183 56.919 43.183C57.2302 42.9993 56.7914 43.1319 56.7863 43.1728C56.7608 43.3871 56.8169 43.183 56.9037 43.183ZM59.557 43.0962C60.0571 43.0503 59.6744 43.0809 59.8325 42.9789C59.7407 42.9738 59.557 42.9534 59.4958 42.9534C59.3223 42.9534 59.4754 42.9125 59.3427 42.9789C59.3529 43.3616 59.3274 43.1217 59.557 43.0962ZM58.8222 42.4431L58.7151 42.5401C58.7049 42.5247 58.6743 42.5656 58.6539 42.586C58.9192 42.6064 58.9192 42.6319 59.1437 42.6829C59.0723 42.3768 58.9549 41.8512 58.9498 41.5042C58.5671 42.0808 59.159 41.9839 58.8222 42.4431ZM59.3427 41.1113L59.3376 41.0858V41.0756C59.2049 40.9174 59.1743 41.2287 59.3427 41.2083C59.4243 41.1981 59.3427 41.1215 59.3427 41.1113ZM63.2768 40.6164C63.2053 40.7286 63.2104 40.6062 63.1951 40.8154C63.1645 41.2287 63.1594 40.8256 63.2768 41.0093V40.6164ZM62.0675 40.8817C62.1134 40.7491 62.093 40.6623 62.093 40.5194C61.8123 40.7286 61.8991 40.6011 61.8991 41.1113L62.0675 40.8817ZM59.7968 40.2949C59.7305 40.6215 59.7764 40.2796 59.7407 40.4888C59.6284 41.2389 60.1234 41.1062 60.1285 41.1062C59.955 40.3459 60.1489 40.1776 59.8325 39.7285C59.8325 39.9735 59.8427 40.0551 59.7968 40.2949ZM56.9445 39.9275C57.0414 39.9122 56.8833 39.6724 56.8833 39.9275C56.8833 40.198 56.9445 39.9275 56.9445 39.9275ZM68.6855 38.4529C69.0376 38.2182 68.9814 38.2998 68.9814 37.7641C68.6038 38.0141 68.7671 38.0549 68.6855 38.4529ZM58.4855 37.9886L58.4599 37.958C58.4497 37.9682 58.4855 37.9886 58.4855 37.9886ZM57.8017 37.8916L57.7711 37.861C57.7609 37.8712 57.7966 37.8865 57.8017 37.8916ZM58.5569 37.0752C58.1997 37.1722 58.1487 37.2895 58.261 37.5651C58.5467 37.5344 58.5314 37.3558 58.5569 37.0752ZM76.6761 34.4474L76.6506 34.4219C76.6404 34.427 76.6761 34.4474 76.6761 34.4474ZM79.4315 33.8606L79.4009 33.83C79.3907 33.8402 79.4264 33.8555 79.4315 33.8606ZM68.2212 33.2687L68.1905 33.2381C68.1803 33.2483 68.2212 33.2687 68.2212 33.2687ZM70.4816 32.9727L70.4561 32.9472C70.4459 32.9523 70.4816 32.9727 70.4816 32.9727ZM70.2673 32.7993C70.5326 32.9064 70.2622 32.6411 70.1601 32.7482C69.9917 32.9115 70.2673 32.7993 70.2673 32.7993ZM77.6303 32.5492C77.3751 32.687 76.6098 33.2891 77.1761 33.136C77.1898 33.1326 77.2051 33.1292 77.2221 33.1258C77.2391 33.1156 77.2595 33.1054 77.2833 33.0952C77.3649 33.0595 77.5282 32.9625 77.5435 32.9523C77.9466 32.7788 77.6813 32.8401 78.1252 32.9472C78.0385 32.5798 77.9364 32.5033 77.9262 32.0594C77.7017 32.0084 77.7017 31.9829 77.4364 31.9624C77.5078 32.2686 77.5588 32.2482 77.6303 32.5492ZM70.0887 31.3042C70.0887 31.2889 70.0683 31.2634 70.0581 31.2736C70.053 31.2838 70.0887 31.2991 70.0887 31.3042ZM70.9765 31.2022C70.9765 31.192 70.9561 31.1664 70.9459 31.1766C70.9357 31.1869 70.9714 31.2022 70.9765 31.2022ZM71.2674 31.1052C71.2674 31.0899 71.2521 31.0644 71.2419 31.0746C71.2317 31.0848 71.2674 31.1052 71.2674 31.1052ZM69.109 30.9113L69.0784 30.8807C69.0682 30.8909 69.1039 30.9062 69.109 30.9113ZM76.6761 29.5336L76.6506 29.503C76.6404 29.5132 76.6761 29.5285 76.6761 29.5336ZM77.0996 28.9111C77.1966 28.8958 77.0435 28.6611 77.0435 28.9111C77.0435 29.1866 77.0996 28.9162 77.0996 28.9111ZM75.8903 28.4519L75.8597 28.4213C75.8495 28.4315 75.8903 28.4468 75.8903 28.4519ZM75.1759 27.9314C75.2525 28.2274 75.1708 28.1457 75.4668 28.2274L75.1759 27.9314ZM78.1558 14.8791C78.1558 14.8689 78.1354 14.8434 78.1252 14.8536C78.115 14.8638 78.1558 14.8791 78.1558 14.8791ZM75.4821 13.4299C75.7474 13.532 75.477 13.2718 75.3749 13.3789C75.2117 13.5422 75.4821 13.4248 75.4821 13.4299ZM75.477 12.986C75.4821 12.9962 75.4872 13.0166 75.5025 13.0575C75.5076 13.0728 75.5178 13.1085 75.528 13.1187C75.6658 13.3942 75.5841 13.2207 75.6709 13.1799C75.7321 13.0064 75.7729 13.2003 75.4719 12.884C75.4821 12.9758 75.4821 12.9911 75.477 12.986ZM80.8347 91.1981C81.1817 91.3001 81.2429 91.3461 81.6664 91.3461C81.2429 90.9787 80.7224 90.9021 80.1918 90.8562C80.4061 91.147 80.4163 91.0807 80.8347 91.1981ZM75.3749 87.315L75.2627 87.1262L75.3749 87.315ZM55.1178 68.1447V68.3386V68.1447ZM51.8725 63.7208L36.8302 64.0167L51.8725 63.7208ZM63.2819 41.0042L58.9549 41.4991L63.2819 41.0042ZM79.7989 30.0898L69.0835 30.8807L79.7989 30.0898ZM75.4719 28.2223L75.8648 28.4213L75.4719 28.2223ZM75.4719 19.6704V28.2223V19.6704Z" fill="#4C4C4C"/>
<path fill-rule="evenodd" clip-rule="evenodd" d="M37.1142 32.1495C37.2162 30.9249 36.9815 31.7209 36.9203 30.9708C37.5377 31.0218 37.1499 31.2157 37.7061 31.3637C37.6244 31.2463 37.5479 31.1749 37.502 31.0831C37.4918 31.0575 37.4816 31.032 37.4714 31.0116L37.4254 30.8585C37.3234 30.5218 37.4969 31.0167 37.3897 30.7004L37.2571 30.4401C37.1499 30.236 37.1499 30.4707 37.1142 30.0881C37.4918 29.986 37.4203 29.9044 37.701 29.6901L38.099 29.4962C38.2316 30.0574 38.0786 29.9656 38.4919 30.185C38.5378 29.6237 38.7113 29.3482 39.2777 29.3023C39.3134 29.69 39.2164 29.6288 39.3899 29.4911C39.5634 29.3533 39.4358 29.3023 39.4512 29.2104L39.594 28.7359C39.7675 28.4246 39.7318 28.6134 39.9308 28.3787C40.1655 28.0929 40.1094 27.7511 40.5584 27.6286C40.6503 27.9807 40.9156 28.1695 41.2881 28.2766L41.8494 28.4042C42.1198 28.4909 41.9361 28.5165 42.4259 28.5165V28.3175C42.7168 28.2001 42.5382 28.3124 42.6607 27.6694C42.7933 26.9908 43.028 27.3684 43.4209 26.853C43.6046 26.6081 43.4363 26.5877 43.9006 26.5469V26.9398C45.0283 26.1846 44.1455 27.4296 44.0282 27.5674C43.773 27.8786 43.9465 27.3582 43.7526 27.8021C43.7067 27.9195 43.7526 27.9195 43.6455 28.0572C43.4975 28.246 43.4107 28.195 43.2117 28.6134C42.9158 29.2512 42.9719 29.44 42.3494 29.7156C42.2116 29.7768 42.1504 29.8023 42.0177 29.8737C41.7422 30.0115 41.6555 30.1136 41.3442 30.185C41.4514 30.6544 41.4565 30.5728 41.2473 30.9708C41.8596 30.9708 41.8136 30.9249 42.2882 31.1086C43.0842 31.4147 44.4619 31.6341 43.7373 32.573L43.0791 33.4915C43.0638 33.5068 43.0485 33.5323 43.0383 33.5476C42.3392 34.5987 42.778 33.767 42.3137 34.3997C42.0433 34.7773 42.2627 34.5528 41.7371 34.9049C41.8443 35.3029 42.0841 35.2161 41.8187 35.4662C41.5636 35.7111 41.7932 35.5121 41.3748 35.6192L41.1503 35.6907H41.6402C41.7728 36.1856 42.5688 36.8796 42.6811 37.6909L42.6249 40.4105C42.727 40.436 43.1913 40.5993 43.2628 40.6555C43.4873 40.834 43.7067 41.8444 43.9975 42.2781C43.8853 42.6965 43.722 42.4822 43.824 43.0333C43.9006 43.4619 44.069 43.2322 43.9465 43.7935C43.87 44.1303 43.9312 44.1252 43.9822 44.4467C44.023 44.7171 43.9975 45.1406 43.9975 45.4263C43.5944 45.5182 43.2934 45.8141 43.6914 46.1101L43.8036 45.7223C44.2272 45.7223 44.5384 45.809 44.7578 45.8601C45.9773 46.1356 45.8957 47.248 45.4263 48.2328C44.9007 49.3451 45.3038 48.4675 44.819 48.9879L44.2374 49.4982C44.2169 49.5084 44.1914 49.5237 44.1761 49.5339L44.069 49.6258C43.8547 49.7941 43.9108 49.8401 43.5077 49.8503V50.2432C43.7679 50.3044 44.4976 50.4473 44.6864 50.5391C44.6047 50.8504 44.6711 50.6106 44.5741 50.8198C44.4262 51.1514 44.1914 51.3861 43.9006 51.5239C43.6302 51.6515 43.6965 51.7076 43.4107 51.9168C42.8393 51.7637 43.0842 51.7841 42.4821 51.8811C41.8698 51.978 41.9718 51.7739 41.6504 51.6056C40.987 51.2637 40.2012 51.7178 39.5736 51.7178C39.3593 51.3963 39.3185 51.58 39.2777 51.131C38.5327 51.1463 39.0787 51.3759 38.4357 51.2739C37.9969 51.2025 38.2367 51.182 37.9051 51.4219C37.5581 50.7687 37.6448 50.5391 36.6243 50.5391C36.5274 50.7177 36.4406 50.8912 36.3488 51.0494C36.3335 51.0647 36.3233 51.0902 36.308 51.1106C36.1294 51.4014 36.1345 51.2484 36.0324 51.5239C35.3028 51.5035 35.6038 51.3504 35.1497 51.0341C35.1242 51.0137 34.7568 50.7891 34.7211 50.7738C34.4762 50.6463 34.5833 50.6616 34.267 50.6361C34.1088 51.0239 34.3078 50.682 33.9761 50.8402C33.67 50.9932 33.6495 51.2178 33.1852 51.3249C32.8995 51.1157 32.9964 51.3402 32.9862 50.8351C32.5729 50.932 32.7209 50.9524 32.3994 50.733C32.828 50.0952 32.7311 50.3962 33.2158 50.2687C33.7465 50.1309 33.5169 49.9472 34.0016 49.6819C34.5221 49.391 34.4864 49.6053 34.7568 49.0645C35.017 48.5542 34.9966 48.4675 35.4456 48.7685C35.6344 48.0695 36.41 48.5032 36.8846 48.7073C37.1703 48.8298 37.0581 48.84 37.4101 48.8655V48.5746C37.1193 48.5032 37.0938 48.4981 36.8897 48.3093C36.6703 48.1052 36.6805 47.998 36.5529 47.8552C36.4049 47.6868 36.5325 47.799 36.3284 47.6919C35.9916 47.5184 35.8385 47.5388 35.8385 46.9979C35.3538 46.9979 35.114 47.0592 34.767 46.8908C34.7568 46.8857 34.4404 46.6561 34.4251 46.6408C34.3741 46.5693 34.3027 46.3856 34.267 46.3091C34.6752 45.5386 34.8946 45.9162 35.4814 45.6509C36.1804 45.3294 36.9203 45.6356 36.9203 43.9517H35.9355C35.9814 43.4313 36.1243 43.5027 36.4866 43.319L36.8233 43.0639C36.655 42.7526 36.5988 42.7322 36.4304 42.4771C36.6396 42.1607 36.5886 42.4056 36.6243 41.9821H37.2162C37.2979 42.2168 37.2877 42.1199 37.3132 42.1811C37.3234 42.1964 37.3387 42.227 37.3489 42.2475L37.5122 42.671C37.9459 42.6812 38.2061 42.773 38.7878 42.773C38.9868 42.472 39.2164 42.1607 39.2471 41.8086C39.3287 40.9106 39.6553 41.9872 39.6706 41.0994C39.3746 41.1708 39.4358 41.2167 39.1807 41.0994C39.1093 40.7932 38.9562 40.2217 38.9256 39.885C38.8797 39.4053 39.1042 39.1706 39.2777 38.8389C38.8337 38.8389 38.3541 38.9869 38.298 38.446L38.1959 38.8389C37.6448 38.8236 37.9765 38.8696 37.6755 38.6757C37.5275 38.5787 37.4867 38.5379 37.3132 38.446C37.3234 38.9104 37.4203 38.7726 37.3132 39.0328C36.8591 38.9104 36.8233 38.5124 36.8233 37.9511C37.3285 37.8184 36.9764 37.9001 37.1958 37.5378L38.1959 36.3795C38.3439 35.9203 37.9051 35.6243 37.8438 35.262C37.8387 35.2263 37.8183 35.2212 37.803 35.2008C37.7469 35.4611 37.803 35.4815 37.8438 35.6856C37.8643 35.7723 37.8949 36.0172 37.9051 36.2826C37.4867 36.3795 37.6346 36.3999 37.3132 36.1856C37.1448 36.5938 37.3846 36.1652 37.2162 36.5785C35.9049 36.5785 36.9203 36.1091 36.9203 35.1039L37.2162 34.8079C36.7519 35.0528 36.9815 35.0018 36.7264 35.2059C36.5631 35.3335 36.4049 35.3743 36.1345 35.3947C35.9814 35.0324 35.5783 34.415 36.5274 34.415C36.4304 34.2109 36.3845 34.0732 36.5682 33.8742C36.7927 33.6292 36.609 33.7262 37.0172 33.8231C36.9662 34.0119 37.0019 33.9762 36.9203 34.1191C37.2724 34.0374 37.2979 33.9303 37.5122 33.7262C37.0887 33.6241 37.1142 33.7466 36.7927 33.568C36.3845 33.3384 36.6243 33.272 36.1345 33.2312C36.2927 33.0118 36.2365 33.0935 36.507 33.0833C36.7009 33.0731 36.7162 33.0424 36.9203 33.1343C36.9203 32.4658 37.1754 32.2056 37.803 32.1495C37.6857 31.8893 37.7571 31.8842 37.9051 31.6596H37.6091C37.5122 32.0678 37.5479 32.1138 37.1142 32.1495ZM40.6554 35.6907C40.885 36.0019 40.9207 36.0019 41.1503 35.6907H40.6554ZM36.6192 34.415C36.8642 34.3487 36.757 34.4558 36.8182 34.216L36.6192 34.415ZM37.5326 34.0527L37.502 34.0221C37.4969 34.0323 37.5326 34.0476 37.5326 34.0527ZM41.0738 31.0014L41.0432 30.9759C41.0329 30.9861 41.0738 31.0014 41.0738 31.0014ZM38.0939 30.8738C38.4357 30.8483 38.3541 30.8943 38.3286 30.6595C38.2929 30.2871 38.2878 30.4299 38.0939 30.2871V30.8738ZM42.9413 28.3481L42.9107 28.3175C42.9005 28.3277 42.9413 28.343 42.9413 28.3481ZM43.4312 27.4602L43.4056 27.4296C43.3954 27.4398 43.4312 27.4602 43.4312 27.4602ZM43.5332 27.0673L43.5026 27.0367C43.4924 27.0469 43.5281 27.0673 43.5332 27.0673ZM40.3033 51.3045C40.3135 51.1667 40.1604 50.9269 40.1604 51.228C40.1604 51.2688 40.2829 51.6413 40.3033 51.3045ZM37.7979 48.3756L37.6091 48.4879L37.7979 48.3756ZM37.604 31.6596L37.502 34.017L37.604 31.6596Z" fill="#4C4C4C"/>
<path fill-rule="evenodd" clip-rule="evenodd" d="M34.7679 40.6111C34.7475 41.101 34.8904 40.7234 34.7577 41.1979C34.6352 41.6316 34.6403 41.2847 34.5638 41.7949C34.4515 42.5909 34.3444 43.0297 33.875 43.6574C33.5229 44.1268 33.477 43.8002 33.477 44.6422C33.0024 44.6422 33.1402 44.6422 32.7575 44.4891C32.7167 44.4687 32.6827 44.4534 32.6554 44.4432C32.652 44.4432 32.6503 44.4432 32.6503 44.4432C32.635 44.4381 32.6095 44.4329 32.5942 44.4278L31.7982 44.285C31.5686 44.2799 31.4155 44.4687 31.0073 44.5299C29.4408 44.7799 29.7011 44.9942 28.9306 44.8258L28.1295 44.683C27.2671 44.4329 27.2416 44.4534 27.4814 43.9533C26.7977 43.938 27.262 43.9941 27.1396 43.8308C27.1124 43.7934 27.0903 43.7645 27.0732 43.7441C27.1039 43.7696 27.1294 43.7849 27.109 43.7186L26.8691 42.9481L27.2824 42.5756C27.1498 42.2082 27.0886 42.4072 26.9916 41.9837L27.3335 41.8255C27.9509 41.5347 27.8999 41.7133 27.9713 41.9837C28.4356 41.6469 27.8846 41.7541 28.4662 41.6929C28.2519 41.3765 28.303 41.6214 28.2672 41.1979C28.7418 41.1979 28.5479 41.2132 28.8438 41.0908C29.0479 41.004 29.099 40.9632 29.349 40.902C29.349 40.1774 29.4408 40.4734 29.7419 40.0192C29.4204 39.5396 29.0377 39.5855 28.8949 38.8405C28.752 38.1007 29.298 38.5191 29.7419 37.8558C29.4357 37.7741 29.2929 37.718 29.3949 37.3251C29.3949 37.32 29.4766 37.1261 29.4817 37.1159L29.5429 36.9679C29.599 36.825 29.5633 36.8454 29.6449 36.6771C30.645 36.4423 30.1399 36.774 31.1196 36.774C31.1298 37.1618 31.0941 37.0036 31.2165 37.269C32.2932 37.2894 31.441 37.1873 32.2013 37.1669C32.0891 36.922 32.1605 36.9526 32.1503 36.9118C32.0227 36.4219 31.9411 36.7791 31.8084 36.2842C32.1452 36.1209 32.2166 36.1923 32.5228 35.9168C33.2218 35.2892 32.6657 35.4116 33.7474 35.3096C34.3597 35.2483 33.9209 35.2943 34.3648 35.3963V35.1055C34.921 35.1157 34.6812 35.0391 34.921 35.432C35.0792 35.6872 35.1404 35.6974 35.1506 36.0852C35.6864 35.9627 36.0844 35.8913 36.2017 36.2229C36.2068 36.2382 36.2119 36.2689 36.217 36.2842C36.4109 36.9475 36.2579 36.7434 36.2528 37.0802C36.2425 37.5445 36.462 37.422 36.4518 37.82C36.4364 38.4732 36.4875 37.9068 36.6048 38.3609C36.6457 38.5191 36.6252 38.8559 36.6252 39.0344C35.865 39.5447 36.2987 39.2436 35.7119 39.5039L35.2016 39.7845C35.1863 39.7947 35.1608 39.8151 35.1455 39.8202C35.069 39.8662 35.1251 39.8764 34.9567 39.9223C34.87 40.2948 34.7832 40.1927 34.7679 40.6111ZM32.4258 36.9985L32.4003 36.973C32.3901 36.9832 32.4258 36.9985 32.4258 36.9985ZM34.5587 36.1872C34.5536 36.1923 34.5893 36.2127 34.5893 36.2127L34.5587 36.1872ZM29.9001 37.9578C29.997 37.9425 29.8388 37.7078 29.8388 37.9578C29.8388 38.2333 29.895 37.9578 29.9001 37.9578Z" fill="#4C4C4C"/>
<path d="M53.6575 82.0323C54.4076 81.3077 54.3718 81.6547 55.0148 81.7057C55.0148 82.6497 55.2087 81.6802 55.2087 82.6905L55.5046 84.1652C54.7086 84.3795 55.2087 84.9663 55.2087 85.4459C55.2087 85.5071 54.9892 85.6959 54.9331 85.9562C54.8821 86.2062 54.9382 86.4715 54.9127 86.7216L54.5198 87.9003C53.8106 87.737 54.2851 87.5073 53.4381 87.5073C53.5146 87.8237 53.6116 87.7982 53.4279 88.0788C53.3462 88.1962 53.1268 88.3952 52.9482 88.3952C52.2645 88.3952 52.4839 88.1503 52.29 87.9564C52.2798 87.9462 52.2543 87.9309 52.2441 87.9207C52.2288 87.9105 52.2033 87.8951 52.1879 87.8798C52.1726 87.8696 52.1471 87.8543 52.1318 87.839C51.744 87.5176 52.1777 87.6757 51.7695 87.5073V87.1145C52.04 87.094 51.9838 87.1043 52.1624 87.0175C51.9838 86.645 52.1114 86.145 52.239 85.7062C52.2441 85.6857 52.2543 85.6602 52.2594 85.6449C52.3563 85.2673 52.2135 85.5071 52.0604 84.854C52.1726 84.706 52.1369 84.7622 52.2543 84.6499C52.2645 84.6397 52.29 84.6142 52.3002 84.604L52.4584 84.4611C52.3818 83.5835 51.9634 83.4865 51.9634 83.1804C51.9634 82.0323 52.091 82.3334 52.2594 81.6088C52.6829 81.6445 52.6421 81.6649 52.6523 82.0986C52.142 82.1548 52.4737 81.9864 52.3563 82.2976C52.8105 82.6038 53.2391 82.4405 53.6575 82.0323Z" fill="#4C4C4C"/>
<path d="M83.2672 98.5151C83.2723 98.112 83.1804 98.3161 83.4815 98.0762L83.6805 97.8925C83.8335 97.7548 83.6856 97.8007 83.9203 97.7344C84.0683 97.964 84.1091 97.9334 84.1142 98.3263C84.4203 98.1222 84.3336 98.0303 84.7061 97.9334C84.8234 98.1885 84.7775 98.1222 84.7061 98.4232C84.9561 98.3212 85.0224 98.4793 85.5174 98.3569C86.6144 98.0967 86.2777 98.265 86.9665 98.4232C87.0431 98.1477 86.9461 98.2803 87.1655 98.1273C87.4666 98.3518 87.3237 98.066 87.3594 98.5253C87.8135 98.4845 88.4718 97.8517 88.2473 98.8161C89.0279 98.8008 88.834 98.4385 89.5229 98.4232C89.4413 99.4029 89.5229 99.1886 89.1963 99.4794C88.7626 99.8621 88.635 99.6172 88.2983 99.5815C87.9411 99.5407 87.1451 99.9999 85.8848 99.9999C85.7929 99.607 85.8388 99.6631 85.5735 99.5254L85.2827 99.4182C84.9561 99.2958 85.4357 99.3111 85.002 99.3111C84.5938 99.3111 84.8438 99.3774 84.5224 99.3672C84.3948 99.3672 84.257 99.3111 84.0172 99.3111C83.808 99.3111 83.2416 99.7142 83.2672 98.5151Z" fill="#4C4C4C"/>
<path d="M54.7513 77.0195L54.8687 76.6521C54.9962 76.2644 54.8534 76.2439 55.3075 76.2031C55.3075 76.6777 55.3942 76.6317 55.4044 76.9991C55.4146 77.4481 55.2513 77.4481 55.3228 78.5503C55.3483 78.9177 55.3942 78.7085 55.2973 79.1371C55.2973 79.1422 55.2054 79.4688 55.185 79.5198L54.7768 80.6883C54.5982 81.2036 54.6646 81.1883 54.3278 81.4179C53.9859 81.3261 54.1951 81.3669 53.9553 81.1985C53.7257 81.0352 53.8788 81.1832 53.6747 80.9791C53.6594 80.9587 53.5012 80.7036 53.4961 80.6934C53.4604 80.5097 53.4859 80.5556 53.5369 80.3362C53.2716 80.3107 53.2716 80.2903 53.047 80.2341C53.1848 79.7239 53.144 80.1525 53.4399 79.7443C53.093 79.8208 53.2205 79.8259 52.9297 79.6269L53.343 79.1524C53.1083 79.0606 53.1083 79.3208 53.1797 78.8105L53.4297 77.7696C53.6491 77.489 54.4451 77.3002 54.8176 77.3869C54.7462 77.2338 54.7258 77.2492 54.7513 77.0195Z" fill="#4C4C4C"/>
<path d="M37.1106 28.5494C37.177 27.9932 36.9933 27.9472 37.7689 27.6921C37.7944 27.687 37.8199 27.6768 37.8454 27.6666C38.4577 27.4523 39.1364 26.9829 38.7792 28.4065C38.621 29.0494 38.7231 28.3146 38.3965 29.1055C37.8862 28.7637 38.3914 29.1055 37.1157 29.1055C37.0953 29.4066 37.0392 29.5035 36.9167 29.6974L36.6871 30.0648C36.6106 30.2587 36.6769 30.2587 36.4779 30.524C36.2636 30.8098 36.2891 30.6975 36.1412 30.8812L36.0595 30.9935C35.7432 31.4272 35.8452 31.2384 35.4115 31.5343C34.8247 31.9323 35.5084 32.0803 34.8553 32.2538C34.8553 31.7946 34.8349 31.8354 34.9982 31.6058L35.9371 30.3863C36.0952 29.9321 35.8401 30.3046 36.2381 29.8862C36.7024 29.3964 36.284 29.6158 36.3095 29.3147C36.3351 28.9525 36.3402 29.2127 36.4422 29.1361L36.7177 29.0035C36.8759 28.9371 36.5392 28.9627 37.0188 28.9116C37.0494 28.534 37.0953 28.6667 37.1106 28.5494Z" fill="#4C4C4C"/>
<path d="M42.0338 83.0859C42.1716 83.3615 42.1308 82.8869 42.1308 83.7748C42.5237 83.785 42.4369 83.7748 42.6257 83.9738L42.2889 84.6218C41.896 85.1015 41.7175 84.979 41.4215 85.326C41.1715 85.6219 41.4572 85.6015 40.9521 85.6423C40.9929 85.1678 41.1102 85.3056 41.345 84.9535L40.9317 84.6779C40.4826 84.1064 40.7276 84.6984 40.3857 84.2544C40.202 84.0146 40.2734 84.1626 40.2632 83.7748C40.8449 83.637 40.7122 83.1166 42.0338 83.0859Z" fill="#4C4C4C"/>
<path d="M71.3439 38.282C70.7367 38.5779 71.1041 37.9962 71.0632 37.7105C70.9969 37.2309 70.8693 37.6187 70.854 36.9859C70.8285 36.0011 70.8132 36.3175 71.0734 36.0216C71.4765 35.5521 71.2878 35.6389 71.8133 35.3837C72.5175 35.0419 72.1195 34.8174 72.7114 35.1031C72.6705 35.6082 72.7318 35.1235 72.4613 35.6338L72.4001 35.7715C72.2011 36.1797 72.3338 35.9552 72.0225 36.2818C72.094 36.5879 72.1501 36.5675 72.2215 36.8686L72.0021 37.2564C71.8796 37.6289 72.1348 37.5166 71.6296 37.5574C71.6296 37.9401 71.6245 38.1493 71.3439 38.282Z" fill="#4C4C4C"/>
<path d="M46.9482 23.5878C47.5962 23.0673 47.4432 23.5215 47.4432 24.3889C46.8972 24.343 47.1574 24.3787 46.8513 24.4858C47.1319 24.8685 47.0044 24.4961 47.1472 24.8838C46.3053 25.4451 47.0401 24.6338 46.2237 25.9248C46.04 26.2105 46.341 26.134 45.8665 26.2564C45.7542 26.0166 45.8206 25.6645 45.8614 25.5013C45.9328 25.1951 45.9889 25.5574 45.9124 25.1288C45.8869 24.9961 45.8461 25.0573 45.7695 24.7818C46.1471 24.2715 46.0859 24.94 46.0655 23.996L46.9482 23.5878Z" fill="#4C4C4C"/>
<path d="M87.5951 87.0528C88.1054 86.8589 88.0799 86.6956 88.3656 87.1906C89.2381 88.706 88.4217 88.2621 87.6717 88.0886C87.09 87.9509 87.0645 88.0886 87.0645 87.4151C87.0645 87.0324 87.2839 87.1753 87.5951 87.0528Z" fill="#4C4C4C"/>
<path d="M73.0065 28.1211C73.3942 28.1211 73.4045 28.1568 73.6953 28.2231C73.9096 28.6671 73.6545 28.963 74.1851 29.1059V29.4018C73.9249 29.4631 73.8943 29.4886 73.6953 29.5957C73.6443 29.5243 73.5269 29.3355 73.4504 29.2641C73.2003 29.0549 72.6748 29.3253 72.5166 28.713C72.685 28.4579 72.6136 28.4528 73.0065 28.417V28.1211Z" fill="#4C4C4C"/>
<path d="M92.5812 94.6919L93.0659 94.5898C93.0047 94.8501 92.6832 96.4574 92.1781 96.4574C91.7341 96.4574 91.8515 96.4115 91.8158 95.9216C91.8158 95.8706 91.7852 95.7838 91.7852 95.6716L92.5812 94.6919Z" fill="#4C4C4C"/>
<path d="M87.1655 94.2966C86.7063 93.9802 86.6961 93.9547 86.4205 94.0466C86.0276 94.1741 86.2981 94.1639 85.8848 94.1996C85.895 93.7863 85.8695 93.8527 86.1195 93.6333C86.5889 93.2148 86.3542 93.7047 86.844 93.4036C87.1043 93.2455 86.992 93.2455 87.3594 93.2148C87.5227 93.6026 87.3747 93.6179 87.2625 94.0976C87.788 94.1129 87.6656 94.0108 87.5584 94.2966C87.0941 94.6334 87.6452 94.5262 87.0635 94.5925L86.9665 94.4905C87.0533 94.2609 86.9104 94.3629 87.1655 94.2966Z" fill="#4C4C4C"/>
<path d="M86.574 84.9492C86.5638 85.5411 86.5485 85.1839 86.375 85.536C86.1097 86.0616 86.3903 86.0616 86.0127 86.1789C85.5943 86.3116 85.8596 86.3983 85.5484 86.184C85.2881 86.0003 85.2065 85.735 85.1963 85.3421C86.8648 85.2043 85.829 85.0309 86.574 84.9492Z" fill="#4C4C4C"/>
<path d="M87.2395 89.3861C87.4027 89.4065 87.2139 89.4269 87.3925 89.3708C87.4027 89.3657 87.4282 89.3504 87.4385 89.3453C87.9742 89.1157 87.5507 89.279 88.2498 89.279V89.6718C87.8365 89.83 88.1783 89.5953 88.0967 90.1209C88.0508 90.4219 87.9742 90.478 87.8518 90.6617L87.464 90.4576C87.5048 89.9576 87.5354 90.325 87.6579 89.8708C87.3619 89.7892 87.4436 89.8708 87.3619 89.5749C87.0098 89.8096 86.8874 89.9576 86.8721 89.279C87.3211 89.3198 87.0711 89.3606 87.2395 89.3861Z" fill="#4C4C4C"/>
<path d="M90.1928 93.2324C91.1317 93.7172 90.9786 93.7172 90.9991 93.9978C90.7133 94.0642 90.7388 94.0488 90.5398 94.2325C90.2949 94.4519 90.5194 94.6101 90.152 94.4468C89.7285 94.2529 90.2745 94.207 90.4123 93.7019C90.1775 93.8601 90.3102 93.8243 90.0194 93.9009C89.6061 93.0436 89.8408 93.5794 89.5244 93.1151C89.7285 92.8855 89.7897 93.0232 90.1928 93.2324Z" fill="#4C4C4C"/>
<path d="M85.1566 93.8594C84.927 94.1145 84.9014 94.089 84.6106 94.0941C84.7075 93.6706 84.6361 93.5685 84.483 93.1348C84.2891 92.5786 84.3606 92.844 84.4116 92.2266H84.8045C84.8402 92.3745 85.0137 93.0379 85.0188 93.1348L85.029 93.4002C85.1311 93.6247 85.1617 93.3849 85.1974 93.8033C85.1821 93.8186 85.1668 93.8492 85.1566 93.8594Z" fill="#4C4C4C"/>
<path d="M43.3091 83.0859C43.748 83.188 43.7939 83.1217 44.0082 83.2747C44.4623 83.5911 44.2225 84.0656 44.197 84.1677C43.3806 84.1524 44.2378 84.035 43.1152 83.7748C43.1254 83.3717 43.1714 83.3462 43.3091 83.0859Z" fill="#4C4C4C"/>
<path d="M38.0037 84.657C38.6517 84.657 38.4884 84.5855 38.8864 84.856C38.8864 85.4224 37.8047 86.101 37.8047 85.1519C37.8047 84.8305 37.8914 85.0754 38.0037 84.657Z" fill="#4C4C4C"/>
<path d="M65.9241 42.5742C66.4293 42.615 66.7966 43.0283 66.9089 43.4621C66.6895 43.5743 66.6129 43.6253 66.419 43.7529C66.1027 43.5896 66.0874 43.5335 65.8271 43.36C65.8578 42.9824 65.9241 43.0437 65.9241 42.5742Z" fill="#4C4C4C"/>
<path d="M89.4169 91.2213C90.0292 91.0887 90.019 91.1346 90.019 91.7367C89.6567 91.9255 89.6669 91.9408 89.1465 91.9102L89.0138 91.9C88.7587 91.8745 88.9475 91.9357 88.7383 91.8336V91.6397C88.7383 91.4152 89.1669 91.2775 89.4169 91.2213Z" fill="#4C4C4C"/>
<path d="M90.8045 96.5547H91.0954C91.1056 96.7996 91.1515 96.9374 91.1566 97.0649C91.1974 98.3508 91.1515 97.4578 91.0954 98.1263C90.3606 98.1467 90.6361 98.5702 90.3096 98.1263C90.5188 97.8405 90.2994 97.9426 90.8045 97.9324L90.7025 97.0445C90.7025 96.7792 90.7535 96.7741 90.8045 96.5547Z" fill="#4C4C4C"/>
<path d="M63.6631 97.043C63.6733 97.043 65.1684 98.0992 63.8621 98.1247C63.7295 97.64 63.6784 98.0635 63.6631 97.441H63.3672C63.3672 97.1603 63.3825 97.043 63.6631 97.043Z" fill="#4C4C4C"/>
<path d="M84.4111 88.3984C84.7377 88.475 85.1969 88.6995 85.1969 89.0873C85.1969 89.2251 85.0643 89.2812 84.901 89.2812C84.5591 89.2812 84.4213 88.7658 84.4111 88.3984Z" fill="#4C4C4C"/>
<path d="M36.9219 32.2539V32.5499L35.9371 32.9428C35.8504 32.555 35.8504 32.7335 35.9371 32.3509C37.0189 32.4427 36.0851 32.2692 36.9219 32.2539Z" fill="#4C4C4C"/>
<path d="M88.8702 94.626C89.0897 94.4628 88.8294 94.5342 89.2274 94.4883C89.4928 95.0241 89.2631 94.7791 89.1305 95.2792C88.8396 95.2537 88.6406 95.2077 88.6406 94.8863C88.6406 94.7791 88.7784 94.6975 88.8702 94.626Z" fill="#4C4C4C"/>
<path d="M86.8703 84.0716C86.6764 84.791 86.1151 84.3012 85.9824 84.2655V83.9746C86.5182 83.7654 86.4161 83.9644 86.8703 84.0716Z" fill="#4C4C4C"/>
<path d="M81.7588 96.3584C81.7588 97.5575 83.0548 96.3789 81.8557 96.0625C81.7894 96.1799 81.7588 96.1645 81.7588 96.3584Z" fill="#4C4C4C"/>
<path d="M87.9531 91.933V92.4279C88.8971 92.3463 88.8818 91.3768 87.9531 91.933Z" fill="#4C4C4C"/>
<path d="M87.0252 94.9475C86.862 95.269 87.2242 94.9016 86.2803 94.9832C86.3211 94.5291 86.4793 94.5291 86.9691 94.4883L87.0661 94.5903C87.0661 94.7485 87.0967 94.8046 87.0252 94.9475Z" fill="#4C4C4C"/>
<path d="M74.0898 28.5193C74.0898 28.9479 74.3705 28.7387 74.6766 28.7131C74.6766 27.611 74.0898 28.2641 74.0898 28.5193Z" fill="#4C4C4C"/>
<path d="M61.307 36.8762C61.1947 36.9681 61.2916 36.9068 61.1029 36.9681C61.0773 36.9732 60.96 36.9681 60.9141 36.9732V36.4782C61.8019 36.0394 61.4651 36.7435 61.307 36.8762Z" fill="#4C4C4C"/>
<path d="M85.6929 92.5234C86.0347 92.7735 86.1827 93.0541 85.9837 93.4062C85.7133 93.2633 85.5908 93.248 85.5908 92.8194C85.5908 92.6306 85.6214 92.6459 85.6929 92.5234Z" fill="#4C4C4C"/>
<path d="M88.1464 93.8047C88.1464 94.3711 88.2127 94.5446 87.6565 94.5905C87.5749 94.4476 87.6106 94.4833 87.5596 94.2945C88.0443 94.121 87.631 93.9425 88.1464 93.8047Z" fill="#4C4C4C"/>
<path d="M59.3363 95.4735C59.3312 95.198 59.2852 94.8867 59.0454 94.8867C58.5607 94.8867 58.6729 95.4174 59.3363 95.4735Z" fill="#4C4C4C"/>
<path d="M22.5684 89.4766C23.0225 89.4868 23.0531 89.4868 23.1552 89.8695C22.8949 89.997 23.2368 89.9664 22.8592 89.9664H22.5684V89.4766Z" fill="#4C4C4C"/>
<path d="M90.6054 94.2969H90.9014C90.9881 94.5316 90.8401 94.4244 91.0953 94.4908V94.6898C90.6411 94.8122 91.0085 94.8428 90.4932 94.8837L90.6054 94.2969Z" fill="#4C4C4C"/>
<path d="M91.1976 94.7852C91.3098 95.2036 91.5292 95.0862 91.32 95.3005C91.1057 95.5148 91.218 95.2903 90.8047 95.1781C90.8863 94.8413 90.871 94.8719 91.1976 94.7852Z" fill="#4C4C4C"/>
<path d="M86.9477 95.5772C86.8609 95.419 86.8762 95.2812 87.1671 95.2812C87.3712 95.2812 87.4426 95.5415 87.463 95.7711C87.1467 95.766 87.0752 95.8068 86.9477 95.5772Z" fill="#4C4C4C"/>
<path d="M85.1963 93.8047H85.4922C85.5892 94.167 85.5943 93.9271 85.6912 94.2945C85.5075 94.3813 85.5688 94.3711 85.2983 94.3915C85.2422 94.1619 85.2065 94.1006 85.1963 93.8047Z" fill="#4C4C4C"/>
<path d="M65.1341 90.6597C65.0321 90.5117 65.0014 90.4811 64.9453 90.2617C65.379 90.3638 65.4913 90.4505 65.5321 90.9506C65.226 90.8689 65.3025 90.9097 65.1341 90.6597Z" fill="#4C4C4C"/>
<path d="M76.1493 88.7918C75.6952 88.7816 75.6646 88.7765 75.5625 88.3989C75.7411 88.3071 75.685 88.3224 75.9554 88.2969C76.0523 88.6643 76.0523 88.4244 76.1493 88.7918Z" fill="#4C4C4C"/>
<path d="M38.0996 85.7384C38.4721 85.7384 38.4619 85.723 38.4925 86.1364C38.2272 86.1568 38.2272 86.1823 38.0027 86.2333C38.0027 85.871 37.9873 85.9782 38.0996 85.7384Z" fill="#4C4C4C"/>
<path d="M61.9948 83.1817C61.8009 83.4471 61.7907 83.3144 61.6988 83.5797C61.3416 83.493 61.3825 83.5236 61.209 83.2838C61.9489 83.2634 61.4947 82.9521 61.9948 83.1817Z" fill="#4C4C4C"/>
<path d="M87.7537 95.375H88.1466C88.1364 95.8802 88.2385 95.6556 87.9527 95.8648C87.667 95.6556 87.769 95.8802 87.7537 95.375Z" fill="#4C4C4C"/>
<path d="M32.2158 46.9258H32.8026C32.7108 47.2677 32.7669 47.1452 32.5118 47.3187C32.2515 47.1452 32.3077 47.2677 32.2158 46.9258Z" fill="#4C4C4C"/>
<path d="M91.8867 94.7835C92.3204 94.7733 92.3408 94.8141 92.3766 94.3906C91.9888 94.4008 91.8867 94.3855 91.8867 94.7835Z" fill="#4C4C4C"/>
<path d="M82.6411 92.6227C83.0391 92.5206 82.9268 92.5971 82.937 92.1328C82.4523 92.1736 82.4625 92.2502 82.6411 92.6227Z" fill="#4C4C4C"/>
<path d="M27.4802 92.4258C27.766 92.635 27.6639 92.4105 27.6792 92.9156C27.3986 92.8952 27.2812 92.9207 27.2812 92.6197C27.2812 92.487 27.3935 92.4717 27.4802 92.4258Z" fill="#4C4C4C"/>
<path d="M61.6035 38.4464C62.4658 38.8597 61.8791 37.3953 61.6035 38.4464V38.4464Z" fill="#4C4C4C"/>
<path d="M88.6407 86.7227C88.9826 86.9778 88.8703 86.9931 88.5386 87.2176C88.4111 86.9574 88.4417 87.2941 88.4417 86.9217C88.4417 86.789 88.5539 86.7737 88.6407 86.7227Z" fill="#4C4C4C"/>
<path d="M57.0756 73.0286C57.3103 73.049 57.2235 73.1051 57.2899 73.2786C57.2848 73.2786 57.096 73.5286 56.7949 73.2786C56.8664 73.1459 56.9327 73.0132 57.0756 73.0286Z" fill="#4C4C4C"/>
<path d="M83.721 88.6942C84.0067 88.485 84.1802 88.2451 83.624 88.1992C83.6291 88.5411 83.6087 88.4646 83.721 88.6942Z" fill="#4C4C4C"/>
<path d="M85.6911 94.8847C86.1452 94.9204 85.8594 94.7775 86.1044 95.099L85.885 95.2776C85.5839 95.0633 85.7268 95.3235 85.6911 94.8847Z" fill="#4C4C4C"/>
<path d="M88.9379 92.5253C89.392 92.561 89.1063 92.4182 89.3461 92.7396L89.1318 92.9182C88.8256 92.709 88.9736 92.9641 88.9379 92.5253Z" fill="#4C4C4C"/>
<path d="M61.9949 39.3281V39.6241H61.5C61.6378 39.3741 61.6378 39.3587 61.9949 39.3281Z" fill="#4C4C4C"/>
<path d="M89.524 96.6537C89.4169 96.2608 89.4985 96.3731 89.0342 96.3629C89.2026 96.6792 89.0495 96.6435 89.524 96.6537Z" fill="#4C4C4C"/>
<path d="M77.6289 31.0772C77.7208 30.72 77.634 30.8119 78.0218 30.7812C77.9963 31.0517 78.0116 30.9956 77.9197 31.1742C77.7054 31.067 77.8891 31.1435 77.6289 31.0772Z" fill="#4C4C4C"/>
<path d="M89.0342 96.2601C89.4067 96.2193 89.3199 96.3162 89.4271 95.8672C89.0393 95.9131 89.1515 95.806 89.0342 96.2601Z" fill="#4C4C4C"/>
<path d="M64.3525 90.168H64.7454V90.4588C64.3627 90.4282 64.4495 90.52 64.3525 90.168Z" fill="#4C4C4C"/>
<path d="M74.599 86.3125L74.798 86.5472L74.5582 86.7462L74.3643 86.5115L74.599 86.3125Z" fill="#4C4C4C"/>
<path d="M63.2725 84.167V83.8711H63.5684C63.6807 84.1415 63.6654 84.1364 63.2725 84.167Z" fill="#4C4C4C"/>
<path d="M95.719 94.8867C96.0201 95.1061 95.8772 94.8204 95.918 95.2796H95.6221C95.6221 95.05 95.6527 95.0245 95.719 94.8867Z" fill="#4C4C4C"/>
<path d="M89.9162 92.0352H90.2122C90.1917 92.3056 90.2019 92.2495 90.1152 92.4281C89.809 92.2137 89.9519 92.474 89.9162 92.0352Z" fill="#4C4C4C"/>
<path d="M56.5853 78.0703H56.1924C56.3046 78.504 56.4679 78.504 56.5853 78.0703Z" fill="#4C4C4C"/>
<path d="M65.3369 89.9688H65.6329V90.2647H65.3369V89.9688Z" fill="#4C4C4C"/>
<path d="M77.8232 35.2969H78.1192V35.5928H77.8232V35.2969Z" fill="#4C4C4C"/>
<path d="M75.3653 29.4984C75.3296 29.0442 75.4724 29.33 75.1714 29.1055C75.0234 29.4269 74.9622 29.3912 75.3653 29.4984Z" fill="#4C4C4C"/>
<path d="M73.9912 19.3686C74.4453 19.3329 74.1596 19.4757 74.3841 19.1747C74.18 19.0828 73.9963 19.0165 73.9912 19.3686Z" fill="#4C4C4C"/>
<path d="M89.2285 97.0455C89.6316 97.2343 89.4275 97.2189 89.6214 96.8516C89.3918 96.872 89.2642 96.8414 89.2285 97.0455Z" fill="#4C4C4C"/>
<path d="M56.7799 79.1507C56.9534 78.7833 56.9636 78.967 56.683 78.7578C56.5095 79.1303 56.4993 78.9466 56.7799 79.1507Z" fill="#4C4C4C"/>
<path d="M35.9517 51.5538C36.0333 51.4109 35.9976 51.4466 36.0486 51.2578C35.5741 51.3854 35.5843 51.7068 35.9517 51.5538Z" fill="#4C4C4C"/>
<path d="M65.6328 89.5742H65.9237V89.8702C65.6328 89.7987 65.7094 89.86 65.6328 89.5742Z" fill="#4C4C4C"/>
<path d="M73.8896 86.5273H74.1856V86.8182C73.8897 86.7519 73.9662 86.8131 73.8896 86.5273Z" fill="#4C4C4C"/>
<path d="M86.5742 95.9688C86.8702 96.0453 86.7885 95.9636 86.8702 96.2596H86.5742V95.9688Z" fill="#4C4C4C"/>
<path d="M77.6289 93.8047C77.9249 93.8812 77.8432 93.7996 77.9197 94.0955H77.6289V93.8047Z" fill="#4C4C4C"/>
<path d="M28.4658 25.5664C28.7618 25.648 28.6801 25.5664 28.7618 25.8624H28.4658V25.5664Z" fill="#4C4C4C"/>
<path d="M71.8278 31.1719H72.0217V31.5648C71.7206 31.3505 71.8635 31.6107 71.8278 31.1719Z" fill="#4C4C4C"/>
<path d="M35.545 32.2539V32.5499C35.3613 32.5039 35.3817 32.5243 35.249 32.4478C35.2847 32.2641 35.3715 32.2947 35.545 32.2539Z" fill="#4C4C4C"/>
<path d="M88.937 96.7539C89.1462 96.907 89.0646 96.759 89.1309 97.0447H88.835C88.835 96.856 88.8656 96.8713 88.937 96.7539Z" fill="#4C4C4C"/>
<path d="M73.5928 33.4336H73.8887C73.8479 33.6224 73.8683 33.5969 73.7918 33.7295C73.5571 33.5867 73.6591 33.704 73.5928 33.4336Z" fill="#4C4C4C"/>
<path d="M72.8086 35.8906H73.1045C73.0586 36.0743 73.079 36.0539 73.0076 36.1866C72.7729 36.0437 72.8749 36.1611 72.8086 35.8906Z" fill="#4C4C4C"/>
<path d="M89.6201 95.6709C89.9161 95.5893 89.8395 95.6709 89.9161 95.375C89.6915 95.4362 89.6303 95.3954 89.6201 95.6709Z" fill="#4C4C4C"/>
<path d="M74.0879 20.4531V20.6521H73.792C73.8226 20.4684 73.9145 20.4939 74.0879 20.4531Z" fill="#4C4C4C"/>
<path d="M64.041 90.4607C63.8318 90.3025 64.0104 90.4556 63.9593 90.2617C64.4696 90.3944 64.1787 90.4046 64.1583 90.4556C64.0257 90.522 64.2094 90.5985 64.041 90.4607Z" fill="#4C4C4C"/>
<path d="M87.6582 93.6082C87.7602 93.7102 88.0153 93.4653 87.7704 93.5572C87.7704 93.5572 87.4949 93.4449 87.6582 93.6082Z" fill="#4C4C4C"/>
<path d="M9.52344 52.0938H103.48V64.762H9.52344V52.0938Z" fill="#E4AB43"/>
<path fill-rule="evenodd" clip-rule="evenodd" d="M19.3484 62.5169C19.3484 62.626 19.2597 62.7147 19.1505 62.7147H18.939C18.8367 62.7147 18.7548 62.626 18.7548 62.5169V56.2129L15.7324 62.8239C15.7051 62.8921 15.6301 62.9262 15.555 62.9262C15.48 62.9262 15.4049 62.8921 15.3845 62.8239L12.3484 56.2129V62.5169C12.3484 62.626 12.2666 62.7147 12.1506 62.7147H11.9391C11.8367 62.7147 11.7549 62.626 11.7549 62.5169V54.3912C11.7549 54.2957 11.8367 54.207 11.9391 54.207C12.0619 54.207 12.1028 54.2957 12.1369 54.3708L15.555 61.7528L18.9526 54.3708C18.9868 54.2957 19.0277 54.207 19.1505 54.207C19.2597 54.207 19.3484 54.2957 19.3484 54.3912V62.5169ZM29.6299 58.5666C29.6299 60.9204 27.7196 62.8307 25.3795 62.8307C23.0325 62.8307 21.1222 60.9204 21.1222 58.5666C21.1222 56.2197 23.0325 54.3094 25.3795 54.3094C27.7196 54.3094 29.6299 56.2197 29.6299 58.5666ZM21.7089 58.5666C21.7089 60.2518 23.1076 62.244 25.3795 62.244C27.0578 62.244 29.0432 60.8454 29.0432 58.5666C29.0432 56.8678 27.6718 54.8961 25.3795 54.8961C23.053 54.8961 21.7089 56.9156 21.7089 58.5666ZM34.856 54.4254C34.9719 54.4254 35.0606 54.5072 35.0606 54.6096V54.8211C35.0606 54.9234 34.9719 55.0053 34.856 55.0053H33.0343V62.5169C33.0343 62.6329 32.9525 62.7215 32.8501 62.7215H32.6386C32.5363 62.7215 32.4476 62.6329 32.4476 62.5169V55.0053H30.626C30.5168 55.0053 30.4281 54.9234 30.4281 54.8211V54.6096C30.4281 54.5072 30.5168 54.4254 30.626 54.4254H34.856ZM44.3666 58.5666C44.3666 60.9204 42.4562 62.8307 40.1093 62.8307C37.7623 62.8307 35.8589 60.9204 35.8589 58.5666C35.8589 56.2197 37.7623 54.3094 40.1093 54.3094C42.4562 54.3094 44.3666 56.2197 44.3666 58.5666ZM36.4456 58.5666C36.4456 60.2518 37.8374 62.244 40.1093 62.244C41.7945 62.244 43.7798 60.8454 43.7798 58.5666C43.7798 56.8678 42.4085 54.8961 40.1093 54.8961C37.7896 54.8961 36.4456 56.9156 36.4456 58.5666ZM49.5926 54.4254C49.7086 54.4254 49.7905 54.5072 49.7905 54.6096V54.8211C49.7905 54.9234 49.7086 55.0053 49.5926 55.0053H47.771V62.5169C47.771 62.6329 47.6823 62.7215 47.5868 62.7215H47.3753C47.2729 62.7215 47.1843 62.6329 47.1843 62.5169V55.0053H45.3626C45.2535 55.0053 45.1648 54.9234 45.1648 54.8211V54.6096C45.1648 54.5072 45.2535 54.4254 45.3626 54.4254H49.5926ZM56.1149 62.4077C56.2446 62.5305 56.1286 62.7215 55.9648 62.7215H55.6783C55.6033 62.7215 55.5555 62.6806 55.5146 62.6465L52.4581 59.2898C52.3626 59.1602 52.4512 58.9487 52.6218 58.9487C54.0955 58.9487 55.2826 58.3278 55.2826 56.8815C55.2826 55.285 54.0477 55.0053 52.9698 55.0053H52.4103V62.5169C52.4103 62.6329 52.3216 62.7215 52.2125 62.7215H52.0146C51.8986 62.7215 51.8099 62.6329 51.8099 62.5169V54.6096C51.8099 54.5072 51.8986 54.4254 52.0146 54.4254H52.9698C54.6208 54.4254 55.8693 55.094 55.8693 56.8815C55.8693 58.2664 55.0302 59.2148 53.4473 59.474L56.1013 62.3941L56.1149 62.4077ZM63.4764 62.4691C63.5037 62.5919 63.4423 62.7215 63.2922 62.7215H63.0671C62.9921 62.7215 62.917 62.6601 62.8897 62.5851L62.3098 60.7021H59.1032L58.5165 62.5851C58.4892 62.6601 58.4141 62.7215 58.3391 62.7215H58.1139C57.9911 62.7215 57.8888 62.5919 57.9297 62.4691L60.5087 54.364C60.5359 54.2753 60.611 54.2139 60.6997 54.2139C60.7952 54.2139 60.8702 54.2753 60.8975 54.364L63.4764 62.4691ZM60.6929 55.6398L59.2806 60.0949H62.1188L60.6929 55.6398ZM65.0661 54.6778C65.0115 54.5277 65.1139 54.4322 65.223 54.4322H65.4618C65.5505 54.4322 65.6255 54.4799 65.6528 54.5686L67.836 61.3912L70.0193 54.5686C70.0397 54.4799 70.1148 54.4322 70.2035 54.4322H70.4422C70.5514 54.4322 70.6537 54.5277 70.606 54.6778L68.0202 62.8034C67.993 62.8785 67.9179 62.9262 67.836 62.9262C67.7474 62.9262 67.6723 62.8785 67.645 62.8034L65.0661 54.6778ZM73.5943 57.9185H76.5279C76.6371 57.9185 76.7258 58.0072 76.7258 58.1163V58.321C76.7258 58.4165 76.6371 58.5189 76.5279 58.5189H73.5943V62.1143H76.5279C76.6371 62.1143 76.7258 62.1962 76.7258 62.3122V62.51C76.7258 62.626 76.6371 62.7079 76.5279 62.7079H73.1985C73.0826 62.7079 72.9939 62.626 72.9939 62.51V54.6027C72.9939 54.5004 73.0826 54.4117 73.1985 54.4117H76.5279C76.6371 54.4117 76.7258 54.5004 76.7258 54.6027V54.8142C76.7258 54.9166 76.6371 54.9985 76.5279 54.9985H73.5943V57.9185ZM82.5045 62.1143C82.6136 62.1143 82.7023 62.203 82.7023 62.3122V62.51C82.7023 62.626 82.6136 62.7147 82.5045 62.7147H78.9704C78.8612 62.7147 78.7725 62.626 78.7725 62.51V54.6027C78.7725 54.5004 78.8612 54.4117 78.9704 54.4117H79.1751C79.2842 54.4117 79.3729 54.5004 79.3729 54.6027V62.1143H82.5045ZM87.6555 55.7899C87.5531 55.8376 87.4713 55.7967 87.4167 55.7353C87.0824 55.2509 86.6185 54.9029 85.8202 54.9029C84.5376 54.9029 84.1965 55.899 84.1965 56.4858C84.1965 57.4477 84.7491 57.8366 85.868 58.3074C87.3826 58.9419 88.1672 59.4058 88.1672 60.7157C88.1672 61.9506 87.1097 62.8239 85.8339 62.8239C84.8105 62.8239 83.9986 62.1143 83.6848 61.8005C83.6029 61.7118 83.5756 61.5754 83.6779 61.5003L83.8349 61.3639C83.9236 61.2888 83.9986 61.2888 84.1214 61.4048C84.3738 61.6368 85.0493 62.2235 85.8339 62.2235C86.8299 62.2235 87.5668 61.5754 87.5668 60.7157C87.5668 59.9448 87.3075 59.5423 85.6497 58.8532C83.9509 58.1573 83.6029 57.4204 83.6029 56.4858C83.6029 55.3396 84.4352 54.3025 85.8202 54.3025C86.8914 54.3025 87.5804 54.9166 87.9079 55.3873L87.9284 55.4351C87.983 55.5238 87.9693 55.6261 87.8533 55.6875L87.6555 55.7899ZM89.9547 61.5754C90.0502 61.5754 90.1525 61.6641 90.1525 61.78V62.5169C90.1525 62.626 90.0502 62.7147 89.9547 62.7147H89.7159C89.6067 62.7147 89.518 62.626 89.518 62.5169V61.78C89.518 61.6641 89.6067 61.5754 89.7159 61.5754H89.9547ZM92.902 54.4185C95.2353 54.4185 96.1905 55.169 96.1905 56.8746C96.1905 58.5121 95.017 59.5423 92.8338 59.5423H92.7383V62.5169C92.7383 62.626 92.6496 62.7147 92.5404 62.7147H92.3357C92.2266 62.7147 92.1379 62.626 92.1379 62.5169V54.6027C92.1379 54.5072 92.2266 54.4185 92.3357 54.4185H92.902ZM92.8406 58.9828C94.4644 58.9828 95.6378 58.362 95.6378 56.8746C95.6378 55.3396 94.6759 54.978 92.7383 54.978V58.9828H92.8406ZM101.642 62.1143C101.751 62.1143 101.84 62.203 101.84 62.3122V62.5169C101.84 62.626 101.751 62.7147 101.642 62.7147H98.1076C97.9984 62.7147 97.9097 62.626 97.9097 62.5169V54.6027C97.9097 54.5072 97.9984 54.4185 98.1076 54.4185H98.3054C98.4214 54.4185 98.5101 54.5072 98.5101 54.6027V62.1143H101.642Z" fill="#2C2E35"/>
</svg>
