<?xml version="1.0" encoding="utf-8"?>
<!-- Generator: Adobe Illustrator 25.2.0, SVG Export Plug-In . SVG Version: 6.00 Build 0)  -->
<svg version="1.1" id="Layer_1" xmlns="http://www.w3.org/2000/svg" xmlns:xlink="http://www.w3.org/1999/xlink" x="0px" y="0px"
	 viewBox="0 0 40 40" style="enable-background:new 0 0 40 40;" xml:space="preserve">
<style type="text/css">
	.st0{clip-path:url(#SVGID_2_);}
	.st1{clip-path:url(#SVGID_4_);fill:#FFFFFF;}
	.st2{fill:#FFFFFF;}
	.st3{clip-path:url(#SVGID_6_);}
	.st4{clip-path:url(#SVGID_8_);fill:#FFFFFF;}
	.st5{clip-path:url(#SVGID_10_);}
</style>
<g>
	<defs>
		<path id="SVGID_1_" d="M-46.5,570.4c-1.7-4.6-5.5-7.2-5.5-7.2l-0.4,8.7l1.9-0.5c-0.5,2.2-2.6,4.2-5.9,5.5
			c-2.7,0.9-8.5,2.1-8.5-1.3c0-0.3,0-0.5,0-0.6v-20.4h4v-2.2h-4v-2.7c2.3-0.6,4-2.7,4-5.2c0-3-2.4-5.4-5.4-5.4c-3,0-5.4,2.4-5.4,5.4
			c0,2.5,1.7,4.6,4,5.2v2.7h-4v2.2h4v21c0,3.4-5.8,2.1-8.5,1.2c-3.3-1.3-5.4-3.3-5.9-5.5l2.1,0.5l-0.4-8.7c0,0-3.8,2.6-5.5,7.2
			l2.2,0.6c-0.2,0.7-0.3,1.6-0.3,2.5c0,4.4,6.2,8.2,15.1,8.9c0,0,0,0,0,0c2.5,0.1,2.6,2.6,2.6,2.6s0.1-2.5,2.6-2.6c0,0,0,0,0,0
			c8.9-0.6,15.1-4.5,15.1-8.9c0-0.9-0.1-1.7-0.3-2.4L-46.5,570.4z M-69.2,544.5c0-1.6,1.3-2.9,2.9-2.9c1.6,0,2.9,1.3,2.9,2.9
			c0,1.6-1.3,2.9-2.9,2.9C-67.9,547.5-69.2,546.1-69.2,544.5z"/>
	</defs>
	<clipPath id="SVGID_2_">
		<use xlink:href="#SVGID_1_"  style="overflow:visible;"/>
	</clipPath>
	<g class="st0">
		<defs>
			<rect id="SVGID_3_" x="-1559.9" y="-2494.9" width="2859" height="5136"/>
		</defs>
		<clipPath id="SVGID_4_">
			<use xlink:href="#SVGID_3_"  style="overflow:visible;"/>
		</clipPath>
	</g>
</g>
<g>
	<g>
		<path class="st2" d="M8.8,15.1l6.8-13.7L24,18.1c0,0,1.4,5,5.8,0.5c3.9-4.1,1.7-12.4-7.5-11.3c-0.1-0.2-3-5.3-3-5.3h6.9
			C31.8,1.9,37,8.6,36.8,14c-0.1,4-1.7,9.2-9.2,11.5c0,0-5.2,1-7.3-2.5l-4.7-9.3l-3.3,6.6C12.3,20.3,12,16.8,8.8,15.1z"/>
	</g>
	<g>
		<circle class="st2" cx="7.3" cy="21.5" r="3.1"/>
	</g>
</g>
<g>
	<path class="st2" d="M5.1,29.1v1.8c0,0.4,0,0.7,0,0.8c0,0.1,0,0.2,0.1,0.2c0,0,0.1,0,0.2,0.1l0.2,0v0.2c-0.2,0-0.4,0-0.5,0
		c-0.1,0-0.3,0-0.7,0V32h0.2c0.1,0,0.2,0,0.2,0c0,0,0.1-0.1,0.1-0.2c0-0.2,0-0.4,0-0.8v-1.3c0-0.2,0-0.5,0-0.7c0-0.1,0-0.2,0-0.2
		c0,0-0.1-0.1-0.1-0.1c0,0-0.1,0-0.2,0H4.4v-0.2c0.2,0,0.4,0,0.5,0c0.1,0,0.3,0,0.4,0c0.2,0.2,0.3,0.4,0.5,0.6s0.3,0.4,0.5,0.6
		l0.9,1.1c0.3,0.4,0.5,0.7,0.7,0.8V30c0-0.7,0-1.1,0-1.1c0-0.1-0.1-0.1-0.3-0.1l-0.2,0v-0.2c0.3,0,0.5,0,0.6,0c0.2,0,0.4,0,0.6,0
		v0.2H8.3c-0.2,0-0.3,0.1-0.3,0.2c0,0.1,0,0.4,0,1.1v1.2c0,0.3,0,0.7,0,1.1c-0.2,0-0.4-0.1-0.4-0.1c0,0-0.1,0-0.1-0.1
		c-0.2-0.2-0.4-0.4-0.6-0.7L5.1,29.1z"/>
	<path class="st2" d="M10.9,30.4v0.6l0,0.4c0,0.2,0,0.4,0,0.5c0.3,0,0.5,0,0.8,0c0.2,0,0.4,0,0.5,0c0.1,0,0.2,0,0.3-0.1
		c0-0.2,0.1-0.3,0.1-0.6h0.2c0,0.4-0.1,0.6-0.1,0.8l0,0.1c-0.2,0-0.4,0-0.6,0l-0.4,0c-0.4,0-0.8,0-1,0c-0.2,0-0.5,0-0.8,0V32H10
		c0.1,0,0.2,0,0.3,0c0,0,0.1-0.1,0.1-0.2c0-0.1,0-0.3,0-0.7v-1.4c0-0.2,0-0.4,0-0.6c0-0.1,0-0.2,0-0.3c0,0,0-0.1-0.1-0.1
		c0,0-0.1,0-0.2,0l-0.2,0v-0.2h0.3l0.3,0c0.2,0,0.3,0,0.3,0l1,0l0.5,0c0.2,0,0.3,0,0.5,0c-0.1,0.2-0.1,0.5-0.1,0.8h-0.2
		c0-0.2,0-0.3,0-0.5c-0.2-0.1-0.5-0.1-0.7-0.1c-0.2,0-0.5,0-0.7,0c0,0.2,0,0.3,0,0.5l0,0.4v0.5c0.2,0,0.3,0,0.5,0c0.4,0,0.6,0,0.7,0
		c0.1,0,0.1-0.1,0.1-0.3v-0.2h0.2c0,0.3,0,0.5,0,0.6c0,0.2,0,0.4,0,0.6h-0.2v-0.1c0-0.2,0-0.3-0.1-0.3c-0.1,0-0.3-0.1-0.7-0.1
		C11.2,30.4,11,30.4,10.9,30.4z"/>
	<path class="st2" d="M15.5,31.4l0.6-1.5c0.1-0.3,0.3-0.7,0.6-1.4h0.2c0.1,0.3,0.2,0.7,0.4,1.2l0.6,1.7l0.5-1.6
		c0-0.2,0.1-0.5,0.2-0.9c0,0,0-0.1,0-0.1c0,0,0-0.1,0-0.1c0,0-0.1,0-0.2,0l-0.2,0v-0.2c0.2,0,0.4,0,0.6,0c0.1,0,0.3,0,0.5,0v0.2H19
		c-0.1,0-0.1,0-0.1,0c-0.1,0.1-0.2,0.4-0.4,1.1c-0.3,0.9-0.5,1.7-0.7,2.4h-0.3c0-0.1-0.1-0.2-0.1-0.3c-0.1-0.2-0.3-0.7-0.5-1.5
		l-0.4-1.2l-0.5,1.2c-0.3,0.7-0.5,1.3-0.6,1.7h-0.3L15,31.6c0-0.2-0.1-0.4-0.1-0.6l-0.4-1.9c0-0.2-0.1-0.3-0.1-0.3
		c0,0-0.1-0.1-0.2-0.1H14v-0.2c0.2,0,0.5,0,0.6,0c0.2,0,0.4,0,0.7,0v0.2h-0.2c-0.1,0-0.2,0-0.2,0s-0.1,0.1-0.1,0.1c0,0,0,0.1,0,0.1
		l0.2,0.9L15.5,31.4z"/>
	<path class="st2" d="M25.2,31h-1.5l-0.2,0.4c-0.1,0.3-0.2,0.4-0.2,0.5c0,0,0,0.1,0,0.1c0,0,0.1,0,0.2,0l0.2,0v0.2
		c-0.2,0-0.4,0-0.6,0c-0.2,0-0.5,0-0.7,0V32l0.1,0c0.1,0,0.2,0,0.2,0c0,0,0.1-0.1,0.1-0.2c0.1-0.2,0.2-0.5,0.4-0.8l0.7-1.6
		c0.2-0.4,0.3-0.7,0.4-0.9h0.2l1.3,3c0.1,0.2,0.1,0.3,0.2,0.4c0,0,0.1,0.1,0.1,0.1c0,0,0.1,0,0.3,0v0.2c-0.2,0-0.4,0-0.6,0
		c-0.2,0-0.4,0-0.8,0V32l0.3,0c0.1,0,0.1,0,0.2,0c0,0,0,0,0-0.1c0,0,0-0.1-0.1-0.2L25.2,31z M23.8,30.7h1.3l-0.6-1.5L23.8,30.7z"/>
	<path class="st2" d="M29.6,30.3c0.2,0.2,0.4,0.5,0.6,0.8l0.5,0.6c0.1,0.1,0.1,0.2,0.2,0.2c0,0,0.1,0,0.1,0h0.1v0.2
		c-0.1,0-0.3,0-0.4,0c-0.1,0-0.2,0-0.3,0L29.5,31c-0.2-0.2-0.4-0.4-0.5-0.7l0-0.1c0.1,0,0.2,0,0.2,0c0.3,0,0.5-0.1,0.7-0.2
		c0.2-0.1,0.2-0.3,0.2-0.6c0-0.2-0.1-0.4-0.2-0.5c-0.1-0.1-0.3-0.2-0.6-0.2c-0.2,0-0.4,0-0.5,0.1c0,0.3,0,0.6,0,0.9v1.2
		c0,0.6,0,0.9,0,1c0,0.1,0.1,0.1,0.3,0.1h0.2v0.2c-0.3,0-0.5,0-0.7,0c-0.1,0-0.4,0-0.8,0V32H28c0.1,0,0.2,0,0.3-0.1c0-0.1,0-0.4,0-1
		v-1.2c0-0.5,0-0.8,0-0.9c0-0.1-0.1-0.1-0.3-0.1h-0.1v-0.2c0.3,0,0.6,0,0.7,0c0.1,0,0.3,0,0.5,0c0.2,0,0.4,0,0.5,0
		c0.3,0,0.5,0,0.7,0.1c0.2,0.1,0.3,0.2,0.4,0.3c0.1,0.1,0.1,0.3,0.1,0.4c0,0.2-0.1,0.5-0.3,0.6C30.2,30.1,30,30.3,29.6,30.3z"/>
	<path class="st2" d="M33.9,28.8c0,0.3,0,0.5,0,0.8V31c0,0.5,0,0.8,0,0.9c0,0.1,0.1,0.1,0.3,0.1h0.2v0.2c-0.3,0-0.6,0-0.8,0
		c-0.2,0-0.5,0-0.8,0V32h0.2c0.1,0,0.2,0,0.2,0c0,0,0.1-0.1,0.1-0.2c0-0.2,0-0.5,0-0.8v-1.5c0-0.3,0-0.6,0-0.8h-0.3
		c-0.4,0-0.7,0-0.7,0c0,0-0.1,0.1-0.1,0.2l0,0.3h-0.2l0-0.3c0-0.1,0-0.3,0-0.5c0.9,0,1.5,0,1.6,0l1.4,0c0,0.3-0.1,0.6-0.1,0.8h-0.2
		l0-0.3c0-0.1,0-0.2,0-0.2c0,0-0.1,0-0.1,0c-0.2,0-0.4,0-0.6,0H33.9z"/>
	<path class="st2" d="M7.6,38.3c0-0.3,0-0.7,0-1.4v-0.7c0-0.3,0-0.6,0-0.8c0-0.1,0-0.2,0-0.2c0,0-0.1,0-0.2-0.1l-0.2,0v-0.2
		c0.3,0,0.5,0,0.6,0l0.7,0l0.6,0c0.2,0,0.5,0,0.7,0.1c0.2,0,0.5,0.1,0.6,0.3c0.2,0.1,0.3,0.3,0.4,0.5c0.1,0.2,0.2,0.5,0.2,0.8
		c0,0.6-0.2,1.1-0.6,1.4c-0.4,0.4-0.9,0.6-1.5,0.6l-0.3,0c-0.3,0-0.5,0-0.6,0c-0.1,0-0.3,0-0.5,0v-0.1L7.6,38.3z M8.1,38.2
		c0.2,0,0.4,0.1,0.6,0.1c0.5,0,0.9-0.1,1.1-0.4c0.3-0.3,0.5-0.7,0.5-1.3c0-0.5-0.1-0.9-0.4-1.1c-0.3-0.3-0.7-0.4-1.2-0.4
		c-0.2,0-0.4,0-0.6,0.1c0,0.2,0,0.4,0,0.6v1.7C8.1,37.7,8.1,38,8.1,38.2z"/>
	<path class="st2" d="M13.3,36.8v0.6l0,0.4c0,0.2,0,0.4,0,0.5c0.3,0,0.5,0,0.8,0c0.2,0,0.4,0,0.5,0c0.1,0,0.2,0,0.3-0.1
		c0-0.2,0.1-0.3,0.1-0.6h0.2c0,0.4-0.1,0.6-0.1,0.8l0,0.1c-0.2,0-0.4,0-0.6,0l-0.4,0c-0.4,0-0.8,0-1,0c-0.2,0-0.5,0-0.8,0v-0.2h0.1
		c0.1,0,0.2,0,0.3,0c0,0,0.1-0.1,0.1-0.2c0-0.1,0-0.3,0-0.7V36c0-0.2,0-0.4,0-0.6c0-0.1,0-0.2,0-0.3c0,0,0-0.1-0.1-0.1
		c0,0-0.1,0-0.2,0l-0.2,0v-0.2h0.3l0.3,0c0.2,0,0.3,0,0.3,0l1,0l0.5,0c0.2,0,0.3,0,0.5,0C15,35.1,15,35.3,15,35.7h-0.2
		c0-0.2,0-0.3,0-0.5c-0.2-0.1-0.5-0.1-0.7-0.1c-0.2,0-0.5,0-0.7,0c0,0.2,0,0.3,0,0.5l0,0.4v0.5c0.2,0,0.3,0,0.5,0c0.4,0,0.6,0,0.7,0
		c0.1,0,0.1-0.1,0.1-0.3v-0.2h0.2c0,0.3,0,0.5,0,0.6c0,0.2,0,0.4,0,0.6h-0.2v-0.1c0-0.2,0-0.3-0.1-0.3c-0.1,0-0.3-0.1-0.7-0.1
		C13.6,36.7,13.4,36.8,13.3,36.8z"/>
	<path class="st2" d="M18.9,35c0,0.2-0.1,0.4-0.1,0.7h-0.2v-0.2c0-0.1,0-0.2-0.1-0.3c0,0-0.1-0.1-0.3-0.2S18,35,17.8,35
		c-0.3,0-0.5,0.1-0.6,0.2c-0.2,0.1-0.2,0.3-0.2,0.5c0,0.1,0,0.3,0.1,0.4c0.1,0.1,0.2,0.2,0.3,0.2c0.1,0,0.3,0.1,0.7,0.1
		c0.4,0,0.6,0.1,0.7,0.1c0.1,0.1,0.2,0.1,0.3,0.3c0.1,0.1,0.1,0.3,0.1,0.4c0,0.3-0.1,0.6-0.4,0.9c-0.3,0.2-0.7,0.4-1.2,0.4
		c-0.2,0-0.3,0-0.5-0.1c-0.2,0-0.3-0.1-0.5-0.1c0-0.2,0-0.5,0-0.8h0.2v0.1c0,0.2,0,0.3,0,0.3c0,0,0.1,0.1,0.1,0.1
		c0.1,0.1,0.2,0.1,0.3,0.2c0.1,0,0.3,0.1,0.4,0.1c0.3,0,0.6-0.1,0.8-0.2c0.2-0.2,0.3-0.3,0.3-0.6c0-0.1,0-0.3-0.1-0.3
		c-0.1-0.1-0.1-0.2-0.3-0.2c-0.1,0-0.3-0.1-0.6-0.1c-0.4,0-0.7-0.1-0.8-0.1c-0.1-0.1-0.2-0.2-0.3-0.3c-0.1-0.1-0.1-0.3-0.1-0.5
		c0-0.3,0.1-0.6,0.4-0.8c0.2-0.2,0.6-0.3,1-0.3c0.2,0,0.3,0,0.5,0.1C18.5,34.9,18.7,35,18.9,35z"/>
	<path class="st2" d="M20.4,38.4h0.2c0.2,0,0.3,0,0.3-0.1c0-0.1,0-0.4,0-1.1v-0.9c0-0.7,0-1.1,0-1.1c0-0.1-0.1-0.1-0.2-0.1h-0.2
		v-0.2c0.3,0,0.6,0,0.8,0c0.2,0,0.4,0,0.6,0V35h-0.2c-0.1,0-0.2,0-0.2,0c0,0,0,0.1-0.1,0.2c0,0.2,0,0.5,0,1v0.9c0,0.7,0,1,0,1.1
		c0,0.1,0.1,0.1,0.3,0.1h0.2v0.2c-0.2,0-0.4,0-0.7,0c-0.3,0-0.6,0-0.8,0V38.4z"/>
	<path class="st2" d="M26.7,37.3c0,0.1,0,0.3,0,0.4c0,0.2,0,0.3,0,0.5c-0.2,0.1-0.5,0.2-0.8,0.2c-0.3,0.1-0.6,0.1-0.8,0.1
		c-0.4,0-0.8-0.1-1.1-0.2c-0.3-0.2-0.5-0.4-0.7-0.7c-0.2-0.3-0.2-0.6-0.2-1c0-0.4,0.1-0.7,0.3-1c0.2-0.3,0.4-0.5,0.7-0.7
		c0.3-0.2,0.7-0.2,1.2-0.2c0.2,0,0.4,0,0.5,0c0.2,0,0.4,0.1,0.7,0.2l0.2,0.1c0,0.2-0.1,0.4-0.1,0.8h-0.2v-0.2c0-0.2,0-0.3,0-0.3
		c-0.1-0.1-0.2-0.1-0.4-0.2c-0.2-0.1-0.5-0.1-0.8-0.1c-0.5,0-0.9,0.1-1.2,0.4c-0.3,0.3-0.4,0.7-0.4,1.2c0,0.5,0.1,0.9,0.4,1.2
		c0.3,0.4,0.7,0.6,1.3,0.6c0.3,0,0.6-0.1,0.9-0.2c0-0.1,0-0.3,0-0.5c0-0.2,0-0.3,0-0.4c0,0,0-0.1,0-0.1c0,0-0.1,0-0.3,0l-0.3,0v-0.2
		c0.4,0,0.7,0,0.9,0c0.2,0,0.3,0,0.4,0v0.1L26.7,37.3z"/>
	<path class="st2" d="M29,35.4v1.8c0,0.4,0,0.7,0,0.8c0,0.1,0,0.2,0.1,0.2s0.1,0,0.2,0.1l0.2,0v0.2c-0.2,0-0.4,0-0.5,0
		c-0.1,0-0.3,0-0.7,0v-0.2h0.2c0.1,0,0.2,0,0.2,0c0,0,0.1-0.1,0.1-0.2c0-0.2,0-0.4,0-0.8v-1.3c0-0.2,0-0.5,0-0.7c0-0.1,0-0.2,0-0.2
		c0,0-0.1-0.1-0.1-0.1s-0.1,0-0.2,0h-0.2v-0.2c0.2,0,0.4,0,0.5,0c0.1,0,0.3,0,0.4,0c0.2,0.2,0.3,0.4,0.5,0.6s0.3,0.4,0.5,0.6
		l0.9,1.1c0.3,0.4,0.5,0.7,0.7,0.8v-1.7c0-0.7,0-1.1,0-1.1c0-0.1-0.1-0.1-0.3-0.1l-0.2,0v-0.2c0.3,0,0.5,0,0.6,0c0.2,0,0.4,0,0.6,0
		V35h-0.2c-0.2,0-0.3,0.1-0.3,0.2c0,0.1,0,0.4,0,1.1v1.2c0,0.3,0,0.7,0,1.1c-0.2,0-0.4-0.1-0.4-0.1c0,0-0.1,0-0.1-0.1
		c-0.2-0.2-0.4-0.4-0.6-0.7L29,35.4z"/>
</g>
<g>
	<defs>
		<path id="SVGID_5_" d="M64.6,574.1c-1.7-4.6-5.5-7.2-5.5-7.2l-0.4,8.7l1.9-0.5c-0.5,2.2-2.6,4.2-5.9,5.5c-2.7,0.9-8.5,2.1-8.5-1.3
			c0-0.3,0-0.5,0-0.6v-20.4h4v-2.2h-4v-2.7c2.3-0.6,4-2.7,4-5.2c0-3-2.4-5.4-5.4-5.4c-3,0-5.4,2.4-5.4,5.4c0,2.5,1.7,4.6,4,5.2v2.7
			h-4v2.2h4v21c0,3.4-5.8,2.1-8.5,1.2c-3.3-1.3-5.4-3.3-5.9-5.5l2.1,0.5l-0.4-8.7c0,0-3.8,2.6-5.5,7.2l2.2,0.6
			c-0.2,0.7-0.3,1.6-0.3,2.5c0,4.4,6.2,8.2,15.1,8.9c0,0,0,0,0,0c2.5,0.1,2.6,2.6,2.6,2.6s0.1-2.5,2.6-2.6c0,0,0,0,0,0
			c8.9-0.6,15.1-4.5,15.1-8.9c0-0.9-0.1-1.7-0.3-2.4L64.6,574.1z M41.8,548.2c0-1.6,1.3-2.9,2.9-2.9c1.6,0,2.9,1.3,2.9,2.9
			c0,1.6-1.3,2.9-2.9,2.9C43.1,551.1,41.8,549.8,41.8,548.2z"/>
	</defs>
	<clipPath id="SVGID_6_">
		<use xlink:href="#SVGID_5_"  style="overflow:visible;"/>
	</clipPath>
	<g class="st3">
		<defs>
			<rect id="SVGID_7_" x="-1448.9" y="-2491.2" width="2859" height="5136"/>
		</defs>
		<clipPath id="SVGID_8_">
			<use xlink:href="#SVGID_7_"  style="overflow:visible;"/>
		</clipPath>
	</g>
</g>
</svg>
