<?xml version="1.0" encoding="utf-8"?>
<!-- Generator: Adobe Illustrator 25.2.0, SVG Export Plug-In . SVG Version: 6.00 Build 0)  -->
<svg version="1.1" id="Layer_1" xmlns="http://www.w3.org/2000/svg" xmlns:xlink="http://www.w3.org/1999/xlink" x="0px" y="0px"
	 viewBox="0 0 40 40" style="enable-background:new 0 0 40 40;" xml:space="preserve">
<style type="text/css">
	.st0{clip-path:url(#SVGID_2_);}
	.st1{clip-path:url(#SVGID_4_);fill:#FFFFFF;}
	.st2{fill:#FFFFFF;}
	.st3{clip-path:url(#SVGID_6_);}
	.st4{clip-path:url(#SVGID_8_);fill:#FFFFFF;}
</style>
<g>
	<defs>
		<path id="SVGID_1_" d="M-346.9,570.4c-1.7-4.6-5.5-7.2-5.5-7.2l-0.4,8.7l1.9-0.5c-0.5,2.2-2.6,4.2-5.9,5.5
			c-2.7,0.9-8.5,2.1-8.5-1.3c0-0.3,0-0.5,0-0.6v-20.4h4v-2.2h-4v-2.7c2.3-0.6,4-2.7,4-5.2c0-3-2.4-5.4-5.4-5.4c-3,0-5.4,2.4-5.4,5.4
			c0,2.5,1.7,4.6,4,5.2v2.7h-4v2.2h4v21c0,3.4-5.8,2.1-8.5,1.2c-3.3-1.3-5.4-3.3-5.9-5.5l2.1,0.5l-0.4-8.7c0,0-3.8,2.6-5.5,7.2
			l2.2,0.6c-0.2,0.7-0.3,1.6-0.3,2.5c0,4.4,6.2,8.2,15.1,8.9c0,0,0,0,0,0c2.5,0.1,2.6,2.6,2.6,2.6s0.1-2.5,2.6-2.6c0,0,0,0,0,0
			c8.9-0.6,15.1-4.5,15.1-8.9c0-0.9-0.1-1.7-0.3-2.4L-346.9,570.4z M-369.6,544.5c0-1.6,1.3-2.9,2.9-2.9c1.6,0,2.9,1.3,2.9,2.9
			c0,1.6-1.3,2.9-2.9,2.9C-368.3,547.5-369.6,546.1-369.6,544.5z"/>
	</defs>
	<clipPath id="SVGID_2_">
		<use xlink:href="#SVGID_1_"  style="overflow:visible;"/>
	</clipPath>
	<g class="st0">
		<defs>
			<rect id="SVGID_3_" x="-1860.3" y="-2494.9" width="2859" height="5136"/>
		</defs>
		<clipPath id="SVGID_4_">
			<use xlink:href="#SVGID_3_"  style="overflow:visible;"/>
		</clipPath>
	</g>
</g>
<g>
	<defs>
		<path id="SVGID_5_" d="M-235.8,574.1c-1.7-4.6-5.5-7.2-5.5-7.2l-0.4,8.7l1.9-0.5c-0.5,2.2-2.6,4.2-5.9,5.5
			c-2.7,0.9-8.5,2.1-8.5-1.3c0-0.3,0-0.5,0-0.6v-20.4h4v-2.2h-4v-2.7c2.3-0.6,4-2.7,4-5.2c0-3-2.4-5.4-5.4-5.4c-3,0-5.4,2.4-5.4,5.4
			c0,2.5,1.7,4.6,4,5.2v2.7h-4v2.2h4v21c0,3.4-5.8,2.1-8.5,1.2c-3.3-1.3-5.4-3.3-5.9-5.5l2.1,0.5l-0.4-8.7c0,0-3.8,2.6-5.5,7.2
			l2.2,0.6c-0.2,0.7-0.3,1.6-0.3,2.5c0,4.4,6.2,8.2,15.1,8.9c0,0,0,0,0,0c2.5,0.1,2.6,2.6,2.6,2.6s0.1-2.5,2.6-2.6c0,0,0,0,0,0
			c8.9-0.6,15.1-4.5,15.1-8.9c0-0.9-0.1-1.7-0.3-2.4L-235.8,574.1z M-258.6,548.2c0-1.6,1.3-2.9,2.9-2.9c1.6,0,2.9,1.3,2.9,2.9
			c0,1.6-1.3,2.9-2.9,2.9C-257.3,551.1-258.6,549.8-258.6,548.2z"/>
	</defs>
	<clipPath id="SVGID_6_">
		<use xlink:href="#SVGID_5_"  style="overflow:visible;"/>
	</clipPath>
	<g class="st3">
		<defs>
			<rect id="SVGID_7_" x="-1749.3" y="-2491.2" width="2859" height="5136"/>
		</defs>
		<clipPath id="SVGID_8_">
			<use xlink:href="#SVGID_7_"  style="overflow:visible;"/>
		</clipPath>
	</g>
</g>
<g>
	<path class="st2" d="M12.1,34.4v-2.4h1.1c0.6,0,0.9,0.2,0.9,0.7c0,0.5-0.3,0.7-1,0.7h-0.2v1H12.1z M12.8,33.1H13
		c0.3,0,0.4-0.2,0.4-0.5c0-0.3-0.1-0.5-0.4-0.5h-0.2V33.1z"/>
	<path class="st2" d="M15.2,31.9v2.4h-0.7v-2.4H15.2z"/>
	<path class="st2" d="M17.6,31.9v0.2l-1.2,2h1.1v0.2h-1.9v-0.2l1.2-2h-1v-0.2H17.6z"/>
	<path class="st2" d="M19.8,31.9v0.2l-1.2,2h1.1v0.2h-1.9v-0.2l1.2-2h-1v-0.2H19.8z"/>
	<path class="st2" d="M21.8,31.9v0.2h-0.9v0.7h0.7v0.2h-0.7v1h1v0.2h-1.7v-2.4H21.8z"/>
	<path class="st2" d="M22.3,34.4v-2.4h1c0.3,0,0.5,0.1,0.7,0.2c0.2,0.1,0.2,0.3,0.2,0.5c0,0.3-0.2,0.5-0.5,0.6
		c0.2,0.1,0.3,0.1,0.3,0.2c0.1,0.1,0.1,0.2,0.1,0.5c0,0.3,0.1,0.5,0.1,0.5h-0.8c0-0.1-0.1-0.3-0.1-0.4l0-0.1l0-0.2
		c0-0.3-0.1-0.4-0.3-0.4H23v1.2H22.3z M23,33h0.1c0.3,0,0.4-0.1,0.4-0.4c0-0.3-0.1-0.4-0.4-0.4H23V33z"/>
	<path class="st2" d="M25.5,31.9v2.4h-0.7v-2.4H25.5z"/>
	<path class="st2" d="M27.2,31.9l0.7,2.4h-0.7l-0.1-0.5h-0.7l-0.2,0.5h-0.3l0.7-2.4H27.2z M26.4,33.6H27l-0.3-1.1L26.4,33.6z"/>
</g>
<g>
	<g>
		<g>
			<path class="st2" d="M20.4,10.1c-0.1,0-0.2-2.1-0.2-3.4c0-0.3,0.1-0.5,0.2-0.5c0.1,0,0.2,0.3,0.2,0.5
				C20.6,8.1,20.5,10.1,20.4,10.1z"/>
		</g>
	</g>
	<g>
		<g>
			<path class="st2" d="M20.4,5.8c-0.1,0-0.2-1-0.2-1.6c0-0.1,0.1-0.2,0.2-0.2c0.1,0,0.2,0.1,0.2,0.2C20.6,4.8,20.5,5.8,20.4,5.8z"
				/>
		</g>
	</g>
	<g>
		<g>
			<path class="st2" d="M20.4,3.5c-0.1,0-0.2-1-0.2-1.6c0-0.1,0.1-0.2,0.2-0.2c0.1,0,0.2,0.1,0.2,0.2C20.6,2.5,20.5,3.5,20.4,3.5z"
				/>
		</g>
	</g>
	<g>
		<g>
			<path class="st2" d="M28.5,15.1c-0.1-0.1,1.8-1.2,3-1.9c0.3-0.2,0.4-0.2,0.5-0.1c0.1,0.1-0.1,0.3-0.3,0.4
				C30.5,14.2,28.6,15.2,28.5,15.1z"/>
		</g>
	</g>
	<g>
		<g>
			<path class="st2" d="M32.5,12.8c-0.1-0.1,0.8-0.7,1.4-1c0.1-0.1,0.2,0,0.3,0c0.1,0.1,0,0.2-0.1,0.3
				C33.4,12.5,32.5,12.9,32.5,12.8z"/>
		</g>
	</g>
	<g>
		<g>
			<path class="st2" d="M34.6,11.6c-0.1-0.1,0.8-0.7,1.3-1c0.1-0.1,0.2,0,0.3,0.1c0.1,0.1,0,0.2-0.1,0.3
				C35.5,11.3,34.6,11.7,34.6,11.6z"/>
		</g>
	</g>
	<g>
		<g>
			<path class="st2" d="M25.3,11.5c-0.1-0.1,0.9-2,1.6-3.1C27,8.1,27.2,8,27.3,8c0.1,0.1,0,0.3-0.1,0.5
				C26.5,9.7,25.4,11.6,25.3,11.5z"/>
		</g>
	</g>
	<g>
		<g>
			<path class="st2" d="M27.5,7.6c-0.1-0.1,0.4-1,0.7-1.5c0.1-0.1,0.2-0.2,0.3-0.1c0.1,0.1,0.1,0.2,0.1,0.3
				C28.2,6.8,27.6,7.6,27.5,7.6z"/>
		</g>
	</g>
	<g>
		<g>
			<path class="st2" d="M28.7,5.5c-0.1-0.1,0.3-1,0.7-1.5c0.1-0.1,0.2-0.1,0.3-0.1c0.1,0.1,0.1,0.2,0.1,0.3
				C29.4,4.7,28.8,5.5,28.7,5.5z"/>
		</g>
	</g>
	<g>
		<g>
			<path class="st2" d="M27.2,14.2c-0.1-0.1,1.2-1.3,2.1-2c0.2-0.2,0.3-0.2,0.4-0.1c0.1,0.1,0,0.3-0.2,0.4
				C28.7,13.2,27.3,14.3,27.2,14.2z"/>
		</g>
	</g>
	<g>
		<g>
			<path class="st2" d="M30,11.8c-0.1-0.1,0.5-0.6,0.8-0.9c0.1-0.1,0.2,0,0.2,0c0.1,0.1,0,0.2,0,0.2C30.7,11.5,30.1,11.9,30,11.8z"
				/>
		</g>
	</g>
	<g>
		<g>
			<path class="st2" d="M31.5,10.6c-0.1-0.1,0.3-0.5,0.6-0.7c0.1-0.1,0.1,0,0.2,0.1c0.1,0.1,0.1,0.2,0,0.2
				C32,10.4,31.5,10.7,31.5,10.6z"/>
		</g>
	</g>
	<g>
		<g>
			<path class="st2" d="M23.5,11.3c-0.1,0,0.4-1.7,0.8-2.7c0.1-0.2,0.2-0.3,0.3-0.3c0.1,0,0.1,0.3,0,0.4
				C24.3,9.7,23.6,11.3,23.5,11.3z"/>
		</g>
	</g>
	<g>
		<g>
			<path class="st2" d="M24.8,7.8c-0.1,0,0.1-0.8,0.2-1.2c0-0.1,0.1-0.1,0.2-0.1c0.1,0,0.1,0.2,0.1,0.2C25.2,7.2,24.9,7.9,24.8,7.8z
				"/>
		</g>
	</g>
	<g>
		<g>
			<path class="st2" d="M25.4,6.1c-0.1,0,0-0.6,0.1-0.9c0-0.1,0.1-0.1,0.2-0.1c0.1,0,0.2,0.1,0.1,0.2C25.8,5.6,25.5,6.1,25.4,6.1z"
				/>
		</g>
	</g>
	<g>
		<g>
			<path class="st2" d="M27.7,11.1c-0.1-0.1,0.5-0.9,1-1.5c0.1-0.1,0.2-0.1,0.3-0.1c0.1,0.1,0.1,0.2,0,0.3
				C28.5,10.4,27.8,11.2,27.7,11.1z"/>
		</g>
	</g>
	<g>
		<g>
			<path class="st2" d="M29.3,9.2c-0.1-0.1,0.1-0.4,0.3-0.6c0,0,0.1,0,0.2,0.1c0.1,0.1,0.1,0.2,0.1,0.2C29.7,9.1,29.3,9.3,29.3,9.2z
				"/>
		</g>
	</g>
	<g>
		<g>
			<path class="st2" d="M30,8.3c-0.1-0.1,0-0.3,0.2-0.5c0,0,0.1,0,0.2,0.1c0.1,0.1,0.1,0.1,0.1,0.2C30.4,8.2,30.1,8.4,30,8.3z"/>
		</g>
	</g>
	<g>
		<g>
			<path class="st2" d="M22.3,8.6c-0.1,0,0-1.1,0.1-1.8c0-0.2,0.1-0.2,0.2-0.2c0.1,0,0.2,0.2,0.1,0.3C22.7,7.6,22.4,8.6,22.3,8.6z"
				/>
		</g>
	</g>
	<g>
		<g>
			<path class="st2" d="M22.7,6.2c-0.1,0-0.1-0.4-0.1-0.7c0-0.1,0.1-0.1,0.2-0.1C23,5.5,23,5.5,23,5.6C23,5.8,22.8,6.2,22.7,6.2z"/>
		</g>
	</g>
	<g>
		<g>
			<path class="st2" d="M22.9,5c-0.1,0-0.1-0.3-0.1-0.5c0,0,0.1,0,0.2,0c0.1,0,0.2,0.1,0.2,0.1C23.2,4.8,23,5,22.9,5z"/>
		</g>
	</g>
	<g>
		<g>
			<path class="st2" d="M11.7,14.8c-0.1,0.1-2-0.9-3.1-1.6c-0.3-0.2-0.4-0.3-0.3-0.4c0.1-0.1,0.3,0,0.5,0.1
				C9.9,13.6,11.7,14.7,11.7,14.8z"/>
		</g>
	</g>
	<g>
		<g>
			<path class="st2" d="M7.7,12.5c0,0.1-1-0.4-1.5-0.7c-0.1-0.1-0.1-0.2-0.1-0.3c0.1-0.1,0.2-0.1,0.3,0C6.9,11.9,7.8,12.5,7.7,12.5z
				"/>
		</g>
	</g>
	<g>
		<g>
			<path class="st2" d="M5.6,11.3c-0.1,0.1-1-0.3-1.5-0.7C4,10.6,4,10.5,4,10.4c0.1-0.1,0.2-0.1,0.3-0.1C4.9,10.7,5.7,11.2,5.6,11.3
				z"/>
		</g>
	</g>
	<g>
		<g>
			<path class="st2" d="M15.5,11.5c-0.1,0.1-1.2-1.8-1.9-3c-0.2-0.3-0.2-0.4-0.1-0.5c0.1-0.1,0.3,0.1,0.4,0.3
				C14.5,9.5,15.5,11.4,15.5,11.5z"/>
		</g>
	</g>
	<g>
		<g>
			<path class="st2" d="M13.2,7.6c-0.1,0.1-0.7-0.8-1-1.4c-0.1-0.1,0-0.2,0-0.3c0.1-0.1,0.2,0,0.3,0.1C12.8,6.6,13.3,7.5,13.2,7.6z"
				/>
		</g>
	</g>
	<g>
		<g>
			<path class="st2" d="M12,5.5c-0.1,0.1-0.7-0.8-1-1.3c-0.1-0.1,0-0.2,0.1-0.3c0.1-0.1,0.2,0,0.3,0.1C11.6,4.5,12.1,5.4,12,5.5z"/>
		</g>
	</g>
	<g>
		<g>
			<path class="st2" d="M12.9,13.7c-0.1,0.1-1.5-1-2.3-1.7c-0.2-0.2-0.2-0.3-0.2-0.4c0.1-0.1,0.3,0,0.4,0.1
				C11.7,12.4,13,13.6,12.9,13.7z"/>
		</g>
	</g>
	<g>
		<g>
			<path class="st2" d="M10.1,11.3c-0.1,0.1-0.7-0.3-1.1-0.6C9,10.6,9,10.5,9,10.4c0.1-0.1,0.2-0.1,0.2,0
				C9.7,10.7,10.2,11.3,10.1,11.3z"/>
		</g>
	</g>
	<g>
		<g>
			<path class="st2" d="M8.7,10.1c-0.1,0.1-0.6-0.2-0.8-0.4c-0.1-0.1,0-0.1,0-0.2C8,9.4,8.1,9.4,8.1,9.4C8.4,9.6,8.8,10.1,8.7,10.1z
				"/>
		</g>
	</g>
	<g>
		<g>
			<path class="st2" d="M17.2,11.3c-0.1,0-0.8-1.6-1.1-2.6c-0.1-0.2-0.1-0.4,0-0.4c0.1,0,0.3,0.1,0.3,0.3
				C16.8,9.6,17.3,11.3,17.2,11.3z"/>
		</g>
	</g>
	<g>
		<g>
			<path class="st2" d="M15.9,7.8c-0.1,0-0.4-0.6-0.6-1.1c0-0.1,0-0.2,0.1-0.2c0.1,0,0.2,0,0.2,0.1C15.9,7.1,16,7.8,15.9,7.8z"/>
		</g>
	</g>
	<g>
		<g>
			<path class="st2" d="M15.3,6.1c-0.1,0-0.4-0.5-0.5-0.8c0-0.1,0-0.1,0.1-0.2c0.1,0,0.2,0,0.2,0.1C15.3,5.5,15.4,6.1,15.3,6.1z"/>
		</g>
	</g>
	<g>
		<g>
			<path class="st2" d="M12.8,10.9c-0.1,0.1-0.8-0.7-1.3-1.2c-0.1-0.1-0.1-0.2,0-0.3c0.1-0.1,0.2,0,0.3,0.1
				C12.2,10,12.9,10.9,12.8,10.9z"/>
		</g>
	</g>
	<g>
		<g>
			<path class="st2" d="M11.2,9.1c-0.1,0.1-0.4-0.2-0.6-0.4c0,0,0-0.1,0.1-0.2c0.1-0.1,0.2-0.1,0.2-0.1C11.1,8.6,11.3,9,11.2,9.1z"
				/>
		</g>
	</g>
	<g>
		<g>
			<path class="st2" d="M10.4,8.1C10.4,8.2,10.1,8,10,7.9c0,0,0-0.1,0.1-0.2c0.1-0.1,0.2-0.1,0.2-0.1C10.4,7.8,10.5,8.1,10.4,8.1z"
				/>
		</g>
	</g>
	<g>
		<g>
			<path class="st2" d="M18.4,8.6c-0.1,0-0.4-1-0.5-1.7c0-0.2,0-0.2,0.1-0.3c0.1,0,0.2,0.1,0.2,0.2C18.4,7.5,18.5,8.6,18.4,8.6z"/>
		</g>
	</g>
	<g>
		<g>
			<path class="st2" d="M18,6.2c-0.1,0-0.3-0.4-0.3-0.6c0-0.1,0.1-0.1,0.2-0.1c0.1,0,0.2,0,0.2,0.1C18.1,5.8,18.1,6.2,18,6.2z"/>
		</g>
	</g>
	<g>
		<g>
			<path class="st2" d="M17.8,5c-0.1,0-0.2-0.2-0.3-0.4c0,0,0.1-0.1,0.2-0.1c0.1,0,0.2,0,0.2,0C17.9,4.7,17.9,5,17.8,5z"/>
		</g>
	</g>
</g>
<g>
	<g>
		<path class="st2" d="M0.5,27.6c0,0.8,0.6,1.4,1.3,1.4l5.8-0.2c0.7,0,1.3-0.4,1.3-1.2l0,0c0-0.8-0.6-1.2-1.3-1.2l-5.8-0.2
			C1.1,26.3,0.5,26.9,0.5,27.6L0.5,27.6z"/>
	</g>
	<g>
		<path class="st2" d="M39.6,27.6c0,0.8-0.6,1.4-1.3,1.4l-6-0.2c-0.7,0-1.3-0.4-1.3-1.2l0,0c0-0.8,0.6-1.2,1.3-1.2l6-0.2
			C39.1,26.3,39.6,26.9,39.6,27.6L39.6,27.6z"/>
	</g>
</g>
<g>
	<path class="st2" d="M18.3,25c0,0.2-0.2,0.4-0.4,0.4H8.7c-0.2,0-0.4-0.2-0.4-0.4l0,0c0-0.2,0.2-0.4,0.4-0.4h9.2
		C18.1,24.7,18.3,24.8,18.3,25L18.3,25z"/>
</g>
<g>
	<path class="st2" d="M8.2,22.2c0,0,0,0.1,0,0.1h0c0.2-6.4,5.5-11.5,11.9-11.5c6.5,0,11.7,5.1,11.9,11.5h0c0,0,0-0.1,0-0.1
		c0-6.6-5.3-11.9-11.9-11.9C13.5,10.2,8.2,15.6,8.2,22.2z"/>
</g>
<g>
	<g>
		<path class="st2" d="M12.5,18c0,0.7,0.6,1.3,1.3,1.3c0.7,0,1.3-0.6,1.3-1.3c0-0.7-0.6-1.3-1.3-1.3C13.1,16.7,12.5,17.3,12.5,18z
			 M14.5,18c0,0.3-0.3,0.6-0.6,0.6c-0.3,0-0.6-0.3-0.6-0.6c0-0.3,0.3-0.6,0.6-0.6C14.2,17.4,14.5,17.7,14.5,18z"/>
	</g>
	<g>
		<path class="st2" d="M12.9,18c0,0.5,0.4,0.9,0.9,0.9c0.5,0,0.9-0.4,0.9-0.9c0-0.5-0.4-0.9-0.9-0.9C13.4,17.1,12.9,17.5,12.9,18z
			 M14.5,18c0,0.3-0.3,0.6-0.6,0.6c-0.3,0-0.6-0.3-0.6-0.6c0-0.3,0.3-0.6,0.6-0.6C14.2,17.4,14.5,17.7,14.5,18z"/>
	</g>
</g>
<g>
	<path class="st2" d="M17.1,13.6c-0.1,0-0.3-0.1-0.4-0.1c-0.9,0-1.6,0.7-1.6,1.6c0,0.9,0.7,1.6,1.6,1.6c0.1,0,0.3,0,0.4-0.1
		c0.2,0.6,0.8,1,1.5,1c0.9,0,1.6-0.7,1.6-1.6c0-0.3-0.1-0.6-0.3-0.9c0.2-0.3,0.3-0.6,0.3-0.9c0-0.9-0.7-1.6-1.6-1.6
		C17.9,12.7,17.4,13,17.1,13.6z M19.7,14.3c0,0.4-0.2,0.7-0.4,0.9c0.3,0.2,0.4,0.5,0.4,0.9c0,0.6-0.5,1.2-1.1,1.2
		c-0.6,0-1.1-0.5-1.1-1.2c0,0,0-0.1,0-0.1c-0.2,0.2-0.5,0.3-0.8,0.3c-0.6,0-1.1-0.5-1.1-1.2c0-0.6,0.5-1.2,1.1-1.2
		c0.3,0,0.6,0.1,0.8,0.3c0-0.6,0.5-1.1,1.1-1.1C19.2,13.1,19.7,13.7,19.7,14.3z"/>
</g>
<g>
	<g>
		<path class="st2" d="M27.2,19C26.1,21.6,30,22,30,22C29.4,20.8,27.2,19,27.2,19z"/>
	</g>
	<g>
		<path class="st2" d="M29.9,20.9c-0.5-2.4-2.7-1.8-2.7-1.8s2.1,1.8,2.7,2.9C30.1,21.6,29.9,20.9,29.9,20.9z"/>
	</g>
</g>
<g>
	<g>
		<path class="st2" d="M16.3,18.7c-0.9,2.7,3,2.6,3,2.6C18.6,20.3,16.3,18.7,16.3,18.7z"/>
	</g>
	<g>
		<path class="st2" d="M19.2,20.3c-0.7-2.3-2.8-1.6-2.8-1.6s2.3,1.6,3,2.6C19.5,21,19.2,20.3,19.2,20.3z"/>
	</g>
</g>
<g>
	<g>
		<path class="st2" d="M20.1,18.6c0,1,0.8,1.8,1.8,1.8c1,0,1.9-0.9,1.9-1.9c0-0.9-0.8-1.7-1.9-1.7C20.9,16.8,20.1,17.6,20.1,18.6z
			 M23.6,18.6c0,0.9-0.8,1.8-1.7,1.8c-0.9,0-1.7-0.8-1.7-1.7c0-0.9,0.8-1.7,1.7-1.7C22.8,17,23.6,17.7,23.6,18.6z"/>
	</g>
	<g>
		<path class="st2" d="M20.2,18.6c0,0.9,0.8,1.7,1.7,1.7c0.9,0,1.7-0.8,1.7-1.8c0-0.9-0.8-1.6-1.7-1.6C20.9,17,20.2,17.7,20.2,18.6z
			 M23.4,18.6c0,0.8-0.7,1.6-1.6,1.6c-0.8,0-1.5-0.7-1.5-1.5c0-0.8,0.7-1.5,1.5-1.5C22.7,17.1,23.4,17.7,23.4,18.6z"/>
	</g>
	<g>
		<g>
			<path class="st2" d="M23.5,18.6c0,0.9-0.8,1.7-1.7,1.7c-0.9,0-1.6-0.7-1.6-1.6c0-0.9,0.7-1.6,1.6-1.6
				C22.8,17,23.5,17.7,23.5,18.6z M20.3,18.6c0,0.9,0.7,1.5,1.5,1.5c0.8,0,1.6-0.8,1.6-1.6c0-0.8-0.7-1.5-1.6-1.5
				C21,17.1,20.3,17.8,20.3,18.6z"/>
		</g>
	</g>
</g>
<g>
	<g>
		<path class="st2" d="M23.4,14.1c0.7-0.7,2.1-0.6,3.1,0.4c1,1,1.2,2.3,0.5,3.1c-0.7,0.7-2.1,0.6-3.1-0.4
			C23,16.2,22.7,14.8,23.4,14.1z"/>
	</g>
	<g>
		<path class="st2" d="M23.4,14.3c0.7-0.7,2.1-0.6,3.1,0.4c1,1,1.2,2.3,0.5,3.1c-0.7,0.7-2.1,0.6-3.1-0.4
			C22.9,16.4,22.7,15,23.4,14.3z"/>
	</g>
	<g>
		<path class="st2" d="M24.1,17.1c-0.4-0.4-0.7-0.8-0.8-1.2c0.1,0.5,0.4,1,0.8,1.4c0.9,0.8,2,1,2.7,0.5C26.1,18.2,25,18,24.1,17.1z"
			/>
	</g>
	<g>
		<path class="st2" d="M26.4,14.9c-0.9-0.9-2.2-1-2.8-0.4c-0.3,0.3-0.4,0.9-0.3,1.4c0.2,0.4,0.4,0.8,0.8,1.2c0.9,0.8,2,1.1,2.7,0.7
			c0,0,0.1-0.1,0.1-0.1C27.6,17.1,27.3,15.8,26.4,14.9z"/>
	</g>
	<g>
		<path class="st2" d="M24,15.4c0.1-0.1,0.2,0,0.3,0.1c0.1,0.1,0,0.2-0.1,0.3c-0.1,0.1-0.2,0-0.3-0.1C23.8,15.6,23.9,15.5,24,15.4z"
			/>
	</g>
	<g>
		<path class="st2" d="M24.6,16.2c0.1,0,0.1,0,0.2,0c0,0.1,0,0.1,0,0.2c-0.1,0-0.1,0-0.2,0C24.5,16.3,24.5,16.2,24.6,16.2z"/>
	</g>
	<g>
		<path class="st2" d="M25.1,15.1c0.1,0,0.1,0,0.2,0c0,0.1,0,0.1,0,0.2c-0.1,0-0.1,0-0.2,0C25,15.2,25,15.1,25.1,15.1z"/>
	</g>
	<g>
		<path class="st2" d="M24.8,17.2c0.1,0,0.1,0,0.2,0c0,0.1,0,0.1,0,0.2c-0.1,0-0.1,0-0.2,0C24.7,17.3,24.8,17.2,24.8,17.2z"/>
	</g>
	<g>
		<path class="st2" d="M26.1,16.8c0.1,0,0.1,0,0.2,0c0,0.1,0,0.1,0,0.2c-0.1,0-0.1,0-0.2,0C26,16.9,26.1,16.8,26.1,16.8z"/>
	</g>
	<g>
		<path class="st2" d="M25.9,15.5c0.1,0,0.2,0,0.2,0.1c0.1,0.1,0,0.2,0,0.2c-0.1,0-0.2,0-0.2-0.1C25.8,15.6,25.8,15.5,25.9,15.5z"/>
	</g>
</g>
<path class="st2" d="M33.6,23.3c0-7.5-6.1-13.7-13.5-13.7c-7.5,0-13.5,6.1-13.5,13.7c0,0.1,0,0.1,0,0.2h2.5c0.2-6.3,5-11.3,11-11.3
	c6,0,10.9,5.1,11,11.3h2.5C33.6,23.4,33.6,23.4,33.6,23.3z"/>
<path class="st2" d="M11.8,24.9c0-0.1,0-0.2,0-0.3c0,0-0.1,0.1-0.2,0.2c0,0.1,0,0.2,0,0.2C11.7,25.1,11.8,25.1,11.8,24.9z"/>
<path class="st2" d="M12.7,25.1c0,0,0.1-0.1,0-0.2c0-0.1-0.1-0.1-0.2-0.2c0,0,0,0.1,0,0.3C12.5,25,12.6,25,12.7,25.1z"/>
<path class="st2" d="M22.8,24.9c0,0,0.1-0.1,0.1-0.2c0,0-0.1,0-0.3,0.1c-0.1,0-0.1,0.1-0.1,0.2C22.6,25,22.7,25.1,22.8,24.9z"/>
<path class="st2" d="M23.6,25.4c0-0.1,0-0.2,0-0.3c0,0-0.1,0.1-0.2,0.2c0,0.1,0,0.2,0,0.2C23.4,25.6,23.5,25.6,23.6,25.4z"/>
<path class="st2" d="M24.4,25.6c0,0,0.1-0.1,0-0.2c0-0.1-0.1-0.1-0.2-0.2c0,0,0,0.1,0,0.3C24.2,25.5,24.3,25.6,24.4,25.6z"/>
<path class="st2" d="M25.2,25c0,0,0-0.1-0.1-0.2c-0.1,0-0.1-0.1-0.3-0.1c0,0,0,0.1,0.1,0.2C25,25,25.1,25,25.2,25z"/>
<g>
	<g>
		<path class="st2" d="M20.1,38.4c-5,0-9.6-2.4-12.4-6.5c-0.1-0.2-0.1-0.4,0.1-0.5c0.2-0.1,0.4-0.1,0.5,0.1
			c2.7,3.9,7.1,6.2,11.8,6.2s9.1-2.3,11.8-6.2c0.1-0.2,0.4-0.2,0.5-0.1c0.2,0.1,0.2,0.4,0.1,0.5C29.7,36,25.1,38.4,20.1,38.4z"/>
	</g>
</g>
<g>
	<path class="st2" d="M27.9,25.9h-0.2v1.3h0.2c0.4,0,0.6-0.2,0.6-0.7C28.5,26.1,28.3,25.9,27.9,25.9z"/>
	<polygon class="st2" points="23.6,28.2 24.6,28.2 24.1,26.5 	"/>
	<path class="st2" d="M16.1,25.8c-0.2,0-0.3,0.1-0.4,0.3c-0.1,0.2-0.1,0.7-0.1,1.3c0,0.6,0,1.1,0.1,1.3c0.1,0.2,0.2,0.3,0.4,0.3
		c0.2,0,0.3-0.1,0.4-0.3c0.1-0.2,0.1-0.7,0.1-1.3c0-0.6,0-1.1-0.1-1.3C16.4,25.9,16.3,25.8,16.1,25.8z"/>
	<path class="st2" d="M31.5,24.3H8.7c-1.5,0-2.6,1.2-2.6,2.6v1.3c0,1.5,1.2,2.6,2.6,2.6h22.8c1.5,0,2.6-1.2,2.6-2.6v-1.3
		C34.1,25.5,32.9,24.3,31.5,24.3z M13.6,29.4h-0.8L11.2,27v2.4h-0.4v-3.8h0.7l1.7,2.6v-2.6h0.4V29.4z M16.1,29.4
		c-1.1,0-1.7-0.7-1.7-2c0-1.3,0.6-1.9,1.7-1.9c1.1,0,1.7,0.7,1.7,2C17.7,28.8,17.2,29.4,16.1,29.4z M21.6,29.4h-0.7l-0.5-2.1
		l-0.5,2.1h-0.7l-1-3.8h1.1l0.6,2.3l0.6-2.3H21l0.6,2.3l0.6-2.3h0.4L21.6,29.4z M24.9,29.4l-0.2-0.8h-1.1l-0.2,0.8h-0.4l1.1-3.8h1
		l1.1,3.8H24.9z M28.5,29.4c-0.1-0.2-0.1-0.4-0.1-0.7l0-0.2l0-0.3c0-0.4-0.2-0.7-0.5-0.7h-0.2v1.8h-1.1v-3.8h1.6
		c0.4,0,0.8,0.1,1,0.3c0.3,0.2,0.4,0.4,0.4,0.7c0,0.5-0.3,0.8-0.8,0.9c0.3,0.1,0.5,0.2,0.5,0.3c0.1,0.1,0.1,0.4,0.2,0.7
		c0,0.4,0.1,0.7,0.2,0.8H28.5z"/>
</g>
<g>
	<g>
		<path class="st2" d="M10.6,21.7c0-1,1.2-1.8,2.6-1.8c1.4,0,2.5,0.9,2.5,1.9c0,1-1.2,1.8-2.6,1.8C11.7,23.6,10.6,22.7,10.6,21.7z"
			/>
	</g>
	<g>
		<path class="st2" d="M10.7,21.9c0-1,1.2-1.8,2.6-1.8c1.4,0,2.5,0.9,2.5,1.9c0,1-1.2,1.8-2.6,1.8C11.8,23.7,10.7,22.9,10.7,21.9z"
			/>
	</g>
	<g>
		<path class="st2" d="M13.2,23.5c-0.5,0-1-0.1-1.4-0.3c0.4,0.3,1,0.5,1.6,0.5c1.2,0,2.2-0.6,2.3-1.4C15.4,23,14.4,23.5,13.2,23.5z"
			/>
	</g>
	<g>
		<path class="st2" d="M13.4,20.3c-1.3,0-2.3,0.7-2.3,1.6c0,0.5,0.3,0.9,0.7,1.2c0.4,0.2,0.9,0.3,1.4,0.3c1.2,0,2.2-0.5,2.5-1.3
			c0-0.1,0-0.1,0-0.2C15.7,21.1,14.7,20.3,13.4,20.3z"/>
	</g>
	<g>
		<path class="st2" d="M12,22.3c0-0.1,0.1-0.2,0.3-0.1c0.1,0,0.2,0.1,0.2,0.3c0,0.1-0.1,0.2-0.3,0.1C12,22.6,11.9,22.4,12,22.3z"/>
	</g>
	<g>
		<path class="st2" d="M12.9,22.5c0-0.1,0.1-0.1,0.2-0.1c0.1,0,0.1,0.1,0.1,0.2c0,0.1-0.1,0.1-0.2,0.1C13,22.6,12.9,22.6,12.9,22.5z
			"/>
	</g>
	<g>
		<path class="st2" d="M12.5,21.3c0-0.1,0.1-0.1,0.2-0.1c0.1,0,0.1,0.1,0.1,0.2c0,0.1-0.1,0.1-0.2,0.1
			C12.6,21.5,12.5,21.4,12.5,21.3z"/>
	</g>
	<g>
		<path class="st2" d="M13.8,23c0-0.1,0.1-0.1,0.2-0.1C14,23,14,23,14,23.1c0,0.1-0.1,0.1-0.2,0.1C13.8,23.2,13.7,23.1,13.8,23z"/>
	</g>
	<g>
		<path class="st2" d="M14.5,21.9c0-0.1,0.1-0.1,0.2-0.1c0.1,0,0.1,0.1,0.1,0.2c0,0.1-0.1,0.1-0.2,0.1C14.5,22,14.5,22,14.5,21.9z"
			/>
	</g>
	<g>
		<path class="st2" d="M13.4,21.1c0-0.1,0.1-0.1,0.2-0.1c0.1,0,0.1,0.1,0.1,0.2c0,0.1-0.1,0.1-0.2,0.1
			C13.4,21.2,13.4,21.2,13.4,21.1z"/>
	</g>
</g>
<g>
	<g>
		<path class="st2" d="M23.5,21.8c0,0.7,0.6,1.3,1.3,1.3c0.7,0,1.3-0.6,1.3-1.3c0-0.7-0.6-1.3-1.3-1.3
			C24.1,20.5,23.5,21.1,23.5,21.8z M25.4,21.8c0,0.3-0.3,0.6-0.6,0.6c-0.3,0-0.6-0.3-0.6-0.6c0-0.3,0.3-0.6,0.6-0.6
			C25.2,21.2,25.4,21.5,25.4,21.8z"/>
	</g>
	<g>
		<path class="st2" d="M23.9,21.8c0,0.5,0.4,0.9,0.9,0.9c0.5,0,0.9-0.4,0.9-0.9c0-0.5-0.4-0.9-0.9-0.9
			C24.3,20.9,23.9,21.3,23.9,21.8z M25.4,21.8c0,0.3-0.3,0.6-0.6,0.6c-0.3,0-0.6-0.3-0.6-0.6c0-0.3,0.3-0.6,0.6-0.6
			C25.2,21.2,25.4,21.5,25.4,21.8z"/>
	</g>
</g>
</svg>
