<?xml version="1.0" encoding="utf-8"?>
<!-- Generator: Adobe Illustrator 25.2.0, SVG Export Plug-In . SVG Version: 6.00 Build 0)  -->
<svg version="1.1" id="Layer_1" xmlns="http://www.w3.org/2000/svg" xmlns:xlink="http://www.w3.org/1999/xlink" x="0px" y="0px"
	 viewBox="0 0 82.6 40" style="enable-background:new 0 0 82.6 40;" xml:space="preserve">
<style type="text/css">
	.st0{clip-path:url(#SVGID_2_);}
	.st1{clip-path:url(#SVGID_4_);fill:#FFFFFF;}
	.st2{fill:#FFFFFF;}
	.st3{clip-path:url(#SVGID_6_);}
	.st4{clip-path:url(#SVGID_8_);fill:#FFFFFF;}
	.st5{clip-path:url(#SVGID_10_);}
</style>
<g>
	<defs>
		<path id="SVGID_1_" d="M50.9,570.4c-1.7-4.6-5.5-7.2-5.5-7.2l-0.4,8.7l1.9-0.5c-0.5,2.2-2.6,4.2-5.9,5.5c-2.7,0.9-8.5,2.1-8.5-1.3
			c0-0.3,0-0.5,0-0.6v-20.4h4v-2.2h-4v-2.7c2.3-0.6,4-2.7,4-5.2c0-3-2.4-5.4-5.4-5.4c-3,0-5.4,2.4-5.4,5.4c0,2.5,1.7,4.6,4,5.2v2.7
			h-4v2.2h4v21c0,3.4-5.8,2.1-8.5,1.2c-3.3-1.3-5.4-3.3-5.9-5.5l2.1,0.5l-0.4-8.7c0,0-3.8,2.6-5.5,7.2l2.2,0.6
			c-0.2,0.7-0.3,1.6-0.3,2.5c0,4.4,6.2,8.2,15.1,8.9c0,0,0,0,0,0c2.5,0.1,2.6,2.6,2.6,2.6s0.1-2.5,2.6-2.6c0,0,0,0,0,0
			c8.9-0.6,15.1-4.5,15.1-8.9c0-0.9-0.1-1.7-0.3-2.4L50.9,570.4z M28.1,544.5c0-1.6,1.3-2.9,2.9-2.9c1.6,0,2.9,1.3,2.9,2.9
			c0,1.6-1.3,2.9-2.9,2.9C29.4,547.5,28.1,546.1,28.1,544.5z"/>
	</defs>
	<clipPath id="SVGID_2_">
		<use xlink:href="#SVGID_1_"  style="overflow:visible;"/>
	</clipPath>
	<g class="st0">
		<defs>
			<rect id="SVGID_3_" x="-1462.6" y="-2494.9" width="2859" height="5136"/>
		</defs>
		<clipPath id="SVGID_4_">
			<use xlink:href="#SVGID_3_"  style="overflow:visible;"/>
		</clipPath>
	</g>
</g>
<g>
	<defs>
		<path id="SVGID_5_" d="M161.9,574.1c-1.7-4.6-5.5-7.2-5.5-7.2l-0.4,8.7l1.9-0.5c-0.5,2.2-2.6,4.2-5.9,5.5
			c-2.7,0.9-8.5,2.1-8.5-1.3c0-0.3,0-0.5,0-0.6v-20.4h4v-2.2h-4v-2.7c2.3-0.6,4-2.7,4-5.2c0-3-2.4-5.4-5.4-5.4c-3,0-5.4,2.4-5.4,5.4
			c0,2.5,1.7,4.6,4,5.2v2.7h-4v2.2h4v21c0,3.4-5.8,2.1-8.5,1.2c-3.3-1.3-5.4-3.3-5.9-5.5l2.1,0.5l-0.4-8.7c0,0-3.8,2.6-5.5,7.2
			l2.2,0.6c-0.2,0.7-0.3,1.6-0.3,2.5c0,4.4,6.2,8.2,15.1,8.9c0,0,0,0,0,0c2.5,0.1,2.6,2.6,2.6,2.6s0.1-2.5,2.6-2.6c0,0,0,0,0,0
			c8.9-0.6,15.1-4.5,15.1-8.9c0-0.9-0.1-1.7-0.3-2.4L161.9,574.1z M139.2,548.2c0-1.6,1.3-2.9,2.9-2.9c1.6,0,2.9,1.3,2.9,2.9
			c0,1.6-1.3,2.9-2.9,2.9C140.5,551.1,139.2,549.8,139.2,548.2z"/>
	</defs>
	<clipPath id="SVGID_6_">
		<use xlink:href="#SVGID_5_"  style="overflow:visible;"/>
	</clipPath>
	<g class="st3">
		<defs>
			<rect id="SVGID_7_" x="-1351.5" y="-2491.2" width="2859" height="5136"/>
		</defs>
		<clipPath id="SVGID_8_">
			<use xlink:href="#SVGID_7_"  style="overflow:visible;"/>
		</clipPath>
	</g>
</g>
<g>
	<g>
		<path class="st2" d="M8,29.8c0.8,0,1.5,0.6,1.6,1.4c0,0.8-0.6,1.5-1.4,1.6c-0.1,0-0.1,0-0.2,0H7v-3H8z M8,32.7
			c0.7,0,1.3-0.7,1.3-1.4c0-0.7-0.6-1.2-1.3-1.3H7.2v2.7H8z"/>
		<path class="st2" d="M8.1,32.9C8.1,32.9,8.1,32.9,8.1,32.9l-1.2,0v-3.1H8c0,0,0.1,0,0.1,0c0.8,0,1.5,0.6,1.6,1.5
			C9.8,32.1,9.1,32.8,8.1,32.9C8.2,32.9,8.2,32.9,8.1,32.9z M7.1,32.8h1c0.1,0,0.1,0,0.2,0c0.4,0,0.7-0.2,1-0.5
			c0.3-0.3,0.4-0.7,0.4-1.1c0-0.8-0.7-1.4-1.5-1.4h-1V32.8z M8.1,32.7H7.1v-2.8H8c0.7,0,1.3,0.6,1.3,1.3C9.4,32,8.8,32.7,8.1,32.7
			L8.1,32.7z M7.2,32.6H8c0.7,0,1.3-0.7,1.2-1.4C9.2,30.6,8.7,30,8,30H7.2V32.6z"/>
	</g>
	<g>
		<path class="st2" d="M11.9,32.6l-0.5-0.7c-0.2-0.3-0.4-0.3-0.8-0.3h-0.4v1.3h-0.2v-3h1.1c0.5-0.1,1,0.3,1,0.8c0,0,0,0,0,0.1
			c0,0.3-0.1,0.5-0.3,0.7c-0.2,0.1-0.3,0.2-0.5,0.2l0,0c0.1,0.1,0.2,0.2,0.3,0.3l0.5,0.7c0.1,0.1,0.1,0.2,0.2,0.2h0v0.2h0
			C12.2,32.8,12,32.7,11.9,32.6z M11.2,31.4c0.4,0.1,0.8-0.2,0.9-0.6c0.1-0.4-0.2-0.8-0.6-0.9c-0.1,0-0.2,0-0.3,0h-0.9v1.4H11.2z"/>
		<path class="st2" d="M12.3,32.9c-0.2,0-0.3-0.1-0.4-0.2l-0.5-0.7c-0.2-0.3-0.4-0.3-0.8-0.3h-0.4v1.3H10v-3.1h1.1
			c0.3,0,0.5,0,0.7,0.2c0.2,0.2,0.3,0.4,0.4,0.6c0,0,0,0,0,0.1c0,0.3-0.1,0.5-0.3,0.7c-0.1,0.1-0.3,0.1-0.4,0.2
			c0.1,0.1,0.1,0.1,0.2,0.2l0.5,0.7c0.1,0.1,0.1,0.1,0.2,0.1h0.1v0.3L12.3,32.9C12.3,32.9,12.3,32.9,12.3,32.9z M10.2,31.5h0.5
			c0.4,0,0.6,0,0.8,0.3l0.5,0.7c0.1,0.1,0.2,0.2,0.3,0.2v-0.1c-0.1,0-0.2-0.1-0.3-0.2l-0.5-0.7c-0.1-0.1-0.2-0.2-0.3-0.2l-0.2-0.1
			l0.2,0c0,0-0.1,0-0.1,0L10.2,31.5l0-1.6h1c0.1,0,0.2,0,0.3,0c0.4,0.1,0.7,0.5,0.6,0.9c-0.1,0.3-0.3,0.5-0.6,0.6
			c0.1,0,0.2-0.1,0.3-0.1c0.2-0.1,0.3-0.4,0.3-0.6c0,0,0,0,0-0.1c0-0.2-0.1-0.4-0.3-0.6c-0.2-0.1-0.4-0.2-0.6-0.2h-1v2.9h0V31.5z
			 M10.3,31.3l0.9,0c0.4,0.1,0.7-0.2,0.8-0.5c0.1-0.4-0.2-0.7-0.5-0.8c-0.1,0-0.2,0-0.3,0l-0.9,0V31.3z"/>
	</g>
	<g>
		<path class="st2" d="M13.7,32.9c-0.6,0-1.1-0.5-1.1-1.1v-1.9h0.2v1.9c0,0.5,0.4,1,1,1c0.5,0,1-0.4,1-1v-1.9h0.2v1.9
			C14.9,32.4,14.4,32.9,13.7,32.9z"/>
		<path class="st2" d="M13.7,32.9c-0.6,0-1.2-0.5-1.2-1.2v-2h0.3v2c0,0.2,0.1,0.5,0.3,0.6c0.2,0.2,0.4,0.3,0.6,0.3c0,0,0,0,0,0
			c0.5,0,0.9-0.4,0.9-0.9v-2h0.3v2C14.9,32.4,14.4,32.9,13.7,32.9z M12.7,29.8v1.9c0,0.6,0.5,1.1,1.1,1.1c0.6,0,1.1-0.5,1.1-1.1
			v-1.9h-0.1v1.9c0,0.6-0.5,1-1,1c0,0,0,0,0,0c-0.3,0-0.5-0.1-0.7-0.3c-0.2-0.2-0.3-0.4-0.3-0.7L12.7,29.8L12.7,29.8z"/>
	</g>
	<g>
		<path class="st2" d="M15.5,32.8v-3h0.2v2.1l1.8-2.1l0.1,0.1l-1.2,1.4l1.1,1.3c0.1,0.1,0.2,0.2,0.3,0.2h0v0.2h0
			c-0.2,0-0.3-0.1-0.4-0.2l-1.1-1.2l-0.6,0.7v0.7H15.5z"/>
		<path class="st2" d="M17.8,32.9L17.8,32.9c-0.3,0-0.4-0.1-0.5-0.2l-1-1.2l-0.6,0.7v0.8h-0.3v-3.1h0.3v2l1.7-2l0.2,0.2l0,0
			l-1.1,1.3l1,1.2c0.1,0.1,0.1,0.1,0.2,0.1h0.1V32.9z M16.2,31.3L16.2,31.3l1.1,1.3c0.1,0.1,0.2,0.2,0.3,0.2v-0.1
			c-0.1,0-0.2-0.1-0.3-0.2L16.2,31.3L16.2,31.3l1.2-1.4l0,0L15.6,32v-2.2h-0.1v2.9h0.1v-0.7l0,0L16.2,31.3z"/>
	</g>
	<g>
		<path class="st2" d="M18.2,32.8L18,32.8l1.2-3h0.1l1.2,3l-0.2,0.1L20.1,32h-1.6L18.2,32.8z M20,31.9L19.3,30l-0.7,1.8H20z"/>
		<path class="st2" d="M20.3,32.9L20,32.1h-1.5l-0.3,0.8l-0.3-0.1l1.2-3.1h0.2l1.2,3.1L20.3,32.9z M18.4,32h1.6l0.3,0.8l0.1,0
			l-1.2-3h0l-1.2,2.9l0.1,0L18.4,32z M20.1,31.9h-1.6l0.8-2L20.1,31.9z M18.6,31.8h1.3l-0.7-1.6L18.6,31.8z"/>
	</g>
	<g>
		<path class="st2" d="M22.8,32.6l-0.5-0.7c-0.2-0.3-0.4-0.3-0.8-0.3h-0.4v1.3H21v-3h1.1c0.5-0.1,1,0.3,1,0.8c0,0,0,0,0,0.1
			c0,0.3-0.1,0.5-0.3,0.7c-0.2,0.1-0.3,0.2-0.5,0.2l0,0c0.1,0.1,0.2,0.2,0.3,0.3l0.5,0.7c0.1,0.1,0.1,0.2,0.2,0.2l0,0v0.2l0,0
			C23.1,32.8,22.9,32.7,22.8,32.6z M22.1,31.4c0.4,0.1,0.8-0.2,0.9-0.6c0.1-0.4-0.2-0.8-0.6-0.9c-0.1,0-0.2,0-0.3,0h-0.9v1.4H22.1z"
			/>
		<path class="st2" d="M23.2,32.9c-0.2,0-0.3-0.1-0.4-0.3l-0.5-0.7c-0.2-0.3-0.4-0.3-0.8-0.3h-0.4v1.3H21v-3.1h1.1
			c0.3,0,0.5,0,0.7,0.2c0.2,0.2,0.3,0.4,0.4,0.6c0,0,0,0,0,0.1c0,0.3-0.1,0.5-0.3,0.7c-0.1,0.1-0.3,0.1-0.4,0.2
			c0.1,0.1,0.1,0.1,0.2,0.2l0.5,0.7c0.1,0.1,0.1,0.1,0.2,0.1h0.1L23.2,32.9L23.2,32.9C23.2,32.9,23.2,32.9,23.2,32.9z M21.1,31.5
			h0.5c0.4,0,0.6,0,0.8,0.3l0.5,0.7c0.1,0.1,0.2,0.2,0.3,0.2v-0.1c-0.1,0-0.2-0.1-0.2-0.2l-0.5-0.7c-0.1-0.1-0.2-0.2-0.3-0.2
			L22,31.5l0.2,0c0,0-0.1,0-0.1,0L21.1,31.5v-1.6h1c0.1,0,0.2,0,0.3,0c0.2,0,0.4,0.2,0.5,0.3c0.1,0.2,0.2,0.4,0.1,0.6
			c-0.1,0.3-0.3,0.5-0.6,0.6c0.1,0,0.2-0.1,0.3-0.1c0.2-0.1,0.3-0.4,0.3-0.6c0,0,0,0,0-0.1c-0.1-0.5-0.5-0.8-1-0.8h-1v2.9h0V31.5z
			 M21.2,31.3l0.9,0c0.4,0.1,0.7-0.2,0.8-0.5c0-0.2,0-0.4-0.1-0.5c-0.1-0.1-0.3-0.3-0.4-0.3c-0.1,0-0.2,0-0.3,0l-0.9,0V31.3z"/>
	</g>
	<g>
		<path class="st2" d="M26,32.9h-0.2L23.9,30v2.8h-0.2v-3.1h0.2l1.9,2.8v-2.8H26V32.9z"/>
		<path class="st2" d="M26.1,32.9h-0.2L24,30.2v2.7h-0.3v-3.2H24l1.8,2.7v-2.7h0.3V32.9z M25.9,32.8L25.9,32.8l0.1-3h-0.1L25.9,32.8
			l-2-3h-0.1v3h0v-2.9L25.9,32.8z"/>
	</g>
	<g>
		<path class="st2" d="M26.7,32.8v-3h0.2v3H26.7z"/>
		<path class="st2" d="M26.9,32.9h-0.3v-3.1h0.3V32.9z M26.8,32.8L26.8,32.8l0.1-2.9h-0.1V32.8z"/>
	</g>
	<g>
		<path class="st2" d="M27.5,32.8l-0.2-0.1l1.2-3h0.1l1.2,3l-0.2,0.1L29.4,32h-1.6L27.5,32.8z M29.3,31.9L28.6,30l-0.7,1.8H29.3z"/>
		<path class="st2" d="M29.7,32.9l-0.3-0.8h-1.5l-0.3,0.8l-0.3-0.1l1.2-3.1h0.2l1.2,3.1L29.7,32.9z M27.8,32h1.6l0.3,0.8l0.1,0
			l-1.2-3h0l-1.2,2.9l0.1,0L27.8,32z M29.4,31.9h-1.6l0.8-2L29.4,31.9z M27.9,31.8h1.3l-0.7-1.6L27.9,31.8z"/>
	</g>
	<g>
		<path class="st2" d="M34.2,32c-0.1,0.5-0.5,0.9-1.1,0.8H32v-3h1c0.5,0,0.9,0.3,0.9,0.7c0,0.3-0.2,0.6-0.5,0.6l0,0
			C33.8,31.2,34.2,31.5,34.2,32z M32.9,31.1c0.5,0,0.8-0.3,0.8-0.6s-0.3-0.5-0.8-0.5h-0.8v1.1L32.9,31.1z M32.1,32.6h1.1
			c0.4,0,0.8-0.3,0.9-0.7c0-0.5-0.4-0.8-0.9-0.8h-1L32.1,32.6z"/>
		<path class="st2" d="M33.3,32.9c0,0-0.1,0-0.1,0h-1.2v-3.1h1c0.6,0,1,0.3,1,0.7c0,0.3-0.2,0.5-0.4,0.6c0.4,0.1,0.7,0.5,0.7,0.9
			l0,0l0,0C34.2,32.5,33.8,32.9,33.3,32.9z M32,32.8h1.1c0,0,0.1,0,0.1,0c0.5,0,0.8-0.3,0.9-0.8c0-0.4-0.4-0.8-0.8-0.8l-0.2,0
			l0.2-0.1c0.3-0.1,0.5-0.3,0.5-0.6c0-0.3-0.4-0.6-0.9-0.6H32V32.8z M33.3,32.7C33.2,32.7,33.2,32.7,33.3,32.7l-1.2,0v-1.5h1.1
			c0,0,0,0,0.1,0c0.5,0,0.8,0.3,0.9,0.8C34.1,32.4,33.7,32.7,33.3,32.7z M32.2,32.6h1c0.4,0,0.8-0.2,0.8-0.6c0-0.4-0.4-0.7-0.8-0.7
			h-1V32.6z M32.9,31.1l-0.8,0v-1.2H33c0.5,0,0.8,0.2,0.8,0.6C33.8,30.8,33.4,31.1,32.9,31.1z M32.2,31l0.7,0c0.4,0,0.8-0.2,0.8-0.5
			c0-0.3-0.3-0.5-0.7-0.5h-0.8V31z"/>
	</g>
	<g>
		<path class="st2" d="M34.7,32.8l-0.1-0.1l1.2-3h0.1l1.2,3l-0.2,0.1L36.6,32H35L34.7,32.8z M36.5,31.9L35.8,30l-0.7,1.8H36.5z"/>
		<path class="st2" d="M36.9,32.9l-0.3-0.8H35l-0.3,0.8l-0.2-0.1l1.2-3.1h0.2l1.2,3.1L36.9,32.9z M35,32h1.6l0.3,0.8l0.1,0l-1.2-3h0
			l-1.2,2.9l0,0L35,32z M36.6,31.9H35l0.8-2L36.6,31.9z M35.1,31.8h1.3l-0.7-1.6L35.1,31.8z"/>
	</g>
	<g>
		<path class="st2" d="M39.3,32.6l-0.5-0.7c-0.2-0.3-0.4-0.3-0.8-0.3h-0.4v1.3h-0.2v-3h1.1c0.5-0.1,1,0.3,1,0.8c0,0,0,0,0,0.1
			c0,0.3-0.1,0.5-0.3,0.7c-0.2,0.1-0.3,0.2-0.5,0.2l0,0c0.1,0.1,0.2,0.2,0.3,0.3l0.5,0.7c0.1,0.1,0.1,0.2,0.2,0.2l0,0v0.2l0,0
			C39.6,32.8,39.4,32.7,39.3,32.6z M38.6,31.4c0.4,0.1,0.8-0.2,0.9-0.6s-0.2-0.8-0.6-0.9c-0.1,0-0.2,0-0.3,0h-0.9v1.4H38.6z"/>
		<path class="st2" d="M39.7,32.9c-0.2,0-0.3-0.1-0.4-0.2l-0.5-0.7c-0.2-0.3-0.4-0.3-0.8-0.3h-0.3v1.3h-0.3v-3.1h1.1
			c0.3,0,0.5,0,0.7,0.2c0.2,0.2,0.3,0.4,0.4,0.6c0,0,0,0,0,0.1c0,0.3-0.1,0.5-0.4,0.7c-0.1,0.1-0.3,0.1-0.4,0.2
			c0.1,0.1,0.1,0.1,0.2,0.2l0.5,0.7c0.1,0.1,0.1,0.1,0.2,0.1h0.1v0.3L39.7,32.9C39.7,32.9,39.7,32.9,39.7,32.9z M37.6,31.5h0.4
			c0.4,0,0.6,0,0.8,0.3l0.5,0.7c0.1,0.1,0.2,0.2,0.3,0.2v-0.1c-0.1,0-0.2-0.1-0.2-0.2L39,31.8c-0.1-0.1-0.2-0.2-0.3-0.2l-0.2-0.1
			l0.1,0c0,0-0.1,0-0.1,0L37.6,31.5v-1.6h0.9c0.1,0,0.2,0,0.3,0c0.2,0,0.4,0.2,0.5,0.3c0.1,0.2,0.2,0.4,0.1,0.6
			c-0.1,0.3-0.3,0.6-0.6,0.6c0.1,0,0.3-0.1,0.4-0.1c0.2-0.1,0.3-0.4,0.3-0.6c0,0,0,0,0-0.1c0-0.2-0.1-0.4-0.3-0.6
			c-0.2-0.1-0.4-0.2-0.6-0.2h-1v2.9h0V31.5z M37.8,31.3l0.8,0c0.4,0.1,0.7-0.2,0.8-0.5c0-0.2,0-0.4-0.1-0.5C39.2,30.1,39,30,38.8,30
			c-0.1,0-0.2,0-0.3,0l-0.8,0V31.3z"/>
	</g>
	<g>
		<path class="st2" d="M41.3,29.8c0.8,0,1.5,0.8,1.4,1.6c0,0.8-0.7,1.4-1.4,1.4h-1.1v-3H41.3z M41.3,32.7c0.7,0,1.3-0.7,1.3-1.4
			c0-0.7-0.6-1.2-1.3-1.3h-0.9v2.7H41.3z"/>
		<path class="st2" d="M40.3,32.9L40.3,32.9l-0.1-3.1h1.1c0.9,0.1,1.5,0.8,1.5,1.7c0,0.8-0.7,1.4-1.5,1.5H40.3z M40.3,32.8h1
			c0.7,0,1.3-0.6,1.4-1.4c0-0.4-0.1-0.8-0.4-1.1c-0.3-0.3-0.6-0.5-1-0.5h-1V32.8z M41.3,32.7h-0.9v-2.8h0.9c0.7,0,1.3,0.6,1.3,1.3
			C42.7,32,42.1,32.7,41.3,32.7L41.3,32.7z M40.5,32.6h0.8c0.7,0,1.3-0.7,1.2-1.4c0-0.7-0.6-1.2-1.2-1.2h-0.8V32.6z"/>
	</g>
	<g>
		<path class="st2" d="M45.4,29.9l-1.9,2.8h2v0.2h-2.2v-0.1l1.9-2.8h-1.8v-0.2h2.1V29.9z"/>
		<path class="st2" d="M45.5,32.9h-2.4v-0.2L45,30h-1.8v-0.3h2.2v0.2l0,0l-1.8,2.7h1.9V32.9z M43.3,32.8h2.1v-0.1h-2l0.1-0.1
			l1.9-2.7v0h-2v0.1h1.9L45.2,30L43.3,32.8L43.3,32.8z"/>
	</g>
	<g>
		<path class="st2" d="M48.8,31.3c0,0.8-0.7,1.5-1.6,1.4c-0.8,0-1.5-0.7-1.4-1.6c0-0.8,0.7-1.4,1.5-1.4
			C48.2,29.8,48.9,30.5,48.8,31.3C48.8,31.3,48.8,31.3,48.8,31.3z M47.3,32.7c0.8,0,1.4-0.6,1.4-1.3c0-0.8-0.6-1.4-1.3-1.4
			S46,30.5,46,31.3c0,0,0,0,0,0C46,32.1,46.6,32.7,47.3,32.7L47.3,32.7z"/>
		<path class="st2" d="M47.3,32.8C47.3,32.8,47.3,32.8,47.3,32.8c-0.9,0-1.6-0.8-1.6-1.6c0-0.8,0.7-1.5,1.6-1.5
			c0.4,0,0.8,0.2,1.1,0.5c0.3,0.3,0.5,0.7,0.4,1.1v0C48.9,32.2,48.2,32.8,47.3,32.8z M47.4,30c-0.3,0-0.7,0.1-0.9,0.4
			c-0.3,0.2-0.4,0.6-0.4,0.9c0,0,0,0,0,0c0,0.7,0.6,1.3,1.3,1.3l0.1,0v0c0.7,0,1.3-0.6,1.3-1.3c0-0.4-0.1-0.7-0.4-1
			C48.1,30.1,47.8,30,47.4,30C47.4,30,47.4,30,47.4,30z M47.3,29.8c-0.8,0-1.4,0.6-1.5,1.4c0,0.6,0.3,1.1,0.8,1.4
			c-0.5-0.2-0.8-0.7-0.8-1.3c0,0,0,0,0,0C46,30.5,46.6,29.9,47.3,29.8C47.4,29.9,47.4,29.9,47.3,29.8c0.6,0.1,1.1,0.4,1.3,0.8
			c-0.1-0.1-0.2-0.3-0.3-0.4C48.1,30,47.7,29.8,47.3,29.8z"/>
	</g>
	<g>
		<path class="st2" d="M51,32.8v-3h0.2v2.1l1.8-2.1l0.1,0.1l-1.2,1.4l1.1,1.3c0.1,0.1,0.2,0.2,0.3,0.2h0v0.2h0
			c-0.2,0-0.3-0.1-0.4-0.2l-1.1-1.2l-0.6,0.7v0.7L51,32.8z"/>
		<path class="st2" d="M51.3,32.9l-0.3,0v-3.1h0.3v2l1.7-2l0.2,0.2l0,0L52,31.2l1,1.2c0.1,0.1,0.1,0.1,0.2,0.1h0.1v0.3h-0.1
			c-0.2,0-0.3-0.1-0.4-0.2l-1-1.2l-0.6,0.7V32.9z M51.1,32.8L51.1,32.8l0.1-0.7l0,0l0.7-0.8l1.1,1.3c0.1,0.1,0.2,0.2,0.3,0.2v0
			c-0.1,0-0.2-0.1-0.3-0.2l-1.1-1.3l0,0l1.1-1.3l0,0L51.1,32v-2.2h-0.1V32.8z"/>
	</g>
	<g>
		<path class="st2" d="M55.6,32.6l-0.5-0.7c-0.2-0.3-0.4-0.3-0.8-0.3H54v1.3h-0.2v-3h1.1c0.5-0.1,1,0.3,1,0.8c0,0,0,0,0,0.1
			c0,0.3-0.1,0.5-0.3,0.7c-0.2,0.1-0.3,0.2-0.5,0.2l0,0c0.1,0.1,0.2,0.2,0.3,0.3l0.5,0.7c0.1,0.1,0.1,0.2,0.2,0.2h0v0.2h0
			C55.9,32.8,55.7,32.7,55.6,32.6z M54.9,31.4c0.4,0.1,0.8-0.2,0.9-0.6s-0.2-0.8-0.6-0.9c-0.1,0-0.2,0-0.3,0H54v1.4H54.9z"/>
		<path class="st2" d="M56,32.9c-0.2,0-0.3-0.1-0.4-0.2l-0.5-0.7c-0.2-0.3-0.4-0.3-0.8-0.3H54v1.3h-0.3v-3.1h1.1
			c0.2,0,0.5,0,0.7,0.2c0.2,0.2,0.3,0.4,0.4,0.6c0,0,0,0,0,0.1c0,0.3-0.1,0.5-0.4,0.7c-0.1,0.1-0.3,0.1-0.4,0.2
			c0.1,0.1,0.1,0.1,0.2,0.2l0.5,0.7c0.1,0.1,0.1,0.1,0.2,0.1h0.1v0.3L56,32.9C56,32.9,56,32.9,56,32.9z M53.9,31.5h0.4
			c0.4,0,0.6,0,0.8,0.3l0.5,0.7c0.1,0.1,0.2,0.2,0.3,0.2c0,0,0,0,0,0v-0.1c-0.1,0-0.2-0.1-0.3-0.2l-0.5-0.7
			c-0.1-0.1-0.2-0.2-0.3-0.2l-0.2-0.1l0.1,0c0,0-0.1,0-0.1,0L53.9,31.5v-1.6h0.9c0.1,0,0.2,0,0.3,0c0.4,0.1,0.7,0.5,0.6,0.9
			c-0.1,0.3-0.3,0.5-0.6,0.6c0.1,0,0.2-0.1,0.3-0.1c0.2-0.1,0.3-0.4,0.3-0.6c0,0,0,0,0-0.1c0-0.2-0.1-0.4-0.3-0.6
			c-0.2-0.1-0.4-0.2-0.6-0.2h-1v2.9h0.1V31.5z M54,31.3l0.8,0c0.4,0.1,0.7-0.2,0.8-0.5c0-0.2,0-0.4-0.1-0.5
			c-0.1-0.1-0.3-0.3-0.4-0.3c-0.1,0-0.2,0-0.3,0L54,30V31.3z"/>
	</g>
	<g>
		<path class="st2" d="M56.7,31.2h1.1v0.2h-1.1v1.3h1.9v0.2h-2v-3h1.9v0.2h-1.8L56.7,31.2z"/>
		<path class="st2" d="M58.7,32.9h-2.1v-3.1h2V30h-1.8l0,1.2h1.1v0.3h-1.1v1.2h1.9V32.9z M56.7,32.8h1.9v-0.1L56.7,32.8l0-1.4h1.1
			v-0.1h-1.1l0-0.1l0-1.3h1.8v-0.1h-1.8V32.8z"/>
	</g>
	<g>
		<path class="st2" d="M59.1,32.8L59,32.8l1.2-3h0.1l1.2,3l-0.2,0.1L61,32h-1.6L59.1,32.8z M60.9,31.9L60.2,30l-0.7,1.8H60.9z"/>
		<path class="st2" d="M61.3,32.9L61,32.1h-1.5l-0.3,0.8l-0.3-0.1l1.2-3.1h0.2l0,0l1.2,3.1L61.3,32.9z M59.4,32H61l0.3,0.8l0.1,0
			l-1.2-3h-0.1l-1.2,3l0.1,0L59.4,32z M61,31.9h-1.6l0.8-2L61,31.9z M59.6,31.8h1.3l-0.6-1.6L59.6,31.8z"/>
	</g>
	<g>
		<path class="st2" d="M63.9,29.8v0.2h-1.1v2.9h-0.2v-2.9h-1.1v-0.2H63.9z"/>
		<path class="st2" d="M62.8,32.9h-0.3V30h-1.1v-0.3h2.5V30h-1.1V32.9z M62.6,32.8L62.6,32.8l0.1-2.9h1.1v-0.1h-2.3v0.1h1.1V32.8z"
			/>
	</g>
	<g>
		<path class="st2" d="M64.3,29.8l1.1,1.8l1.1-1.8l0.1,0.1l-1.2,1.9v1.1h-0.2v-1.1l-1.2-1.9L64.3,29.8z"/>
		<path class="st2" d="M65.6,32.9h-0.3v-1.1l-1.2-2l0.2-0.1l0,0l1.1,1.8l1.1-1.8l0.2,0.1l-1.2,2V32.9z M65.4,32.8L65.4,32.8l0.1-1
			l0,0l1.2-1.9l0,0l-1.2,1.9l-1.1-1.9l0,0l1.2,1.9V32.8z"/>
	</g>
	<g>
		<path class="st2" d="M67.1,29.8l1.1,2.8l0.8-2v-0.4h0.2v0.4l0.8,2l1.1-2.8l0.2,0.1l-1.1,3h-0.1L69,30.7l-0.8,2.1h-0.1l-1.1-3
			L67.1,29.8z"/>
		<path class="st2" d="M70,32.9h-0.2l-0.8-2l-0.8,2h-0.2l0,0l-1.1-3.1l0.2-0.1l1,2.7l0.7-1.9V30h0.3v0.5l0.7,1.9l1-2.7l0.3,0.1l0,0
			L70,32.9z M69.9,32.8L69.9,32.8l1.2-2.9l-0.1,0L69.9,32.8l-0.8-2.3v-0.4H69l0,0.4l-0.8,2.2l-1.1-2.9l0,0l1.1,2.9h0l0.8-2.2
			L69.9,32.8z"/>
	</g>
	<g>
		<path class="st2" d="M73.8,32.9h-0.2L71.7,30v2.8h-0.2v-3.1h0.2l1.9,2.8v-2.8h0.2L73.8,32.9z"/>
		<path class="st2" d="M73.8,32.9h-0.2l0,0l-1.8-2.7v2.7h-0.3v-3.2h0.2l0,0l1.8,2.7v-2.7h0.3V32.9z M73.6,32.8L73.6,32.8l0.1-3h-0.1
			L73.6,32.8l-2-3h-0.1v3h0.1v-2.9L73.6,32.8z"/>
	</g>
	<g>
		<path class="st2" d="M74.4,32.8l-0.2-0.1l1.2-3h0.1l1.2,3l-0.2,0.1L76.3,32h-1.6L74.4,32.8z M76.2,31.9L75.5,30l-0.7,1.8H76.2z"/>
		<path class="st2" d="M76.6,32.9l-0.3-0.8h-1.5l-0.3,0.8l-0.3-0.1l1.2-3.1h0.2l0,0l1.2,3.1L76.6,32.9z M74.3,32.8L74.3,32.8
			l0.4-0.8h1.6l0.3,0.8l0.1,0l-1.2-3h0L74.3,32.8z M76.3,31.9h-1.6l0.8-2L76.3,31.9z M74.8,31.8h1.3l-0.6-1.6L74.8,31.8z"/>
	</g>
	<g>
		<path class="st2" d="M74.7,14.3c-0.6,0.1-1.2,0.2-1.9,0.2c-0.6,0-1.3-0.1-1.9-0.2l-2.1-0.6l-5.3-1.5l-20-5.6
			c-1.1-0.2-2.3-0.2-3.4,0l-20.2,5.6l-5.3,1.5l0,0l-2.1,0.6c-1.2,0.3-2.5,0.3-3.7,0c-0.5-0.2-0.8-0.4-0.8-0.6c0,0,0,0,0,0
			c0.1-0.2,0.3-0.3,0.8-0.4l27.6-7.7l0.1,0l0.4-0.1l0,0L41.9,4H42h0.1c0.1,0,0.2,0,0.3,0l0,0l0,0l13.4,3.9l18.9,5.3
			c0.4,0.1,0.7,0.3,0.8,0.5c0,0,0,0,0,0C75.5,14,75.3,14.2,74.7,14.3z"/>
	</g>
	<g>
		<path class="st2" d="M2.8,16h4.3c1,0,2,0.3,2.7,0.9c1.3,1,1.4,2.9,0.4,4.2c-0.1,0.1-0.3,0.3-0.4,0.4c-0.8,0.6-1.7,1-2.7,0.9H5.9
			v1.6c0,0.6,0.3,0.9,1,0.9v0.1H2.8V25c0.7,0,1-0.3,1-0.9V17c0-0.5-0.4-0.8-1-0.8L2.8,16z M5.9,16.2v6.2h1.3c0.7,0,1.2-0.2,1.4-0.7
			C8.9,20.8,9,20,8.9,19.2c0.1-0.8-0.1-1.6-0.3-2.4c-0.3-0.5-0.9-0.8-1.4-0.7L5.9,16.2z"/>
		<path class="st2" d="M7,25.2H2.7v-0.3h0.1c0.6,0,0.9-0.3,0.9-0.8V17c0-0.6-0.5-0.7-0.9-0.7H2.7v-0.3h4.4c1,0,2,0.3,2.8,0.9
			c0.6,0.5,1,1.2,1.1,2.1c0.1,0.8-0.2,1.6-0.7,2.2c-0.1,0.1-0.3,0.3-0.4,0.4c-0.8,0.7-1.8,1-2.8,0.9H6v1.5c0,0.6,0.3,0.8,0.9,0.8H7
			V25.2z M3.2,25h3.3c-0.5-0.1-0.7-0.4-0.7-1v-7.9H3.2c0.5,0.1,0.7,0.4,0.7,0.9v7.1C3.9,24.6,3.7,24.9,3.2,25z M7.8,16.1
			c0.4,0.1,0.7,0.4,0.9,0.7C9,17.6,9.1,18.4,9,19.3c0.1,0.8-0.1,1.6-0.3,2.4c-0.2,0.4-0.5,0.6-1,0.7c0.8-0.1,1.5-0.4,2.1-0.9
			c0.1-0.1,0.3-0.2,0.4-0.4c0.5-0.6,0.7-1.3,0.6-2.1c-0.1-0.8-0.4-1.5-1-1.9C9.2,16.5,8.5,16.2,7.8,16.1z M6,22.2h1.2
			c0.7,0,1.2-0.2,1.4-0.7c0.3-0.7,0.4-1.5,0.3-2.3c0.1-0.8-0.1-1.6-0.3-2.3c-0.3-0.5-0.8-0.7-1.4-0.7l-1.2,0V22.2z"/>
	</g>
	<g>
		<path class="st2" d="M18.6,19.4c0,0.3-0.1,0.5-0.3,0.8c-0.2,0.2-0.4,0.3-0.7,0.3c-0.3,0-0.5-0.1-0.7-0.3c-0.2-0.2-0.3-0.5-0.3-0.8
			l0.1-0.5c0-0.4-0.2-0.5-0.5-0.5c-0.6,0-1.2,0.3-1.6,0.9v4.8c0,0.6,0.3,0.9,1,0.9v0.1h-4.1V25c0.7,0,1-0.3,1-0.9v-4.8
			c0-0.6-0.3-0.9-1-0.9v-0.1H14c0.1,0,0.2,0.1,0.2,0.2c0.1,0.1,0.2,0.3,0.2,0.4l0.1,0.2c0.3-0.3,0.6-0.5,0.9-0.7
			c0.5-0.2,0.9-0.3,1.4-0.3c0.4,0,0.9,0.1,1.2,0.4C18.4,18.7,18.6,19,18.6,19.4z"/>
		<path class="st2" d="M15.6,25.2h-4.2v-0.3h0.1c0.6,0,0.9-0.3,0.9-0.8v-4.8c0-0.6-0.3-0.8-0.9-0.8h-0.1v-0.3H14
			c0.1,0,0.2,0.1,0.3,0.3c0.1,0.1,0.2,0.3,0.2,0.4l0,0.1c0.2-0.2,0.5-0.4,0.8-0.6c0.5-0.2,1-0.3,1.5-0.3c0.4,0,0.9,0.1,1.3,0.4
			c0.4,0.2,0.6,0.6,0.6,1c0,0.3-0.1,0.6-0.3,0.8c-0.2,0.2-0.5,0.3-0.8,0.3c0,0,0,0,0,0c-0.3,0-0.6-0.1-0.8-0.3
			c-0.2-0.2-0.3-0.5-0.3-0.8l0.1-0.5c0-0.3-0.1-0.4-0.4-0.4c-0.6,0-1.2,0.3-1.5,0.8v4.8c0,0.6,0.3,0.8,0.9,0.8h0.1V25.2z M11.8,25
			h3.3c-0.5-0.1-0.7-0.4-0.7-1v-4.8l0,0c0,0,0,0,0,0l-0.1-0.3c0-0.1-0.1-0.3-0.2-0.4c-0.1-0.1-0.1-0.2-0.2-0.2h-2.2
			c0.5,0.1,0.7,0.4,0.7,1v4.8C12.6,24.6,12.3,24.9,11.8,25z M17.6,20.4c0.3,0,0.5-0.1,0.7-0.3c0.2-0.2,0.3-0.4,0.3-0.7v0
			c0-0.4-0.2-0.7-0.5-0.9c-0.4-0.2-0.8-0.3-1.2-0.3c-0.4,0-0.8,0-1.2,0.2c0.2,0,0.3-0.1,0.5-0.1h0c0.3,0,0.6,0.1,0.6,0.6l-0.1,0.5
			c0,0.3,0.1,0.5,0.3,0.7C17.1,20.3,17.3,20.4,17.6,20.4C17.6,20.4,17.6,20.4,17.6,20.4z"/>
	</g>
	<g>
		<path class="st2" d="M19,18.2h2.5c0.3,0,0.5,0.4,0.5,1.1V24c0,0.6,0.3,0.9,1,0.9v0.1H19V25c0.7,0,1-0.3,1-0.9v-4.8
			c0-0.6-0.3-0.9-1-0.9L19,18.2z M20.3,16.8c-0.4-0.4-0.4-1.1,0-1.5c0.4-0.4,1-0.4,1.4-0.1c0,0,0,0,0.1,0.1c0.4,0.4,0.4,1.1,0,1.5
			C21.4,17.2,20.8,17.2,20.3,16.8C20.3,16.8,20.3,16.8,20.3,16.8z"/>
		<path class="st2" d="M23.2,25.2h-4.3v-0.3H19c0.6,0,0.9-0.3,0.9-0.8v-4.8c0-0.6-0.3-0.8-0.9-0.8h-0.1v-0.3h2.6
			c0.3,0,0.6,0.2,0.6,1.1V24c0,0.6,0.3,0.8,0.9,0.8h0.1V25.2z M19.4,25h3.3c-0.5-0.1-0.7-0.4-0.7-1v-4.8c0-0.4-0.1-1-0.4-1h-2.3
			c0.5,0.1,0.8,0.4,0.8,1V24C20.1,24.6,19.8,24.9,19.4,25z M21,17.2c-0.3,0-0.5-0.1-0.7-0.3c0,0,0,0-0.1-0.1c-0.4-0.5-0.4-1.2,0-1.6
			c0.4-0.4,1.1-0.5,1.5-0.1c0,0,0,0,0.1,0.1c0.4,0.5,0.4,1.2,0,1.6C21.6,17,21.3,17.2,21,17.2C21,17.2,21,17.2,21,17.2z M21,15
			c-0.2,0-0.5,0.1-0.7,0.3c-0.4,0.4-0.4,1,0,1.4l0,0c0,0,0,0,0.1,0.1c0.4,0.3,0.9,0.3,1.3-0.1c0.4-0.4,0.4-1,0-1.4c0,0,0,0-0.1-0.1
			C21.5,15.1,21.2,15,21,15z"/>
	</g>
	<g>
		<path class="st2" d="M26.6,19.2v4.8c0,0.6,0.3,0.9,1,0.9v0.1h-4.1V25c0.7,0,1-0.3,1-0.9v-4.8c0-0.6-0.3-0.9-1-0.9v-0.1h2.5
			c0.1,0,0.2,0.1,0.3,0.2c0.1,0.1,0.2,0.2,0.2,0.2c0.4-0.3,0.8-0.5,1.3-0.5c2.2,0,3.3,0.8,3.3,2.5v3.5c0,0.6,0.3,0.9,1,0.9v0.1h-4.1
			V25c0.7,0,1-0.3,1-0.9v-3.4c0-1.7-0.4-2.5-1.3-2.5c-0.5,0-0.9,0.2-1.3,0.5C26.6,18.9,26.6,19.1,26.6,19.2z"/>
		<path class="st2" d="M32.3,25.2h-4.2v-0.3h0.1c0.6,0,0.9-0.3,0.9-0.8v-3.4c0-1.1-0.2-1.8-0.5-2.1c-0.2-0.2-0.4-0.3-0.6-0.3
			c0,0,0,0,0,0c-0.4,0-0.9,0.2-1.2,0.4c0,0.1,0,0.3,0,0.5v4.8c0,0.6,0.3,0.8,0.9,0.8h0.1v0.3h-4.2v-0.3h0.1c0.6,0,0.9-0.3,0.9-0.8
			v-4.8c0-0.6-0.3-0.8-0.9-0.8h-0.1v-0.3h2.6c0.1,0,0.2,0.1,0.3,0.2c0.1,0.1,0.1,0.1,0.1,0.1c0.4-0.3,0.8-0.4,1.3-0.5
			c2.3,0,3.4,0.9,3.4,2.6v3.5c0,0.6,0.3,0.8,0.9,0.8h0.1V25.2z M28.5,25.1h3.3c-0.5-0.1-0.7-0.4-0.7-1v-3.5c0-1.5-0.9-2.3-2.8-2.4
			c0.1,0.1,0.3,0.1,0.4,0.2c0.4,0.4,0.6,1.1,0.6,2.3v3.4C29.3,24.6,29,24.9,28.5,25.1z M23.9,25.1h3.3c-0.5-0.1-0.7-0.4-0.7-1v-4.8
			c0-0.2,0-0.4,0-0.5l0,0l0,0c0,0-0.1-0.1-0.2-0.2c-0.1-0.2-0.2-0.2-0.2-0.2h-2.2c0.5,0.1,0.7,0.4,0.7,1v4.8
			C24.7,24.6,24.4,24.9,23.9,25.1z"/>
	</g>
	<g>
		<path class="st2" d="M34.8,23.7c0,0.9,0.3,1.4,0.8,1.4c0.5,0,0.9-0.2,1.1-0.7l0.1,0.1c-0.2,0.5-0.7,0.8-1.2,0.8
			c-1.9,0-2.8-1.1-2.8-3.4v-2.6c0-0.6-0.3-0.9-1-0.9v-0.1h0.6c0.8,0,1.2-0.6,1.2-1.9h1.3v1.9h1.8v0.1h-1.8V23.7z"/>
		<path class="st2" d="M35.6,25.3C35.6,25.3,35.6,25.3,35.6,25.3c-2,0-3-1.2-3-3.4v-2.6c0-0.6-0.3-0.8-0.9-0.8h-0.1v-0.3h0.6
			c0.8,0,1.1-0.6,1.1-1.8v-0.1h1.4v1.9h1.8v0.3h-1.8v5.3c0,0.9,0.2,1.3,0.7,1.3c0.5,0,0.9-0.2,1-0.6l0-0.1l0.3,0.1l0,0.1
			C36.6,25,36.2,25.3,35.6,25.3z M32.1,18.3c0.5,0.1,0.7,0.4,0.7,1v2.6c0,2.1,0.8,3.1,2.4,3.3c-0.4-0.1-0.6-0.6-0.6-1.4v-5.5h0v-1.8
			h-1.1c0,1.2-0.5,1.9-1.3,1.9H32.1z"/>
	</g>
	<g>
		<path class="st2" d="M48.9,24.1v-3.9h-3.1v3.9c0,0.6,0.3,0.9,1,0.9v0.1h-4.1V25c0.7,0,1-0.3,1-0.9v-7c0-0.6-0.3-0.9-1-0.9V16h2.5
			c0.3,0,0.5,0.4,0.5,1.1v3h3.1v-2.9c0-0.6-0.3-0.9-1-0.9V16H52v0.1c-0.7,0-1,0.3-1,0.9v7c0,0.6,0.3,0.9,1,0.9v0.1h-4.1V25
			C48.5,25,48.9,24.7,48.9,24.1z"/>
		<path class="st2" d="M52,25.2h-4.3v-0.3h0.1c0.6,0,0.9-0.3,0.9-0.8v-3.8h-2.9v3.8c0,0.6,0.3,0.8,0.9,0.8h0.1v0.3h-4.2v-0.3h0.1
			c0.6,0,0.9-0.3,0.9-0.8v-7c0-0.6-0.3-0.8-0.9-0.8h-0.1v-0.3h2.6c0.3,0,0.6,0.2,0.6,1.1V20h2.9v-2.9c0-0.6-0.3-0.8-0.9-0.8h-0.1
			v-0.3H52v0.3H52c-0.6,0-0.9,0.3-0.9,0.8v7c0,0.6,0.3,0.8,0.9,0.8H52V25.2z M48.2,25h3.3c-0.5-0.1-0.7-0.4-0.7-1v-7
			c0-0.5,0.2-0.9,0.7-1h-3.3c0.5,0.1,0.7,0.4,0.7,1v3h0v3.9C49,24.6,48.7,24.9,48.2,25z M43.1,25h3.3c-0.5-0.1-0.7-0.4-0.7-1v-4h0
			v-3c0-0.4-0.1-1-0.4-1h-2.2c0.5,0.1,0.7,0.4,0.7,1v7C43.9,24.6,43.6,24.9,43.1,25z"/>
	</g>
	<g>
		<path class="st2" d="M66.1,19.2v4.8c0,0.6,0.3,0.9,1,0.9v0.1h-2.5c-0.1,0-0.2-0.1-0.3-0.2c-0.1-0.1-0.2-0.2-0.2-0.2
			c-0.4,0.3-0.8,0.5-1.3,0.5c-2.2,0-3.3-0.8-3.3-2.5v-3.5c0-0.6-0.3-0.9-1-0.9v-0.1H61c0.3,0,0.5,0.4,0.5,1.1v4.4
			c0,0.9,0.4,1.4,1.3,1.4c0.5,0,0.9-0.2,1.3-0.5c0-0.2,0-0.3,0-0.5v-4.8c0-0.6-0.3-0.9-1-0.9v-0.1h2.5
			C65.9,18.2,66.1,18.5,66.1,19.2z"/>
		<path class="st2" d="M62.8,25.3c-2.3,0-3.4-0.9-3.4-2.6v-3.5c0-0.6-0.3-0.8-0.9-0.8h-0.1v-0.3H61c0.2,0,0.6,0.1,0.6,1.1v4.4
			c0,0.9,0.4,1.3,1.2,1.3c0.4,0,0.9-0.2,1.2-0.4c0-0.1,0-0.1,0-0.2c0-0.1,0-0.2,0-0.3v-4.8c0-0.6-0.3-0.8-0.9-0.8h-0.1v-0.3h2.6
			c0.1,0,0.3,0,0.4,0.1c0.2,0.2,0.3,0.5,0.3,1v4.8c0,0.6,0.3,0.8,0.9,0.8h0.1v0.3h-2.6c-0.1,0-0.2-0.1-0.3-0.2
			c-0.1-0.1-0.1-0.1-0.1-0.1C63.7,25.1,63.2,25.3,62.8,25.3z M58.8,18.3c0.5,0.1,0.7,0.4,0.7,1v3.5c0,1.5,1,2.3,2.9,2.4
			c-0.7-0.1-1.1-0.6-1.1-1.5v-4.4c0-0.4-0.1-1-0.4-1H58.8z M64.1,24.6c0,0,0.1,0,0.2,0.2c0.1,0.1,0.2,0.2,0.2,0.2h2.2
			c-0.5-0.1-0.7-0.4-0.7-1v-4.8c0-0.5-0.1-0.8-0.2-0.9c-0.1-0.1-0.1-0.1-0.2-0.1h-2.1c0.5,0.1,0.7,0.4,0.7,1V24c0,0.1,0,0.2,0,0.3
			C64.1,24.4,64.2,24.5,64.1,24.6L64.1,24.6L64.1,24.6C64.1,24.6,64.1,24.6,64.1,24.6z"/>
	</g>
	<g>
		<path class="st2" d="M72.7,18.2h0.1l0.1,1.9h-0.1c-0.1-0.4-0.2-0.8-0.4-1.1c-0.2-0.3-0.4-0.5-0.7-0.6c-0.4-0.2-0.8-0.2-1.1-0.2
			c-0.3,0-0.7,0.1-0.9,0.3c-0.2,0.2-0.4,0.4-0.4,0.7c0,0.3,0.1,0.5,0.3,0.7c0.2,0.2,0.5,0.3,0.7,0.5l1.9,0.9c0.7,0.3,1.2,1,1.2,1.7
			c0,1.4-1,2.1-3.1,2.1c-0.3,0-0.6,0-0.9-0.1c-0.4-0.1-0.7-0.3-1.1-0.6c-0.1-0.1-0.2-0.1-0.3-0.1c-0.2,0-0.3,0.3-0.3,0.8h-0.1
			l0.1-2.1h0.1c0,0.2,0.1,0.4,0.1,0.5c0.2,0.6,0.7,1,1.2,1.3c0.4,0.2,0.8,0.3,1.2,0.3c0.9,0,1.3-0.3,1.3-1c0-0.5-0.3-0.9-0.7-1.1
			L69,22.1c-0.4-0.2-0.7-0.4-1-0.8c-0.2-0.3-0.3-0.7-0.3-1.1c0-0.6,0.3-1.2,0.8-1.6c0.6-0.4,1.3-0.6,2.1-0.6c0.4,0,0.7,0,1.1,0.2
			c0.2,0.1,0.5,0.2,0.7,0.2C72.5,18.4,72.7,18.4,72.7,18.2z"/>
		<path class="st2" d="M70.3,25.3C70.3,25.3,70.3,25.3,70.3,25.3c-0.3,0-0.6,0-0.9-0.1c-0.4-0.1-0.8-0.3-1.1-0.6
			c-0.1-0.1-0.2-0.1-0.3-0.1c-0.2,0-0.2,0.4-0.2,0.7v0.1h-0.3l0.1-2.2h0.3l0,0.1c0,0.2,0.1,0.3,0.1,0.5c0.2,0.5,0.6,1,1.2,1.2
			c0.4,0.2,0.7,0.2,1.1,0.2c0.8,0,1.2-0.3,1.2-0.9c0-0.5-0.3-0.9-0.7-1.1L69,22.1c-0.4-0.2-0.8-0.5-1-0.8c-0.2-0.3-0.4-0.7-0.3-1.1
			c0-0.7,0.3-1.3,0.8-1.6c0.6-0.4,1.4-0.6,2.1-0.6c0.4,0,0.7,0.1,1.1,0.2c0.2,0.1,0.5,0.2,0.7,0.2c0,0,0,0,0,0
			c0.2,0,0.3-0.1,0.3-0.1l0-0.1h0.3l0.1,2.1h-0.3l0-0.1c-0.1-0.4-0.2-0.7-0.4-1c-0.2-0.2-0.4-0.4-0.7-0.5c-0.3-0.2-0.7-0.2-1.1-0.2
			c-0.3,0-0.6,0.1-0.9,0.3c-0.2,0.2-0.3,0.4-0.3,0.6c0,0.2,0.1,0.5,0.3,0.6c0.2,0.2,0.5,0.3,0.7,0.4l1.9,0.9c0.7,0.3,1.2,1,1.2,1.8
			c0,0.6-0.2,1.1-0.5,1.5C72.4,25,71.5,25.3,70.3,25.3z M70.1,18.2c-0.6,0-1.1,0.2-1.6,0.5c-0.5,0.3-0.8,0.9-0.7,1.5
			c0,0.4,0.1,0.7,0.3,1c0.3,0.3,0.6,0.6,1,0.8l1.8,0.9c0.5,0.2,0.8,0.7,0.8,1.2c0,0.5-0.3,0.9-0.8,1c0.8-0.1,1.5-0.3,1.9-0.7
			c0.3-0.3,0.5-0.8,0.5-1.3c0-0.7-0.5-1.4-1.1-1.7l-1.9-0.9c-0.3-0.1-0.5-0.3-0.7-0.5c-0.2-0.2-0.3-0.5-0.3-0.8
			c0-0.3,0.2-0.6,0.4-0.8C69.7,18.3,69.9,18.2,70.1,18.2z M67.7,23.3l0,1.3c0.1-0.2,0.2-0.3,0.3-0.3c0.1,0,0.2,0,0.3,0.1
			c-0.2-0.2-0.4-0.5-0.5-0.8C67.7,23.5,67.7,23.4,67.7,23.3z M71.9,18.5c0.2,0.1,0.4,0.3,0.6,0.5c0.2,0.2,0.3,0.5,0.4,0.8l-0.1-1.4
			c-0.1,0.1-0.2,0.2-0.4,0.2C72.2,18.5,72,18.5,71.9,18.5z"/>
	</g>
	<g>
		<path class="st2" d="M77.4,25.2c-1,0.1-1.9-0.3-2.6-0.9c-0.6-0.7-1-1.7-0.9-2.6c-0.1-1,0.3-1.9,0.9-2.6c1.5-1.2,3.7-1.2,5.3,0
			c0.7,0.7,1,1.7,0.9,2.6h-5.1c0,1.6,0.1,2.5,0.3,2.7c0.3,0.4,0.8,0.7,1.3,0.7c0.6,0,1.3-0.2,1.8-0.5c0.5-0.3,1-0.8,1.3-1.3l0.1,0.1
			c-0.3,0.6-0.8,1-1.4,1.4C78.7,25,78.1,25.2,77.4,25.2z M75.9,21.5h3.1c0.1-0.8,0-1.7-0.2-2.5c-0.2-0.5-0.8-0.9-1.3-0.8
			c-0.5-0.1-1,0.2-1.2,0.7C75.9,19.8,75.8,20.6,75.9,21.5L75.9,21.5z"/>
		<path class="st2" d="M77.2,25.3c-0.9,0-1.8-0.3-2.5-1c-0.7-0.7-1-1.7-0.9-2.7c-0.1-1,0.3-2,1-2.7c1.6-1.3,3.8-1.3,5.4,0
			c0.7,0.7,1,1.7,1,2.7l0,0.1H76c0,1.9,0.1,2.5,0.2,2.6c0.3,0.4,0.7,0.6,1.2,0.6c0,0,0,0,0,0c0.6,0,1.2-0.2,1.7-0.5
			c0.5-0.3,1-0.7,1.3-1.3l0-0.1l0.2,0.2l0,0.1c-0.3,0.6-0.8,1-1.4,1.4c-0.6,0.3-1.2,0.5-1.9,0.5c0,0,0,0,0,0
			C77.3,25.3,77.3,25.3,77.2,25.3z M76.8,18.2c-0.7,0.1-1.3,0.4-1.9,0.9c-0.6,0.7-1,1.6-0.9,2.6c-0.1,0.9,0.3,1.9,0.9,2.6
			c0.6,0.5,1.4,0.9,2.2,0.9c-0.4-0.1-0.7-0.3-1-0.7c-0.2-0.3-0.3-1.2-0.3-2.8l0-0.1c0-0.9,0-1.8,0.3-2.6
			C76.2,18.6,76.5,18.3,76.8,18.2z M79,21.6h1.9c0-0.9-0.3-1.8-0.9-2.5c-0.6-0.5-1.3-0.8-2-0.9c0.4,0.1,0.7,0.4,0.9,0.8
			C79,19.8,79.1,20.7,79,21.6L79,21.6z M76,21.4h2.9c0-0.8,0-1.6-0.2-2.4c-0.2-0.5-0.7-0.8-1.2-0.7c-0.5-0.1-1,0.2-1.2,0.6
			C76,19.8,75.9,20.6,76,21.4z"/>
	</g>
	<g>
		<path class="st2" d="M57.2,19.2c-0.5-0.8-1-1.5-1.6-2.2c0-0.1-0.1-0.1-0.2-0.1c-0.1,0-0.1,0-0.2,0.1c-0.6,0.7-1.1,1.4-1.6,2.2
			c-0.8,1.2-1.2,2.3-1.2,3.1c0,1.7,1.4,3,3,3c1.7,0,3-1.3,3-3C58.4,21.5,58,20.5,57.2,19.2z M55.8,24.2c-0.2,0-0.3,0.1-0.5,0.1
			c-1.1,0.1-2-0.8-2.1-1.8c0,0,0,0,0,0c0-0.3,0.1-0.6,0.2-0.9c0-0.1,0.1-0.1,0.1-0.1c0.1,0,0.1,0.1,0.1,0.1c0,0.1,0,0.1,0,0.2
			c0.1,1.2,1,2.1,2.1,2.1c0.1,0,0.1,0,0.1,0.1C55.9,24.1,55.9,24.1,55.8,24.2C55.8,24.1,55.8,24.1,55.8,24.2L55.8,24.2z"/>
	</g>
</g>
</svg>
