<?xml version="1.0" encoding="utf-8"?>
<!-- Generator: Adobe Illustrator 25.2.0, SVG Export Plug-In . SVG Version: 6.00 Build 0)  -->
<svg version="1.1" id="Layer_1" xmlns="http://www.w3.org/2000/svg" xmlns:xlink="http://www.w3.org/1999/xlink" x="0px" y="0px"
	 viewBox="0 0 109.4 40" style="enable-background:new 0 0 109.4 40;" xml:space="preserve">
<style type="text/css">
	.st0{clip-path:url(#SVGID_2_);}
	.st1{clip-path:url(#SVGID_4_);fill:#FFFFFF;}
	.st2{fill:#FFFFFF;}
	.st3{clip-path:url(#SVGID_6_);}
	.st4{clip-path:url(#SVGID_8_);fill:#FFFFFF;}
	.st5{clip-path:url(#SVGID_10_);}
</style>
<g>
	<defs>
		<path id="SVGID_1_" d="M-200.5,570.4c-1.7-4.6-5.5-7.2-5.5-7.2l-0.4,8.7l1.9-0.5c-0.5,2.2-2.6,4.2-5.9,5.5
			c-2.7,0.9-8.5,2.1-8.5-1.3c0-0.3,0-0.5,0-0.6v-20.4h4v-2.2h-4v-2.7c2.3-0.6,4-2.7,4-5.2c0-3-2.4-5.4-5.4-5.4c-3,0-5.4,2.4-5.4,5.4
			c0,2.5,1.7,4.6,4,5.2v2.7h-4v2.2h4v21c0,3.4-5.8,2.1-8.5,1.2c-3.3-1.3-5.4-3.3-5.9-5.5l2.1,0.5l-0.4-8.7c0,0-3.8,2.6-5.5,7.2
			l2.2,0.6c-0.2,0.7-0.3,1.6-0.3,2.5c0,4.4,6.2,8.2,15.1,8.9c0,0,0,0,0,0c2.5,0.1,2.6,2.6,2.6,2.6s0.1-2.5,2.6-2.6c0,0,0,0,0,0
			c8.9-0.6,15.1-4.5,15.1-8.9c0-0.9-0.1-1.7-0.3-2.4L-200.5,570.4z M-223.2,544.5c0-1.6,1.3-2.9,2.9-2.9c1.6,0,2.9,1.3,2.9,2.9
			c0,1.6-1.3,2.9-2.9,2.9C-221.9,547.5-223.2,546.1-223.2,544.5z"/>
	</defs>
	<clipPath id="SVGID_2_">
		<use xlink:href="#SVGID_1_"  style="overflow:visible;"/>
	</clipPath>
	<g class="st0">
		<defs>
			<rect id="SVGID_3_" x="-1713.9" y="-2494.9" width="2859" height="5136"/>
		</defs>
		<clipPath id="SVGID_4_">
			<use xlink:href="#SVGID_3_"  style="overflow:visible;"/>
		</clipPath>
	</g>
</g>
<g>
	<defs>
		<path id="SVGID_5_" d="M-89.5,574.1c-1.7-4.6-5.5-7.2-5.5-7.2l-0.4,8.7l1.9-0.5c-0.5,2.2-2.6,4.2-5.9,5.5
			c-2.7,0.9-8.5,2.1-8.5-1.3c0-0.3,0-0.5,0-0.6v-20.4h4v-2.2h-4v-2.7c2.3-0.6,4-2.7,4-5.2c0-3-2.4-5.4-5.4-5.4c-3,0-5.4,2.4-5.4,5.4
			c0,2.5,1.7,4.6,4,5.2v2.7h-4v2.2h4v21c0,3.4-5.8,2.1-8.5,1.2c-3.3-1.3-5.4-3.3-5.9-5.5l2.1,0.5l-0.4-8.7c0,0-3.8,2.6-5.5,7.2
			l2.2,0.6c-0.2,0.7-0.3,1.6-0.3,2.5c0,4.4,6.2,8.2,15.1,8.9c0,0,0,0,0,0c2.5,0.1,2.6,2.6,2.6,2.6s0.1-2.5,2.6-2.6c0,0,0,0,0,0
			c8.9-0.6,15.1-4.5,15.1-8.9c0-0.9-0.1-1.7-0.3-2.4L-89.5,574.1z M-112.2,548.2c0-1.6,1.3-2.9,2.9-2.9c1.6,0,2.9,1.3,2.9,2.9
			c0,1.6-1.3,2.9-2.9,2.9C-110.9,551.1-112.2,549.8-112.2,548.2z"/>
	</defs>
	<clipPath id="SVGID_6_">
		<use xlink:href="#SVGID_5_"  style="overflow:visible;"/>
	</clipPath>
	<g class="st3">
		<defs>
			<rect id="SVGID_7_" x="-1602.9" y="-2491.2" width="2859" height="5136"/>
		</defs>
		<clipPath id="SVGID_8_">
			<use xlink:href="#SVGID_7_"  style="overflow:visible;"/>
		</clipPath>
	</g>
</g>
<g>
	<path class="st2" d="M60,1.8L47.4,14.3l-6.2-6.2L24.3,24.9l7.9-2.5l4.3,4l10.8-10.8l9.2,9.2l7.3-5.1l17.3,5.5L60.1,2L60,1.8z
		 M64,18.8l-0.2-0.1l-7.1,4.9L48,15L59.9,3l18.3,20.3L64,18.8z M46.8,15L36.6,25.2l-4-3.8l-5,1.6L41.2,9.4L46.8,15z"/>
	<path class="st2" d="M16.6,30.1L16.6,30.1c-0.4,0-0.8-0.1-1.2-0.2c-0.5-0.3-0.8-0.7-0.8-1.1l0-0.3c0,0,0-0.1,0-0.1
		c0.2-0.7,0.7-1,1.3-1c0.3,0,0.6,0.1,0.9,0.3l0.1,0.1h0.3l0-0.6l-0.1-0.1c0,0-0.1-0.1-0.3-0.2l-0.6-0.2l-0.5,0v0.2l0-0.2
		c-0.3,0-0.5,0.1-0.9,0.3c-0.6,0.3-1,0.9-1,1.7l0,0.1c0,0.4,0.2,0.8,0.4,1.1c0.4,0.4,0.8,0.7,1.3,0.8l0,0l0,0c0.4,0,0.9,0.1,1.3,0.3
		c0.7,0.4,1,1,1,1.6v0.3c0,0.2,0,0.4-0.1,0.6c-0.4,0.9-1.1,1.4-1.9,1.4c-0.3,0-0.6-0.1-0.9-0.2c-0.5-0.2-0.9-0.7-1-1.2
		c0-0.2-0.1-0.5-0.1-0.7l-0.1-0.2h-0.3c-0.2,0-0.3,0.1-0.3,0.3l0,0.1c0.1,0.4,0.2,0.8,0.4,1.2c0.3,0.6,0.9,1.1,1.6,1.3l0.1,0
		c0.2,0,0.3,0,0.4,0.1l0.3,0l0.3,0v0c0.5-0.1,1-0.3,1.3-0.6c0.7-0.5,1-1.3,1-2.1c0-0.6-0.2-1.1-0.5-1.5
		C17.8,30.7,17.2,30.3,16.6,30.1z"/>
	<path class="st2" d="M21.6,26.6l-0.3,0v0.2l0,0.4h2.4v7.9l0,0.2l0.1,0.1c0,0,0.1,0,0.1,0c0,0,0.1,0,0.1,0l0.3,0v-8.1h2.1l0.3,0
		v-0.2l0-0.4H21.6z"/>
	<path class="st2" d="M33.4,26.7l-0.1,0.1c-1.4,3.1-2.5,5.3-3.1,6.7c-0.4,0.9-0.7,1.5-0.8,1.6l0,0l0,0.3H30l0.1-0.1
		c0.1-0.1,0.2-0.5,0.5-1.1c0.6-1.2,1.6-3.3,3-6.3c0.9,2,3.4,7.4,3.6,7.6l0.1,0.1h0.7l-4.1-8.8H33.4z"/>
	<path class="st2" d="M43.3,30.1L43.3,30.1c-0.4,0-0.8-0.1-1.2-0.2c-0.4-0.2-0.7-0.6-0.8-1.1l0-0.3c0,0,0-0.1,0-0.1
		c0.2-0.7,0.7-1,1.3-1c0.3,0,0.6,0.1,0.9,0.3l0.1,0H44l0-0.6l-0.1-0.1c0,0-0.1-0.1-0.3-0.2L43,26.7l-0.5,0l0,0.1l0-0.1
		c-0.2,0-0.5,0.1-0.8,0.3c-0.6,0.3-1,0.9-1,1.7l0,0.2c0,0.4,0.2,0.8,0.4,1.1c0.3,0.4,0.8,0.7,1.3,0.8l0,0l0,0c0.4,0,0.9,0.1,1.3,0.3
		c0.7,0.4,1,1,1,1.6v0.3c0,0.2,0,0.4-0.1,0.6c-0.4,0.9-1.1,1.4-1.9,1.4c-0.3,0-0.6-0.1-0.9-0.2c-0.5-0.3-0.9-0.8-1-1.2
		c0-0.2-0.1-0.5-0.2-0.7l-0.1-0.2h-0.3c-0.2,0-0.3,0.1-0.3,0.3l0,0.1c0,0.4,0.2,0.9,0.4,1.2c0.3,0.6,0.9,1.1,1.6,1.3l0.1,0
		c0.2,0,0.3,0,0.4,0.1l0.3,0l0.2,0v0c0.5-0.1,1-0.3,1.3-0.6c0.7-0.5,1-1.3,1-2.1c0-0.5-0.2-1.1-0.5-1.6C44.5,30.7,44,30.3,43.3,30.1
		z"/>
	<path class="st2" d="M48.9,34.8l3.8-7.8l0-0.3H49l-0.2,0l-0.1,0.2l0,0.2l0,0l0,0.3h3c-0.8,1.6-1.4,3-2,4.1c-1,2.1-1.7,3.5-1.8,3.7
		l0,0.1l0,0.4h5.1l0.3,0v-0.2l0-0.4H48.9z"/>
	<polygon class="st2" points="56.1,26.7 56,27 56.1,27 56.1,35.3 56.1,35.6 56.5,35.6 56.8,35.5 56.8,26.9 56.8,26.6 	"/>
	<path class="st2" d="M66,33.5L66,33.5c-0.8,0.8-1.7,1.3-2.6,1.3c-0.7,0-1.4-0.2-2-0.7c-0.9-0.7-1.5-1.8-1.5-3
		c0-0.6,0.2-1.3,0.5-1.9c0.8-1.2,1.8-1.8,3-1.8c0.3,0,0.7,0.1,1,0.2l0.3,0l0-0.6l-0.1-0.1c0,0-0.1,0-0.2-0.1l-0.1,0
		c-0.2,0-0.4,0-0.5-0.1l-0.6,0l-0.1,0c-0.1,0-0.1,0-0.2,0l-0.1,0l-0.1,0c-0.8,0.1-1.6,0.5-2.2,1.1c-0.6,0.6-1,1.3-1.2,2.2
		c0,0.3-0.1,0.5-0.1,0.8l0,0.5l0,0.2h0c0,0.2,0.1,0.3,0.1,0.5c0.1,0.6,0.4,1.2,0.8,1.7c0.6,0.8,1.4,1.4,2.4,1.6l0.1,0
		c0.2,0,0.4,0,0.6,0.1l0.1,0l0.3,0c0.4,0,0.7-0.1,1.1-0.2c0.7-0.3,1.4-0.7,1.8-1.3l0.1-0.1l0-0.4H66z"/>
	<path class="st2" d="M73.1,26.7L73,26.9c-2.4,5.1-3.7,7.9-3.9,8.3l0,0.1l0,0.4h0.6l0.1-0.1c0.1-0.1,0.2-0.5,0.5-1.1
		c0.6-1.2,1.6-3.3,3-6.3l1,2.2c2.2,4.8,2.5,5.3,2.5,5.4l0.1,0.1h0.7l-4.1-8.8H73.1z"/>
	<polygon class="st2" points="85.6,26.6 85.4,26.7 85.3,26.8 85.3,27.1 85.4,27.1 85.4,27.3 86.4,27.3 86.4,35.3 86.4,35.6 
		86.8,35.6 87.1,35.5 87.1,26.9 87,26.6 	"/>
	<path class="st2" d="M92.6,30h-0.2c-0.2,0-0.4,0-0.6,0.1l2.1-3.1l0-0.4h-0.5l-0.9,1.2c-1.6,2.3-1.9,2.9-2,3
		c-0.4,0.6-0.7,1.2-0.8,1.9l0,0.3l0,0.1c0,0.2,0.1,0.4,0.1,0.6c0.2,0.5,0.5,1,0.9,1.3c0.3,0.2,0.6,0.4,1,0.5l0.1,0
		c0.1,0,0.3,0,0.4,0.1l0.5,0l0.3,0v0c0.3-0.1,0.5-0.1,0.7-0.2c1-0.6,1.6-1.4,1.6-2.4v-0.1c0-0.3-0.1-0.7-0.2-1.1
		C94.4,30.6,93.6,30,92.6,30z M90.4,32.7c0-0.3,0.1-0.7,0.3-1c0.5-0.7,1-1,1.6-1l0.3,0c0.3,0,0.5,0.1,0.7,0.2
		c0.7,0.4,1.1,1.1,1.1,1.8c0,0.2-0.1,0.5-0.1,0.7c-0.4,0.9-1,1.4-1.9,1.4c-0.3,0-0.5-0.1-0.8-0.2c-0.8-0.4-1.2-1-1.2-1.8V32.7z"/>
	<rect x="2.4" y="31.4" class="st2" width="7.8" height="0.9"/>
	<rect x="99.1" y="31.4" class="st2" width="7.8" height="0.9"/>
</g>
</svg>
