<?xml version="1.0" encoding="utf-8"?>
<!-- Generator: Adobe Illustrator 25.2.0, SVG Export Plug-In . SVG Version: 6.00 Build 0)  -->
<svg version="1.1" id="Layer_1" xmlns="http://www.w3.org/2000/svg" xmlns:xlink="http://www.w3.org/1999/xlink" x="0px" y="0px"
	 viewBox="0 0 109.4 40" style="enable-background:new 0 0 109.4 40;" xml:space="preserve">
<style type="text/css">
	.st0{clip-path:url(#SVGID_2_);}
	.st1{clip-path:url(#SVGID_4_);fill:#FFFFFF;}
	.st2{fill:#FFFFFF;}
	.st3{clip-path:url(#SVGID_6_);}
	.st4{clip-path:url(#SVGID_8_);fill:#FFFFFF;}
	.st5{clip-path:url(#SVGID_10_);}
</style>
<g>
	<defs>
		<path id="SVGID_1_" d="M-200.5,570.4c-1.7-4.6-5.5-7.2-5.5-7.2l-0.4,8.7l1.9-0.5c-0.5,2.2-2.6,4.2-5.9,5.5
			c-2.7,0.9-8.5,2.1-8.5-1.3c0-0.3,0-0.5,0-0.6v-20.4h4v-2.2h-4v-2.7c2.3-0.6,4-2.7,4-5.2c0-3-2.4-5.4-5.4-5.4c-3,0-5.4,2.4-5.4,5.4
			c0,2.5,1.7,4.6,4,5.2v2.7h-4v2.2h4v21c0,3.4-5.8,2.1-8.5,1.2c-3.3-1.3-5.4-3.3-5.9-5.5l2.1,0.5l-0.4-8.7c0,0-3.8,2.6-5.5,7.2
			l2.2,0.6c-0.2,0.7-0.3,1.6-0.3,2.5c0,4.4,6.2,8.2,15.1,8.9c0,0,0,0,0,0c2.5,0.1,2.6,2.6,2.6,2.6s0.1-2.5,2.6-2.6c0,0,0,0,0,0
			c8.9-0.6,15.1-4.5,15.1-8.9c0-0.9-0.1-1.7-0.3-2.4L-200.5,570.4z M-223.2,544.5c0-1.6,1.3-2.9,2.9-2.9c1.6,0,2.9,1.3,2.9,2.9
			c0,1.6-1.3,2.9-2.9,2.9C-221.9,547.5-223.2,546.1-223.2,544.5z"/>
	</defs>
	<clipPath id="SVGID_2_">
		<use xlink:href="#SVGID_1_"  style="overflow:visible;"/>
	</clipPath>
	<g class="st0">
		<defs>
			<rect id="SVGID_3_" x="-1713.9" y="-2494.9" width="2859" height="5136"/>
		</defs>
		<clipPath id="SVGID_4_">
			<use xlink:href="#SVGID_3_"  style="overflow:visible;"/>
		</clipPath>
	</g>
</g>
<g>
	<defs>
		<path id="SVGID_5_" d="M-89.5,574.1c-1.7-4.6-5.5-7.2-5.5-7.2l-0.4,8.7l1.9-0.5c-0.5,2.2-2.6,4.2-5.9,5.5
			c-2.7,0.9-8.5,2.1-8.5-1.3c0-0.3,0-0.5,0-0.6v-20.4h4v-2.2h-4v-2.7c2.3-0.6,4-2.7,4-5.2c0-3-2.4-5.4-5.4-5.4c-3,0-5.4,2.4-5.4,5.4
			c0,2.5,1.7,4.6,4,5.2v2.7h-4v2.2h4v21c0,3.4-5.8,2.1-8.5,1.2c-3.3-1.3-5.4-3.3-5.9-5.5l2.1,0.5l-0.4-8.7c0,0-3.8,2.6-5.5,7.2
			l2.2,0.6c-0.2,0.7-0.3,1.6-0.3,2.5c0,4.4,6.2,8.2,15.1,8.9c0,0,0,0,0,0c2.5,0.1,2.6,2.6,2.6,2.6s0.1-2.5,2.6-2.6c0,0,0,0,0,0
			c8.9-0.6,15.1-4.5,15.1-8.9c0-0.9-0.1-1.7-0.3-2.4L-89.5,574.1z M-112.2,548.2c0-1.6,1.3-2.9,2.9-2.9c1.6,0,2.9,1.3,2.9,2.9
			c0,1.6-1.3,2.9-2.9,2.9C-110.9,551.1-112.2,549.8-112.2,548.2z"/>
	</defs>
	<clipPath id="SVGID_6_">
		<use xlink:href="#SVGID_5_"  style="overflow:visible;"/>
	</clipPath>
	<g class="st3">
		<defs>
			<rect id="SVGID_7_" x="-1602.9" y="-2491.2" width="2859" height="5136"/>
		</defs>
		<clipPath id="SVGID_8_">
			<use xlink:href="#SVGID_7_"  style="overflow:visible;"/>
		</clipPath>
	</g>
</g>
<g>
	<path class="st2" d="M36.6,26.1l-4.2-3.9l-7.1,2.2L41.2,8.4l6.2,6.2L60,2.1l20.4,22.5l-16.5-5.2l-7.2,5.1l-9.2-9.2L36.6,26.1z
		 M32.5,21.7l4.1,3.8L47.1,15l-6-6L26.7,23.5L32.5,21.7z M47.7,15l9,9l7.1-5l0.1,0l15.2,4.8L60,2.7L47.7,15z"/>
</g>
<g>
	<path class="st2" d="M15.8,26.9h0.4l0.6,0.2c0.1,0.1,0.2,0.2,0.2,0.2v0.2h0c-0.3-0.2-0.7-0.4-1.1-0.4c-0.8,0-1.3,0.4-1.5,1.2
		c0,0.1,0,0.2,0,0.2v0.2c0,0.5,0.3,0.9,0.9,1.3c0.4,0.1,0.8,0.2,1.2,0.2c0.6,0.2,1.1,0.5,1.5,1c0.3,0.4,0.4,0.9,0.5,1.4
		c0,0.8-0.4,1.5-0.9,1.9c-0.4,0.3-0.9,0.5-1.4,0.6c0,0,0,0,0,0h-0.2c-0.2-0.1-0.4-0.1-0.6-0.1c-0.6-0.2-1.2-0.6-1.5-1.2
		c-0.2-0.4-0.3-0.8-0.4-1.1v0c0,0,0,0,0,0h0.1c0.1,0.2,0.1,0.5,0.1,0.7c0.2,0.6,0.6,1.1,1.2,1.4c0.3,0.2,0.7,0.2,1,0.2
		c1,0,1.7-0.5,2.2-1.5c0.1-0.2,0.1-0.5,0.1-0.7v-0.3c0-0.7-0.4-1.3-1.1-1.8c-0.5-0.2-1-0.4-1.5-0.3c-0.4-0.1-0.8-0.4-1.1-0.7
		c-0.2-0.3-0.3-0.6-0.4-1v-0.1c0-0.6,0.4-1.2,0.9-1.5C15.3,27,15.6,26.9,15.8,26.9L15.8,26.9C15.8,26.9,15.8,26.9,15.8,26.9z"/>
</g>
<g>
	<path class="st2" d="M21.6,26.9h4.9c0,0,0,0,0,0v0.1c0,0,0,0,0,0h-2.3v8.1c0,0,0,0,0,0l0,0H24c-0.1,0-0.1,0-0.1,0v-8.2h-2.4
		c0,0,0,0,0,0l0,0L21.6,26.9C21.6,26.9,21.6,26.9,21.6,26.9z"/>
</g>
<g>
	<path class="st2" d="M33.5,27L33.5,27l4,8.3h-0.2c-0.1-0.1-1.3-2.6-3.6-7.7c0-0.1,0-0.1-0.1-0.2h0c-2.3,4.9-3.6,7.6-3.7,7.9h-0.2
		c0,0,0,0,0,0l0,0C29.9,34.8,31.2,32.1,33.5,27z"/>
</g>
<g>
	<path class="st2" d="M42.5,26.9h0.4l0.6,0.2c0.1,0.1,0.2,0.2,0.2,0.2v0.2h0c-0.3-0.2-0.7-0.4-1.1-0.4c-0.8,0-1.3,0.4-1.5,1.2
		c0,0.1,0,0.2,0,0.2v0.2c0,0.6,0.4,1.1,0.9,1.3c0.4,0.1,0.8,0.2,1.2,0.2c0.6,0.2,1.1,0.5,1.5,1c0.3,0.4,0.4,0.9,0.4,1.4
		c0,0.8-0.4,1.5-0.9,1.9c-0.4,0.3-0.9,0.5-1.4,0.6v0l0,0h-0.2c-0.2-0.1-0.4-0.1-0.6-0.1c-0.6-0.2-1.2-0.6-1.5-1.2
		c-0.2-0.4-0.3-0.8-0.4-1.1v0c0,0,0,0,0,0l0,0h0.1c0.1,0.2,0.1,0.5,0.2,0.7c0.2,0.6,0.6,1.1,1.1,1.4c0.3,0.2,0.7,0.2,1,0.2
		c1,0,1.7-0.5,2.2-1.5c0.1-0.2,0.1-0.5,0.1-0.7v-0.3c0-0.7-0.4-1.3-1.1-1.8c-0.5-0.2-1-0.4-1.5-0.3c-0.4-0.1-0.8-0.4-1.1-0.7
		c-0.2-0.3-0.3-0.6-0.4-1v-0.2c0-0.6,0.4-1.2,0.9-1.5C42,27,42.3,26.9,42.5,26.9C42.5,26.9,42.5,26.9,42.5,26.9L42.5,26.9z"/>
</g>
<g>
	<path class="st2" d="M49,26.9h3.4c0,0,0,0,0,0l-4,8.1h4.7c0,0,0,0,0,0v0.1c0,0,0,0,0,0h-4.9c0,0,0,0,0,0c0.2-0.2,1.5-3,4-8.1h-3.2
		c0,0,0,0,0,0l0,0V26.9C49,26.9,49,26.9,49,26.9z"/>
</g>
<g>
	<path class="st2" d="M56.4,26.9h0.2c0,0,0,0,0,0v8.3c0,0,0,0,0,0h-0.2c0,0,0,0,0,0L56.4,26.9C56.3,26.9,56.3,26.9,56.4,26.9z"/>
</g>
<g>
	<path class="st2" d="M63.2,26.9h0.5c0.2,0.1,0.4,0.1,0.6,0.1c0.1,0,0.2,0.1,0.2,0.1v0.2h0c-0.4-0.1-0.7-0.2-1.1-0.2
		c-1.3,0-2.4,0.6-3.2,1.9c-0.3,0.6-0.5,1.3-0.5,2.1c0,1.3,0.6,2.5,1.6,3.2c0.6,0.5,1.3,0.7,2.1,0.7c1,0,2-0.5,2.7-1.3h0.2
		c0,0,0,0,0,0c-0.5,0.6-1.1,0.9-1.7,1.2c-0.4,0.1-0.7,0.2-1.1,0.2h-0.3c-0.2-0.1-0.4-0.1-0.7-0.1c-0.9-0.2-1.7-0.8-2.3-1.5
		c-0.4-0.5-0.6-1-0.7-1.6c-0.1-0.2-0.1-0.4-0.1-0.7h0l0,0v-0.5c0.1-0.3,0.1-0.6,0.2-0.8c0.2-0.8,0.6-1.5,1.1-2
		c0.6-0.6,1.3-0.9,2.1-1.1C62.9,27,63,26.9,63.2,26.9z"/>
</g>
<g>
	<path class="st2" d="M73.3,27L73.3,27l4,8.3h-0.2c-0.1-0.1-1.3-2.6-3.6-7.7c0-0.1,0-0.1-0.1-0.2h0c-2.3,4.9-3.6,7.6-3.7,7.9h-0.2
		c0,0,0,0,0,0C69.6,34.8,70.9,32.1,73.3,27z"/>
</g>
<g>
	<path class="st2" d="M85.6,26.9h1.1c0,0,0,0,0,0v8.3c0,0,0,0,0,0h-0.1c0,0,0,0,0,0l0,0v-8.2h-0.9c0,0,0,0,0,0V26.9
		C85.6,26.9,85.6,26.9,85.6,26.9z"/>
</g>
<g>
	<path class="st2" d="M93.5,26.9h0.1c0,0,0,0,0,0l-2.5,3.8h0c0.4-0.2,0.8-0.4,1.3-0.4h0.2c0.9,0,1.6,0.5,2.2,1.5
		c0.1,0.3,0.2,0.6,0.2,0.9v0.1c0,0.9-0.5,1.7-1.4,2.2c-0.3,0.1-0.6,0.2-0.9,0.2c0,0,0,0,0,0h-0.4c-0.2-0.1-0.3-0.1-0.5-0.1
		c-0.4-0.1-0.7-0.3-0.9-0.5c-0.4-0.3-0.7-0.8-0.8-1.2c-0.1-0.2-0.1-0.4-0.2-0.6v-0.2c0.1-0.6,0.4-1.2,0.7-1.7c0,0,0.7-1,2-3
		L93.5,26.9z M90.2,32.7v0.1c0,0.9,0.5,1.6,1.4,2.1c0.3,0.1,0.6,0.2,0.9,0.2c0.9,0,1.7-0.5,2.1-1.5c0.1-0.3,0.2-0.6,0.2-0.8
		c0-0.9-0.5-1.7-1.3-2.1c-0.3-0.1-0.6-0.2-0.8-0.2h-0.4c-0.7,0-1.3,0.4-1.8,1.1C90.3,31.9,90.2,32.3,90.2,32.7z"/>
</g>
<g>
	<rect x="2.6" y="31.6" class="st2" width="7.3" height="0.4"/>
</g>
<g>
	<rect x="99.4" y="31.6" class="st2" width="7.3" height="0.4"/>
</g>
</svg>
