<?xml version="1.0" encoding="UTF-8"?>
<svg width="78px" height="42px" viewBox="0 0 78 42" version="1.1" xmlns="http://www.w3.org/2000/svg" xmlns:xlink="http://www.w3.org/1999/xlink">
    <title>06FA7CFF-230B-481B-AE83-BE460A2C64B9</title>
    <defs>
        <polygon id="path-1" points="0.342763636 0.502057143 11.9170909 0.502057143 11.9170909 19.9369143 0.342763636 19.9369143"></polygon>
        <polygon id="path-3" points="0.3028 0.144978261 39.5850857 0.144978261 39.5850857 39 0.3028 39"></polygon>
    </defs>
    <g id="Page-1" stroke="none" stroke-width="1" fill="none" fill-rule="evenodd">
        <g id="1" transform="translate(-166.000000, -5070.000000)">
            <g id="logo_white" transform="translate(166.000000, 5070.978261)">
                <path d="M9.91798882,30.0217391 C6.94836675,30.0217391 4.538479,29.096237 2.71748434,27.272706 C0.896489679,25.4211294 0,23.0086424 0,20.0358175 C0,16.8094382 1.20408627,14.1170684 3.08168327,12.5184738 C4.9861521,10.9193069 7.36916803,10.0224227 9.91798882,10.0224227 C12.6646319,9.99380481 14.989902,10.8637882 16.8674991,12.6300835 C16.9795603,12.7434103 16.9795603,12.8550201 16.8674991,12.9952476 L14.7937949,15.9411718 C14.709749,16.1088725 14.5696725,16.1088725 14.4021524,15.9411718 C13.112305,14.8182063 11.6269223,14.2578683 9.91798882,14.2578683 C8.20962711,14.2578683 6.86374911,14.7907332 5.82775466,15.8564629 C4.79004498,16.8935747 4.28634128,18.296423 4.28634128,20.0358175 C4.28634128,21.7465941 4.79004498,23.1494424 5.82775466,24.1876989 C6.86374911,25.2253831 8.20962711,25.758248 9.91798882,25.758248 C11.5714634,25.758248 13.083718,25.1967652 14.4021524,24.0743721 C14.5696725,23.9341446 14.709749,23.9627624 14.7937949,24.1035624 L16.8949426,27.0489142 C17.0350191,27.2166149 17.0350191,27.3568425 16.8949426,27.4415514 C15.1013915,29.1517557 12.7761214,30.0217391 9.91798882,30.0217391" id="Fill-1" fill="#FFFFFF"></path>
                <path d="M50.3383703,15.0182697 L50.3383703,19.1801585 L54.2514669,19.1801585 C55.0453111,19.1801585 56.1793743,18.550568 56.1793743,17.1271462 C56.1793743,15.7037244 55.0453111,15.0462018 54.2514669,15.0182697 L50.3383703,15.0182697 Z M52.4936689,23.2046211 L50.3383703,23.2046211 L50.3383703,29.7474455 C50.3383703,29.93906 50.2527369,30.0217391 50.0542759,30.0217391 L46.2829372,30.0217391 C46.0838975,30.0217391 46,29.93906 46,29.7474455 L46,11.2954741 C46,11.1044183 46.0838975,11.0217391 46.2829372,11.0217391 L54.1947637,11.0217391 C56.1226711,11.0217391 57.654235,11.5965826 58.7882982,12.7462694 C59.9217828,13.8953977 60.489393,15.3467516 60.5183231,17.0992141 C60.489393,19.7550019 59.071814,21.9180668 56.6619297,22.79346 L60.9430182,29.6932572 C61.0570032,29.9122451 60.9997214,30.0217391 60.7734874,30.0217391 L56.6619297,30.0217391 C56.5485234,30.0217391 56.4339599,29.9669921 56.3500623,29.884313 L52.4936689,23.2046211 Z" id="Fill-3" fill="#FFFFFF"></path>
                <g id="Group-7" transform="translate(66.000000, 10.021739)">
                    <mask id="mask-2" fill="white">
                        <use xlink:href="#path-1"></use>
                    </mask>
                    <g id="Clip-6"></g>
                    <path d="M4.43203636,12.0397714 L4.43203636,15.8203429 L11.6489455,15.8203429 C11.8365818,15.8203429 11.9173091,15.9049143 11.9173091,16.1003429 L11.9173091,19.6849143 C11.9173091,19.8523429 11.8365818,19.9369143 11.6762182,19.9369143 L0.608945455,19.9369143 C0.421854545,19.9369143 0.342763636,19.8523429 0.342763636,19.6569143 L0.342763636,0.782628571 C0.342763636,0.586628571 0.421854545,0.502057143 0.608945455,0.502057143 L11.4089455,0.502057143 C11.5960364,0.502057143 11.6762182,0.586628571 11.6762182,0.782628571 L11.6762182,4.3672 C11.6762182,4.53462857 11.5960364,4.6192 11.4089455,4.6192 L4.43203636,4.6192 L4.43203636,8.0072 L10.1254909,8.0072 C10.3125818,8.0072 10.3933091,8.09062857 10.3933091,8.28662857 L10.3933091,11.7597714 C10.3933091,11.9557714 10.3125818,12.0397714 10.1254909,12.0397714 L4.43203636,12.0397714 Z" id="Fill-5" fill="#FFFFFF" mask="url(#mask-2)"></path>
                </g>
                <g id="Group-10" transform="translate(11.000000, 1.021739)">
                    <mask id="mask-4" fill="white">
                        <use xlink:href="#path-3"></use>
                    </mask>
                    <g id="Clip-9"></g>
                    <path d="M14.2490857,19.1515435 C14.2490857,17.4621087 14.7810857,16.1050217 15.8165143,15.0791522 C16.8536571,14.0549783 18.2542286,13.5287609 19.9616571,13.5287609 C21.4970857,13.5287609 22.7576571,13.9571957 23.7502286,14.7869348 L15.5210857,22.9266304 C14.6822286,21.9408913 14.2490857,20.6708478 14.2490857,19.1515435 L14.2490857,19.1515435 Z M39.5850857,1.16632609 L38.5530857,0.144978261 L26.8450857,11.7257174 C25.0645143,10.1176739 22.7645143,9.29132609 19.9330857,9.29132609 C16.9365143,9.29132609 14.5290857,10.2052826 12.7085143,12.0049348 C10.8885143,13.8057174 9.96451429,16.1886739 9.96451429,19.1515435 C9.96451429,21.9516304 10.7999429,24.2260652 12.4256571,25.988413 L0.3028,37.9789348 L1.3348,39.0002826 L16.1439429,24.3521087 C17.1016571,25.208413 18.3262286,25.7900217 19.7079429,25.9369783 C23.1896571,26.3083261 26.3159429,23.817413 26.6908,20.3735435 C26.8925143,18.526413 26.2519429,16.7872391 25.0856571,15.5081522 L39.5850857,1.16632609 Z" id="Fill-8" fill="#FFFFFF" mask="url(#mask-4)"></path>
                </g>
                <path d="M2.33563727,5.02173913 C1.63671551,5.02173913 1.06939453,4.79073339 0.640862593,4.33518771 C0.211224772,3.87200062 0,3.26950472 0,2.52534881 C0,1.71947381 0.284213437,1.04585401 0.726016035,0.646149417 C1.17500691,0.245857021 1.73569256,0.0219048879 2.33563727,0.0219048879 C2.98258225,0.0148512774 3.52944429,0.232925402 3.97179983,0.674363859 C3.99834117,0.702578301 3.99834117,0.730204942 3.97179983,0.765472995 L3.58916229,1.29860839 C3.5631739,1.33387644 3.52944429,1.33387644 3.49737351,1.29860839 C3.17390102,0.996478739 2.79126348,0.84952852 2.33563727,0.84952852 C1.87392867,0.84952852 1.49792646,1.00353235 1.21481891,1.31212781 C0.930605474,1.61366966 0.792369367,2.02042786 0.792369367,2.52534881 C0.792369367,3.02321616 0.930605474,3.42292075 1.21481891,3.73151621 C1.49792646,4.03305806 1.87392867,4.18764969 2.33563727,4.18764969 C2.77799281,4.18764969 3.16063036,4.04011167 3.49737351,3.74562343 C3.53663257,3.70388957 3.56925629,3.70388957 3.58916229,3.74562343 L3.9850705,4.27875882 C4.0049765,4.32108049 4.0049765,4.35576074 3.9850705,4.37692157 C3.5631739,4.80484061 3.01520597,5.02173913 2.33563727,5.02173913" id="Fill-11" fill="#FFFFFF"></path>
                <path d="M6.8654311,2.875 L6.8654311,4.20772947 L8.93533441,4.20772947 C8.97099114,4.20048309 9,4.23671498 9,4.272343 L9,4.9571256 C9,5 8.97824335,5.02173913 8.93533441,5.02173913 L6.07252216,5.02173913 C6.02175665,5.02173913 6,5 6,4.94987923 L6.00725222,0.0942028986 C6.00725222,0.0434782609 6.02900886,0.0217391304 6.07252216,0.0217391304 L8.8634166,0.0217391304 C8.91357776,0.0217391304 8.93533441,0.0434782609 8.93533441,0.0942028986 L8.93533441,0.771135266 C8.93533441,0.821859903 8.91357776,0.843599034 8.8634166,0.843599034 L6.8654311,0.843599034 L6.8654311,2.06823671 L8.51651894,2.06823671 C8.5666801,2.06823671 8.5890411,2.08937198 8.5890411,2.13949275 L8.5890411,2.80253623 C8.5890411,2.85326087 8.5666801,2.875 8.52377115,2.875 L6.8654311,2.875 Z" id="Fill-13" fill="#FFFFFF"></path>
                <path d="M13.9301131,0.0217391304 C13.979445,0.0217391304 14,0.0434782609 14,0.0942028986 L14,4.94987923 C14,5 13.979445,5.02173913 13.9301131,5.02173913 L13.1173102,5.02173913 C13.0826604,5.02173913 13.0615181,5.00724638 13.0403759,4.97826087 L10.8398179,1.43417874 L10.8398179,4.94987923 C10.8398179,5 10.819263,5.02173913 10.7705183,5.02173913 L10.0698869,5.02173913 C10.020555,5.02173913 10,5 10,4.94987923 L10,0.0942028986 C10,0.0434782609 10.020555,0.0217391304 10.0698869,0.0217391304 L10.8826898,0.0217391304 C10.9173396,0.0217391304 10.9525767,0.0362318841 10.973719,0.0724637681 L13.1595948,3.602657 L13.1595948,0.0942028986 C13.1595948,0.0434782609 13.180737,0.0217391304 13.230069,0.0217391304 L13.9301131,0.0217391304 Z" id="Fill-15" fill="#FFFFFF"></path>
                <path d="M16.1500082,0.843599034 L15.0533181,0.843599034 C15.0180988,0.843599034 15,0.821859903 15,0.771135266 L15,0.0942028986 C15,0.0434782609 15.0180988,0.0217391304 15.059188,0.0217391304 L17.9476602,0.0217391304 C17.9823903,0.0217391304 18,0.0434782609 18,0.0942028986 L18,0.771135266 C18,0.821859903 17.9823903,0.843599034 17.9476602,0.843599034 L16.850481,0.843599034 L16.850481,4.9571256 C16.850481,5 16.8328714,5.02173913 16.797652,5.02173913 L16.208707,5.02173913 C16.1676178,5.02173913 16.1500082,5 16.1500082,4.9571256 L16.1500082,0.843599034 Z" id="Fill-17" fill="#FFFFFF"></path>
                <path d="M20.7337964,0.835748792 L20.7337964,2.26207729 L21.5766638,2.26207729 C21.9187266,2.26207729 22.1942203,2.01811594 22.1942203,1.55676329 C22.1942203,1.08756039 21.9187266,0.835748792 21.5766638,0.835748792 L20.7337964,0.835748792 Z M21.2530355,3.0839372 L20.7337964,3.0839372 L20.7337964,4.94987923 C20.7337964,5 20.7153619,5.02173913 20.672348,5.02173913 L20.0619605,5.02173913 C20.0189466,5.02173913 20,5 20,4.94987923 L20,0.0935990338 C20,0.0434782609 20.0189466,0.0217391304 20.0558156,0.0217391304 L21.5643741,0.0217391304 C21.9858078,0.0217391304 22.316093,0.166062802 22.5542056,0.446859903 C22.798463,0.727657005 22.9208477,1.09541063 22.9269926,1.54891304 C22.9208477,2.29830918 22.5664952,2.83876812 21.9735181,3.01207729 L22.9879289,4.93538647 C23.0125083,4.99335749 23.0002186,5.02173913 22.944915,5.02173913 L22.2551566,5.02173913 C22.2244324,5.02173913 22.2059979,5.00724638 22.1942203,4.98550725 L21.2530355,3.0839372 Z" id="Fill-19" fill="#FFFFFF"></path>
                <path d="M26.0018222,1.09649418 L25.3877899,2.95085489 L26.6102492,2.95085489 L26.0018222,1.09649418 Z M26.8533143,3.69417169 L25.1508397,3.69417169 L24.7253484,4.97153954 C24.7192336,5.00722359 24.7013986,5.02173913 24.6647095,5.02173913 L24.0506772,5.02173913 C24.0017585,5.02173913 23.9900383,4.99331286 24.0078733,4.94250845 L25.6007903,0.0864542629 C25.6191348,0.0429076317 25.6435942,0.0217391304 25.6858886,0.0217391304 L26.3182654,0.0217391304 C26.3605597,0.0217391304 26.3850191,0.0429076317 26.3967392,0.0864542629 L27.9962806,4.94250845 C28.0085103,4.99331286 27.9901658,5.02173913 27.9473619,5.02173913 L27.3333296,5.02173913 C27.3032649,5.02173913 27.2788056,5.00722359 27.2726907,4.97153954 L26.8533143,3.69417169 Z" id="Fill-21" fill="#FFFFFF"></path>
                <path d="M30.6761095,4.25060386 L31.9438149,4.25060386 C31.983475,4.25060386 32,4.272343 32,4.31521739 L32,4.95652174 C32,5 31.983475,5.02173913 31.9490085,5.02173913 L30.0566572,5.02173913 C30.0169972,5.02173913 30,5 30,4.95652174 L30,0.0935990338 C30,0.0428743961 30.0169972,0.0217391304 30.0509915,0.0217391304 L30.6199245,0.0217391304 C30.6591124,0.0217391304 30.6761095,0.0428743961 30.6761095,0.0935990338 L30.6761095,4.25060386 Z" id="Fill-23" fill="#FFFFFF"></path>
            </g>
        </g>
    </g>
</svg>